<svg width="19" height="20" viewBox="0 0 19 20" fill="none" xmlns="http://www.w3.org/2000/svg">
<path fill-rule="evenodd" clip-rule="evenodd" d="M7.73776 4.45837L2.9751 3.6192L3.11285 2.83862C3.12192 2.78741 3.141 2.73849 3.169 2.69465C3.19699 2.65082 3.23335 2.61293 3.27599 2.58315C3.31863 2.55338 3.36672 2.5323 3.41752 2.52112C3.46831 2.50994 3.52081 2.50888 3.57201 2.51799L14.5754 4.45837H14.6451H14.5762L16.0447 4.71725C16.096 4.72623 16.145 4.74524 16.1889 4.7732C16.2329 4.80115 16.2708 4.83749 16.3007 4.88014C16.3306 4.9228 16.3517 4.97092 16.3629 5.02176C16.3742 5.0726 16.3753 5.12515 16.3661 5.17641L16.2284 5.95541L14.5738 5.66408L13.9405 16.426C13.9169 16.8288 13.7403 17.2075 13.4469 17.4845C13.1535 17.7616 12.7654 17.9162 12.3619 17.9167H6.63893C6.23498 17.9168 5.84627 17.7625 5.55237 17.4854C5.25847 17.2082 5.0816 16.8293 5.05797 16.426L4.42543 5.64587H14.4717L7.73776 4.45837ZM7.12501 7.62504L7.52085 14.75H8.70835L8.39168 7.62504H7.12501ZM10.6875 7.62504L10.2917 14.75H11.4792L11.875 7.62504H10.6875ZM8.59276 1.39383L11.7119 1.94324C11.7631 1.95232 11.8121 1.9714 11.8559 1.99939C11.8997 2.02739 11.9376 2.06374 11.9674 2.10638C11.9972 2.14903 12.0183 2.19712 12.0294 2.24791C12.0406 2.29871 12.0417 2.35121 12.0326 2.40241L11.8948 3.18141L7.99664 2.49424L8.13439 1.71445C8.14347 1.66324 8.16255 1.61432 8.19054 1.57049C8.21853 1.52665 8.25489 1.48876 8.29753 1.45899C8.34017 1.42921 8.38826 1.40813 8.43906 1.39695C8.48985 1.38577 8.54156 1.38471 8.59276 1.39383Z" fill="#524B6B"/>
</svg>
