<svg width="28" height="27" viewBox="0 0 28 27" fill="none" xmlns="http://www.w3.org/2000/svg">
<path d="M26.5464 13.6849H9.36784M3.30423 13.6849H0.82373M3.30423 13.6849C3.30423 12.881 3.62358 12.11 4.19202 11.5416C4.76047 10.9731 5.53144 10.6538 6.33534 10.6538C7.13924 10.6538 7.91022 10.9731 8.47866 11.5416C9.0471 12.11 9.36645 12.881 9.36645 13.6849C9.36645 14.4888 9.0471 15.2597 8.47866 15.8282C7.91022 16.3966 7.13924 16.716 6.33534 16.716C5.53144 16.716 4.76047 16.3966 4.19202 15.8282C3.62358 15.2597 3.30423 14.4888 3.30423 13.6849ZM26.5464 22.8714H18.5543M18.5543 22.8714C18.5543 23.6754 18.2342 24.4473 17.6656 25.0159C17.0971 25.5844 16.3259 25.9039 15.5218 25.9039C14.7179 25.9039 13.947 25.5831 13.3785 25.0147C12.8101 24.4462 12.4907 23.6753 12.4907 22.8714M18.5543 22.8714C18.5543 22.0673 18.2342 21.2968 17.6656 20.7282C17.0971 20.1597 16.3259 19.8403 15.5218 19.8403C14.7179 19.8403 13.947 20.1596 13.3785 20.728C12.8101 21.2965 12.4907 22.0675 12.4907 22.8714M12.4907 22.8714H0.82373M26.5464 4.49839H22.2292M16.1656 4.49839H0.82373M16.1656 4.49839C16.1656 3.69449 16.4849 2.92352 17.0534 2.35508C17.6218 1.78663 18.3928 1.46729 19.1967 1.46729C19.5947 1.46729 19.9889 1.54569 20.3567 1.69801C20.7244 1.85034 21.0585 2.07361 21.34 2.35508C21.6215 2.63654 21.8447 2.97069 21.9971 3.33844C22.1494 3.70619 22.2278 4.10034 22.2278 4.49839C22.2278 4.89644 22.1494 5.2906 21.9971 5.65835C21.8447 6.0261 21.6215 6.36025 21.34 6.64171C21.0585 6.92317 20.7244 7.14644 20.3567 7.29877C19.9889 7.4511 19.5947 7.5295 19.1967 7.5295C18.3928 7.5295 17.6218 7.21015 17.0534 6.64171C16.4849 6.07327 16.1656 5.30229 16.1656 4.49839Z" stroke="white" stroke-width="1.5" stroke-miterlimit="10" stroke-linecap="round"/>
</svg>
