<svg width="24" height="25" viewBox="0 0 24 25" fill="none" xmlns="http://www.w3.org/2000/svg">
<path d="M20.3298 18.5462C20.4398 18.1802 20.4998 17.7912 20.4998 17.3892V8.38916C20.4998 7.32829 20.0783 6.31088 19.3282 5.56073C18.578 4.81059 17.5606 4.38916 16.4998 4.38916H7.49976C6.43889 4.38916 5.42147 4.81059 4.67133 5.56073C3.92118 6.31088 3.49976 7.32829 3.49976 8.38916V17.4592C3.51811 18.5078 3.94763 19.5074 4.69579 20.2424C5.44396 20.9775 6.45091 21.3893 7.49976 21.3892H16.4998L16.6168 21.3872M20.3298 18.5462L20.2418 18.4422L17.7758 15.4662C17.5886 15.2404 17.3542 15.0586 17.089 14.9335C16.8238 14.8084 16.5343 14.7432 16.2411 14.7425C15.9479 14.7417 15.6581 14.8054 15.3923 14.9291C15.1264 15.0528 14.891 15.2334 14.7028 15.4582L13.3908 17.0242L13.1768 17.2852M20.3298 18.5462C20.0872 19.3495 19.5981 20.0552 18.9318 20.5652C18.2654 21.0752 17.4555 21.3628 16.6168 21.3872M13.1768 17.2852L16.5238 21.2812L16.6168 21.3872M13.1768 17.2852L9.94976 13.4322C9.76204 13.2081 9.52749 13.028 9.26264 12.9043C8.99778 12.7807 8.70904 12.7166 8.41676 12.7166C8.12447 12.7166 7.83573 12.7807 7.57088 12.9043C7.30602 13.028 7.07148 13.2081 6.88376 13.4322L3.67776 17.2592L3.50076 17.4602" stroke="#524B6B" stroke-width="1.5" stroke-linecap="round" stroke-linejoin="round"/>
<path d="M15.0908 11.2983C15.9192 11.2983 16.5908 10.6268 16.5908 9.79834C16.5908 8.96991 15.9192 8.29834 15.0908 8.29834C14.2624 8.29834 13.5908 8.96991 13.5908 9.79834C13.5908 10.6268 14.2624 11.2983 15.0908 11.2983Z" fill="#524B6B"/>
</svg>
