<svg width="120" height="30" viewBox="0 0 120 30" fill="none" xmlns="http://www.w3.org/2000/svg">
<rect width="120" height="30" rx="6.14" fill="#FAFDFF"/>
<rect x="0.125" y="0.125" width="119.75" height="29.75" rx="6.015" stroke="#99ABC6" stroke-opacity="0.18" stroke-width="0.25"/>
<path d="M17.9995 25.0241V15.0003M17.9995 9.43156H13.4889C10.4038 9.43156 10.2144 4.97656 13.4889 4.97656C16.9972 4.97656 17.9995 9.43156 17.9995 9.43156ZM17.9995 9.43156H22.5102C25.7357 9.43156 25.7357 4.97656 22.5102 4.97656C19.0019 4.97656 17.9995 9.43156 17.9995 9.43156Z" stroke="#1E1E1E" stroke-width="1.75" stroke-linecap="round" stroke-linejoin="round"/>
<path d="M26.9098 15.0004V22.7966C26.9098 23.3874 26.6751 23.954 26.2574 24.3717C25.8397 24.7895 25.2731 25.0241 24.6823 25.0241H11.3173C10.7266 25.0241 10.16 24.7895 9.74224 24.3717C9.32451 23.954 9.08982 23.3874 9.08982 22.7966V15.0004M28.0236 15.0004V11.6591C28.0236 11.0684 27.7889 10.5018 27.3712 10.0841C26.9534 9.66632 26.3868 9.43164 25.7961 9.43164H10.2036C9.6128 9.43164 9.04623 9.66632 8.62849 10.0841C8.21076 10.5018 7.97607 11.0684 7.97607 11.6591V15.0004H28.0236Z" stroke="#1E1E1E" stroke-width="1.75" stroke-linecap="round" stroke-linejoin="round"/>
<path d="M35.2727 8.598C35.4167 8.418 35.5607 8.316 35.7047 8.292C35.8487 8.268 35.9747 8.298 36.0827 8.382C36.1907 8.454 36.2507 8.568 36.2627 8.724C36.2867 8.868 36.2267 9.03 36.0827 9.21C35.8667 9.486 35.7167 9.762 35.6327 10.038C35.5487 10.314 35.5067 10.566 35.5067 10.794L35.4527 10.326C35.8127 10.326 36.1007 10.434 36.3167 10.65C36.5447 10.854 36.6587 11.13 36.6587 11.478C36.6587 11.802 36.5507 12.072 36.3347 12.288C36.1307 12.504 35.8607 12.612 35.5247 12.612C35.1647 12.612 34.8767 12.486 34.6607 12.234C34.4567 11.982 34.3547 11.634 34.3547 11.19C34.3547 10.926 34.3787 10.65 34.4267 10.362C34.4867 10.074 34.5827 9.78 34.7147 9.48C34.8587 9.18 35.0447 8.886 35.2727 8.598ZM38.4947 8.598C38.6387 8.418 38.7827 8.316 38.9267 8.292C39.0707 8.268 39.1967 8.298 39.3047 8.382C39.4127 8.454 39.4727 8.568 39.4847 8.724C39.5087 8.868 39.4487 9.03 39.3047 9.21C39.0887 9.486 38.9387 9.762 38.8547 10.038C38.7707 10.314 38.7287 10.566 38.7287 10.794L38.6747 10.326C39.0347 10.326 39.3227 10.434 39.5387 10.65C39.7667 10.854 39.8807 11.13 39.8807 11.478C39.8807 11.802 39.7727 12.072 39.5567 12.288C39.3527 12.504 39.0827 12.612 38.7467 12.612C38.3867 12.612 38.0987 12.486 37.8827 12.234C37.6787 11.982 37.5767 11.634 37.5767 11.19C37.5767 10.926 37.6007 10.65 37.6487 10.362C37.7087 10.074 37.8047 9.78 37.9367 9.48C38.0807 9.18 38.2667 8.886 38.4947 8.598ZM48.1811 21.162C46.8011 21.162 45.6371 20.904 44.6891 20.388C43.7411 19.86 43.0211 19.11 42.5291 18.138C42.0491 17.166 41.8091 16.008 41.8091 14.664C41.8091 13.656 41.9471 12.756 42.2231 11.964C42.5111 11.16 42.9191 10.476 43.4471 9.912C43.9871 9.336 44.6411 8.898 45.4091 8.598C46.1891 8.298 47.0711 8.148 48.0551 8.148C48.7751 8.148 49.4831 8.244 50.1791 8.436C50.8751 8.616 51.5111 8.916 52.0871 9.336C52.2551 9.456 52.3631 9.594 52.4111 9.75C52.4591 9.906 52.4591 10.068 52.4111 10.236C52.3751 10.392 52.2971 10.53 52.1771 10.65C52.0691 10.77 51.9311 10.842 51.7631 10.866C51.6071 10.89 51.4331 10.842 51.2411 10.722C50.7731 10.398 50.2811 10.164 49.7651 10.02C49.2491 9.864 48.6791 9.786 48.0551 9.786C47.1191 9.786 46.3271 9.978 45.6791 10.362C45.0431 10.746 44.5631 11.304 44.2391 12.036C43.9151 12.756 43.7531 13.632 43.7531 14.664C43.7531 16.26 44.1311 17.472 44.8871 18.3C45.6431 19.128 46.7651 19.542 48.2531 19.542C48.7931 19.542 49.3211 19.494 49.8371 19.398C50.3651 19.29 50.8691 19.14 51.3491 18.948L50.9711 19.884V15.69H48.6491C48.4091 15.69 48.2171 15.63 48.0731 15.51C47.9411 15.378 47.8751 15.198 47.8751 14.97C47.8751 14.742 47.9411 14.574 48.0731 14.466C48.2171 14.346 48.4091 14.286 48.6491 14.286H51.7631C52.0151 14.286 52.2071 14.352 52.3391 14.484C52.4711 14.616 52.5371 14.808 52.5371 15.06V19.596C52.5371 19.812 52.4951 19.998 52.4111 20.154C52.3391 20.298 52.2131 20.406 52.0331 20.478C51.5171 20.682 50.9111 20.85 50.2151 20.982C49.5191 21.102 48.8411 21.162 48.1811 21.162ZM59.3312 21.162C58.3712 21.162 57.5432 20.982 56.8472 20.622C56.1632 20.25 55.6292 19.728 55.2452 19.056C54.8732 18.372 54.6872 17.562 54.6872 16.626C54.6872 15.714 54.8732 14.916 55.2452 14.232C55.6172 13.548 56.1272 13.014 56.7752 12.63C57.4232 12.246 58.1612 12.054 58.9892 12.054C59.6012 12.054 60.1472 12.156 60.6272 12.36C61.1072 12.552 61.5152 12.84 61.8512 13.224C62.1992 13.596 62.4572 14.052 62.6252 14.592C62.8052 15.132 62.8952 15.738 62.8952 16.41C62.8952 16.614 62.8352 16.77 62.7152 16.878C62.5952 16.974 62.4152 17.022 62.1752 17.022H56.1272V15.906H61.6712L61.3652 16.158C61.3652 15.558 61.2752 15.048 61.0952 14.628C60.9272 14.208 60.6692 13.89 60.3212 13.674C59.9852 13.446 59.5652 13.332 59.0612 13.332C58.4972 13.332 58.0172 13.464 57.6212 13.728C57.2372 13.992 56.9432 14.358 56.7392 14.826C56.5352 15.294 56.4332 15.84 56.4332 16.464V16.572C56.4332 17.628 56.6792 18.426 57.1712 18.966C57.6752 19.494 58.4012 19.758 59.3492 19.758C59.7092 19.758 60.0872 19.71 60.4832 19.614C60.8912 19.518 61.2752 19.356 61.6352 19.128C61.8392 19.008 62.0192 18.954 62.1752 18.966C62.3432 18.978 62.4752 19.032 62.5712 19.128C62.6792 19.224 62.7452 19.344 62.7692 19.488C62.7932 19.632 62.7692 19.782 62.6972 19.938C62.6252 20.082 62.4992 20.214 62.3192 20.334C61.9112 20.61 61.4372 20.82 60.8972 20.964C60.3572 21.096 59.8352 21.162 59.3312 21.162ZM68.6035 21.162C67.8835 21.162 67.2775 21.036 66.7855 20.784C66.2935 20.532 65.9275 20.16 65.6875 19.668C65.4475 19.176 65.3275 18.576 65.3275 17.868V13.62H64.2475C64.0075 13.62 63.8215 13.56 63.6895 13.44C63.5575 13.308 63.4915 13.134 63.4915 12.918C63.4915 12.69 63.5575 12.516 63.6895 12.396C63.8215 12.276 64.0075 12.216 64.2475 12.216H65.3275V10.362C65.3275 10.062 65.4055 9.834 65.5615 9.678C65.7295 9.522 65.9575 9.444 66.2455 9.444C66.5335 9.444 66.7555 9.522 66.9115 9.678C67.0675 9.834 67.1455 10.062 67.1455 10.362V12.216H69.2515C69.4915 12.216 69.6775 12.276 69.8095 12.396C69.9415 12.516 70.0075 12.69 70.0075 12.918C70.0075 13.134 69.9415 13.308 69.8095 13.44C69.6775 13.56 69.4915 13.62 69.2515 13.62H67.1455V17.724C67.1455 18.36 67.2775 18.84 67.5415 19.164C67.8175 19.488 68.2615 19.65 68.8735 19.65C69.0895 19.65 69.2755 19.632 69.4315 19.596C69.5995 19.548 69.7375 19.518 69.8455 19.506C69.9775 19.506 70.0855 19.554 70.1695 19.65C70.2535 19.734 70.2955 19.902 70.2955 20.154C70.2955 20.334 70.2595 20.502 70.1875 20.658C70.1275 20.814 70.0135 20.916 69.8455 20.964C69.7015 21.012 69.5035 21.054 69.2515 21.09C69.0115 21.138 68.7955 21.162 68.6035 21.162Z" fill="#1E1E1E"/>
<path d="M80.4819 23.196C80.2659 23.196 80.0859 23.124 79.9419 22.98C79.8099 22.836 79.7439 22.662 79.7439 22.458V20.748L80.1039 21.09C79.2639 21.078 78.5079 20.97 77.8359 20.766C77.1639 20.55 76.5999 20.292 76.1439 19.992C75.9759 19.884 75.8559 19.746 75.7839 19.578C75.7119 19.41 75.6879 19.242 75.7119 19.074C75.7479 18.906 75.8199 18.762 75.9279 18.642C76.0359 18.522 76.1679 18.45 76.3239 18.426C76.4799 18.402 76.6599 18.45 76.8639 18.57C77.2359 18.81 77.6979 19.026 78.2499 19.218C78.8139 19.41 79.4979 19.506 80.3019 19.506C80.9499 19.506 81.4779 19.422 81.8859 19.254C82.3059 19.086 82.6119 18.858 82.8039 18.57C83.0079 18.282 83.1099 17.946 83.1099 17.562C83.1099 17.25 83.0379 16.98 82.8939 16.752C82.7619 16.524 82.5399 16.332 82.2279 16.176C81.9159 16.008 81.5019 15.87 80.9859 15.762L79.1319 15.366C78.0399 15.126 77.2239 14.73 76.6839 14.178C76.1559 13.626 75.8919 12.9 75.8919 12C75.8919 11.292 76.0599 10.662 76.3959 10.11C76.7439 9.558 77.2239 9.12 77.8359 8.796C78.4599 8.472 79.1859 8.286 80.0139 8.238L79.7439 8.49V6.852C79.7439 6.648 79.8099 6.474 79.9419 6.33C80.0859 6.186 80.2659 6.114 80.4819 6.114C80.6859 6.114 80.8599 6.186 81.0039 6.33C81.1479 6.474 81.2199 6.648 81.2199 6.852V8.49L80.9139 8.238C81.4659 8.25 82.0539 8.364 82.6779 8.58C83.3019 8.784 83.8359 9.078 84.2799 9.462C84.4239 9.582 84.5139 9.72 84.5499 9.876C84.5979 10.032 84.5979 10.182 84.5499 10.326C84.5139 10.47 84.4419 10.59 84.3339 10.686C84.2259 10.782 84.0879 10.836 83.9199 10.848C83.7519 10.86 83.5719 10.8 83.3799 10.668C82.9959 10.404 82.5699 10.194 82.1019 10.038C81.6459 9.882 81.0999 9.804 80.4639 9.804C79.6239 9.804 78.9579 10.002 78.4659 10.398C77.9739 10.794 77.7279 11.31 77.7279 11.946C77.7279 12.426 77.8779 12.816 78.1779 13.116C78.4779 13.404 78.9819 13.626 79.6899 13.782L81.5799 14.178C82.7319 14.43 83.5839 14.82 84.1359 15.348C84.6879 15.876 84.9639 16.578 84.9639 17.454C84.9639 18.138 84.7899 18.744 84.4419 19.272C84.0939 19.788 83.6139 20.202 83.0019 20.514C82.4019 20.814 81.7059 21 80.9139 21.072L81.2199 20.73V22.458C81.2199 22.662 81.1479 22.836 81.0039 22.98C80.8719 23.124 80.6979 23.196 80.4819 23.196ZM91.2748 23.196C91.0588 23.196 90.8788 23.124 90.7348 22.98C90.6028 22.836 90.5368 22.662 90.5368 22.458V20.748L90.8968 21.09C90.0568 21.078 89.3008 20.97 88.6288 20.766C87.9568 20.55 87.3928 20.292 86.9368 19.992C86.7688 19.884 86.6488 19.746 86.5768 19.578C86.5048 19.41 86.4808 19.242 86.5048 19.074C86.5408 18.906 86.6128 18.762 86.7208 18.642C86.8288 18.522 86.9608 18.45 87.1168 18.426C87.2728 18.402 87.4528 18.45 87.6568 18.57C88.0288 18.81 88.4908 19.026 89.0428 19.218C89.6068 19.41 90.2908 19.506 91.0948 19.506C91.7428 19.506 92.2708 19.422 92.6788 19.254C93.0988 19.086 93.4048 18.858 93.5968 18.57C93.8008 18.282 93.9028 17.946 93.9028 17.562C93.9028 17.25 93.8308 16.98 93.6868 16.752C93.5548 16.524 93.3328 16.332 93.0208 16.176C92.7088 16.008 92.2948 15.87 91.7788 15.762L89.9248 15.366C88.8328 15.126 88.0168 14.73 87.4768 14.178C86.9488 13.626 86.6848 12.9 86.6848 12C86.6848 11.292 86.8528 10.662 87.1888 10.11C87.5368 9.558 88.0168 9.12 88.6288 8.796C89.2528 8.472 89.9788 8.286 90.8068 8.238L90.5368 8.49V6.852C90.5368 6.648 90.6028 6.474 90.7348 6.33C90.8788 6.186 91.0588 6.114 91.2748 6.114C91.4788 6.114 91.6528 6.186 91.7968 6.33C91.9408 6.474 92.0128 6.648 92.0128 6.852V8.49L91.7068 8.238C92.2588 8.25 92.8468 8.364 93.4708 8.58C94.0948 8.784 94.6288 9.078 95.0728 9.462C95.2168 9.582 95.3068 9.72 95.3428 9.876C95.3908 10.032 95.3908 10.182 95.3428 10.326C95.3068 10.47 95.2348 10.59 95.1268 10.686C95.0188 10.782 94.8808 10.836 94.7128 10.848C94.5448 10.86 94.3648 10.8 94.1728 10.668C93.7888 10.404 93.3628 10.194 92.8948 10.038C92.4388 9.882 91.8928 9.804 91.2568 9.804C90.4168 9.804 89.7508 10.002 89.2588 10.398C88.7668 10.794 88.5208 11.31 88.5208 11.946C88.5208 12.426 88.6708 12.816 88.9708 13.116C89.2708 13.404 89.7748 13.626 90.4828 13.782L92.3728 14.178C93.5248 14.43 94.3768 14.82 94.9288 15.348C95.4808 15.876 95.7568 16.578 95.7568 17.454C95.7568 18.138 95.5828 18.744 95.2348 19.272C94.8868 19.788 94.4068 20.202 93.7948 20.514C93.1948 20.814 92.4988 21 91.7068 21.072L92.0128 20.73V22.458C92.0128 22.662 91.9408 22.836 91.7968 22.98C91.6648 23.124 91.4908 23.196 91.2748 23.196ZM102.068 23.196C101.852 23.196 101.672 23.124 101.528 22.98C101.396 22.836 101.33 22.662 101.33 22.458V20.748L101.69 21.09C100.85 21.078 100.094 20.97 99.4218 20.766C98.7498 20.55 98.1858 20.292 97.7298 19.992C97.5618 19.884 97.4418 19.746 97.3698 19.578C97.2978 19.41 97.2738 19.242 97.2978 19.074C97.3338 18.906 97.4058 18.762 97.5138 18.642C97.6218 18.522 97.7538 18.45 97.9098 18.426C98.0658 18.402 98.2458 18.45 98.4498 18.57C98.8218 18.81 99.2838 19.026 99.8358 19.218C100.4 19.41 101.084 19.506 101.888 19.506C102.536 19.506 103.064 19.422 103.472 19.254C103.892 19.086 104.198 18.858 104.39 18.57C104.594 18.282 104.696 17.946 104.696 17.562C104.696 17.25 104.624 16.98 104.48 16.752C104.348 16.524 104.126 16.332 103.814 16.176C103.502 16.008 103.088 15.87 102.572 15.762L100.718 15.366C99.6258 15.126 98.8098 14.73 98.2698 14.178C97.7418 13.626 97.4778 12.9 97.4778 12C97.4778 11.292 97.6458 10.662 97.9818 10.11C98.3298 9.558 98.8098 9.12 99.4218 8.796C100.046 8.472 100.772 8.286 101.6 8.238L101.33 8.49V6.852C101.33 6.648 101.396 6.474 101.528 6.33C101.672 6.186 101.852 6.114 102.068 6.114C102.272 6.114 102.446 6.186 102.59 6.33C102.734 6.474 102.806 6.648 102.806 6.852V8.49L102.5 8.238C103.052 8.25 103.64 8.364 104.264 8.58C104.888 8.784 105.422 9.078 105.866 9.462C106.01 9.582 106.1 9.72 106.136 9.876C106.184 10.032 106.184 10.182 106.136 10.326C106.1 10.47 106.028 10.59 105.92 10.686C105.812 10.782 105.674 10.836 105.506 10.848C105.338 10.86 105.158 10.8 104.966 10.668C104.582 10.404 104.156 10.194 103.688 10.038C103.232 9.882 102.686 9.804 102.05 9.804C101.21 9.804 100.544 10.002 100.052 10.398C99.5598 10.794 99.3138 11.31 99.3138 11.946C99.3138 12.426 99.4638 12.816 99.7638 13.116C100.064 13.404 100.568 13.626 101.276 13.782L103.166 14.178C104.318 14.43 105.17 14.82 105.722 15.348C106.274 15.876 106.55 16.578 106.55 17.454C106.55 18.138 106.376 18.744 106.028 19.272C105.68 19.788 105.2 20.202 104.588 20.514C103.988 20.814 103.292 21 102.5 21.072L102.806 20.73V22.458C102.806 22.662 102.734 22.836 102.59 22.98C102.458 23.124 102.284 23.196 102.068 23.196ZM109.639 12.252C109.507 12.42 109.363 12.516 109.207 12.54C109.063 12.564 108.937 12.54 108.829 12.468C108.721 12.384 108.661 12.27 108.649 12.126C108.637 11.97 108.703 11.802 108.847 11.622C109.063 11.346 109.207 11.07 109.279 10.794C109.363 10.518 109.405 10.272 109.405 10.056L109.477 10.524C109.117 10.524 108.823 10.422 108.595 10.218C108.379 10.002 108.271 9.72 108.271 9.372C108.271 9.036 108.373 8.766 108.577 8.562C108.781 8.346 109.057 8.238 109.405 8.238C109.765 8.238 110.047 8.358 110.251 8.598C110.467 8.838 110.575 9.186 110.575 9.642C110.575 9.906 110.545 10.182 110.485 10.47C110.437 10.758 110.347 11.052 110.215 11.352C110.083 11.652 109.891 11.952 109.639 12.252ZM112.861 12.252C112.729 12.42 112.585 12.516 112.429 12.54C112.285 12.564 112.159 12.54 112.051 12.468C111.943 12.384 111.883 12.27 111.871 12.126C111.859 11.97 111.925 11.802 112.069 11.622C112.285 11.346 112.429 11.07 112.501 10.794C112.585 10.518 112.627 10.272 112.627 10.056L112.699 10.524C112.339 10.524 112.045 10.422 111.817 10.218C111.601 10.002 111.493 9.72 111.493 9.372C111.493 9.036 111.595 8.766 111.799 8.562C112.003 8.346 112.279 8.238 112.627 8.238C112.987 8.238 113.269 8.358 113.473 8.598C113.689 8.838 113.797 9.186 113.797 9.642C113.797 9.906 113.767 10.182 113.707 10.47C113.659 10.758 113.569 11.052 113.437 11.352C113.305 11.652 113.113 11.952 112.861 12.252Z" fill="#FFCC4D"/>
</svg>
