<svg width="335" height="114" viewBox="0 0 335 114" fill="none" xmlns="http://www.w3.org/2000/svg">
<rect x="4.42773" y="57.5189" width="19.0612" height="40.0314" rx="0.714794" fill="#14BA9C"/>
<path d="M8.83825 111.336C8.50225 111.336 8.21159 111.272 7.96625 111.144C7.72625 111.016 7.53959 110.832 7.40625 110.592C7.27825 110.352 7.21425 110.067 7.21425 109.736H7.89425C7.89425 109.923 7.92359 110.094 7.98225 110.248C8.04625 110.398 8.14492 110.518 8.27825 110.608C8.41692 110.694 8.60092 110.736 8.83025 110.736C9.05425 110.736 9.23025 110.694 9.35825 110.608C9.49159 110.523 9.58492 110.408 9.63825 110.264C9.69692 110.115 9.72625 109.947 9.72625 109.76V105.64H10.3983V109.76C10.3983 110.262 10.2596 110.651 9.98225 110.928C9.71025 111.2 9.32892 111.336 8.83825 111.336ZM12.8929 111.336C12.5729 111.336 12.3063 111.278 12.0929 111.16C11.8796 111.038 11.7196 110.878 11.6129 110.68C11.5063 110.478 11.4529 110.262 11.4529 110.032C11.4529 109.755 11.5223 109.52 11.6609 109.328C11.8049 109.131 12.0049 108.982 12.2609 108.88C12.5169 108.779 12.8156 108.728 13.1569 108.728H14.2049C14.2049 108.456 14.1729 108.23 14.1089 108.048C14.0449 107.867 13.9409 107.731 13.7969 107.64C13.6529 107.55 13.4609 107.504 13.2209 107.504C12.9809 107.504 12.7756 107.566 12.6049 107.688C12.4343 107.806 12.3276 107.982 12.2849 108.216H11.5969C11.6289 107.939 11.7223 107.707 11.8769 107.52C12.0316 107.328 12.2263 107.184 12.4609 107.088C12.7009 106.987 12.9543 106.936 13.2209 106.936C13.5996 106.936 13.9116 107.006 14.1569 107.144C14.4023 107.278 14.5836 107.467 14.7009 107.712C14.8183 107.952 14.8769 108.238 14.8769 108.568V111.24H14.2769L14.2369 110.52C14.1836 110.632 14.1143 110.739 14.0289 110.84C13.9489 110.936 13.8529 111.022 13.7409 111.096C13.6289 111.171 13.5009 111.23 13.3569 111.272C13.2183 111.315 13.0636 111.336 12.8929 111.336ZM12.9889 110.768C13.1649 110.768 13.3276 110.728 13.4769 110.648C13.6263 110.568 13.7543 110.462 13.8609 110.328C13.9729 110.19 14.0583 110.035 14.1169 109.864C14.1756 109.694 14.2049 109.515 14.2049 109.328V109.248H13.2129C12.9623 109.248 12.7569 109.28 12.5969 109.344C12.4423 109.408 12.3303 109.499 12.2609 109.616C12.1916 109.728 12.1569 109.856 12.1569 110C12.1569 110.155 12.1889 110.291 12.2529 110.408C12.3169 110.52 12.4103 110.608 12.5329 110.672C12.6609 110.736 12.8129 110.768 12.9889 110.768ZM15.9872 111.24V107.032H16.5952L16.6272 107.696C16.7499 107.456 16.9259 107.27 17.1552 107.136C17.3899 107.003 17.6592 106.936 17.9632 106.936C18.2725 106.936 18.5419 106.995 18.7712 107.112C19.0005 107.23 19.1792 107.408 19.3072 107.648C19.4352 107.888 19.4992 108.192 19.4992 108.56V111.24H18.8272V108.632C18.8272 108.259 18.7339 107.979 18.5472 107.792C18.3659 107.606 18.1205 107.512 17.8112 107.512C17.6032 107.512 17.4112 107.563 17.2352 107.664C17.0592 107.76 16.9179 107.904 16.8112 108.096C16.7099 108.288 16.6592 108.523 16.6592 108.8V111.24H15.9872Z" fill="#524B6B"/>
<rect x="32.3445" y="46.9844" width="19.0612" height="50.566" rx="0.714794" fill="#14BA9C"/>
<path d="M35.491 111.24V105.64H38.899V106.192H36.163V108.16H38.491V108.704H36.163V111.24H35.491ZM41.3276 111.336C40.9543 111.336 40.6236 111.246 40.3356 111.064C40.0476 110.883 39.821 110.627 39.6556 110.296C39.4956 109.966 39.4156 109.579 39.4156 109.136C39.4156 108.694 39.4956 108.307 39.6556 107.976C39.821 107.646 40.0476 107.39 40.3356 107.208C40.629 107.027 40.965 106.936 41.3436 106.936C41.749 106.936 42.0876 107.027 42.3596 107.208C42.6316 107.39 42.837 107.632 42.9756 107.936C43.1143 108.24 43.1836 108.574 43.1836 108.936C43.1836 108.99 43.1836 109.043 43.1836 109.096C43.1836 109.15 43.181 109.214 43.1756 109.288H39.9196V108.768H42.5276C42.517 108.358 42.397 108.046 42.1676 107.832C41.9436 107.614 41.6636 107.504 41.3276 107.504C41.1036 107.504 40.8956 107.56 40.7036 107.672C40.517 107.779 40.365 107.939 40.2476 108.152C40.1303 108.366 40.0716 108.632 40.0716 108.952V109.176C40.0716 109.528 40.1303 109.824 40.2476 110.064C40.365 110.299 40.517 110.475 40.7036 110.592C40.8956 110.71 41.1036 110.768 41.3276 110.768C41.6263 110.768 41.861 110.712 42.0316 110.6C42.2023 110.483 42.3276 110.318 42.4076 110.104H43.0716C43.0076 110.339 42.8956 110.55 42.7356 110.736C42.581 110.923 42.3836 111.07 42.1436 111.176C41.909 111.283 41.637 111.336 41.3276 111.336ZM46.2109 111.336C45.9549 111.336 45.7335 111.299 45.5469 111.224C45.3655 111.144 45.2109 111.046 45.0829 110.928C44.9602 110.811 44.8589 110.696 44.7789 110.584L44.7229 111.24H44.1149V105.48H44.7869V107.696C44.9149 107.446 45.1042 107.256 45.3549 107.128C45.6055 107 45.8855 106.936 46.1949 106.936C46.5789 106.936 46.9149 107.03 47.2029 107.216C47.4909 107.403 47.7149 107.662 47.8749 107.992C48.0349 108.318 48.1149 108.694 48.1149 109.12C48.1149 109.542 48.0349 109.92 47.8749 110.256C47.7149 110.592 47.4909 110.856 47.2029 111.048C46.9202 111.24 46.5895 111.336 46.2109 111.336ZM46.1229 110.752C46.3735 110.752 46.5949 110.688 46.7869 110.56C46.9842 110.427 47.1389 110.24 47.2509 110C47.3682 109.755 47.4269 109.467 47.4269 109.136C47.4269 108.806 47.3682 108.52 47.2509 108.28C47.1389 108.035 46.9842 107.848 46.7869 107.72C46.5949 107.587 46.3735 107.52 46.1229 107.52C45.8562 107.52 45.6242 107.587 45.4269 107.72C45.2295 107.848 45.0775 108.035 44.9709 108.28C44.8642 108.52 44.8109 108.806 44.8109 109.136C44.8109 109.467 44.8642 109.755 44.9709 110C45.0775 110.24 45.2295 110.427 45.4269 110.56C45.6242 110.688 45.8562 110.752 46.1229 110.752Z" fill="#524B6B"/>
<rect x="60.3105" y="59.6259" width="18.9623" height="37.9245" rx="0.714794" fill="#14BA9C"/>
<path d="M62.9075 111.24V105.64H63.6915L65.5955 109.584L67.4835 105.64H68.2755V111.24H67.6035V106.848L65.8435 110.504H65.3395L63.5795 106.88V111.24H62.9075ZM70.7731 111.336C70.4531 111.336 70.1864 111.278 69.9731 111.16C69.7597 111.038 69.5997 110.878 69.4931 110.68C69.3864 110.478 69.3331 110.262 69.3331 110.032C69.3331 109.755 69.4024 109.52 69.5411 109.328C69.6851 109.131 69.8851 108.982 70.1411 108.88C70.3971 108.779 70.6957 108.728 71.0371 108.728H72.0851C72.0851 108.456 72.0531 108.23 71.9891 108.048C71.9251 107.867 71.8211 107.731 71.6771 107.64C71.5331 107.55 71.3411 107.504 71.1011 107.504C70.8611 107.504 70.6557 107.566 70.4851 107.688C70.3144 107.806 70.2077 107.982 70.1651 108.216H69.4771C69.5091 107.939 69.6024 107.707 69.7571 107.52C69.9117 107.328 70.1064 107.184 70.3411 107.088C70.5811 106.987 70.8344 106.936 71.1011 106.936C71.4797 106.936 71.7917 107.006 72.0371 107.144C72.2824 107.278 72.4637 107.467 72.5811 107.712C72.6984 107.952 72.7571 108.238 72.7571 108.568V111.24H72.1571L72.1171 110.52C72.0637 110.632 71.9944 110.739 71.9091 110.84C71.8291 110.936 71.7331 111.022 71.6211 111.096C71.5091 111.171 71.3811 111.23 71.2371 111.272C71.0984 111.315 70.9437 111.336 70.7731 111.336ZM70.8691 110.768C71.0451 110.768 71.2077 110.728 71.3571 110.648C71.5064 110.568 71.6344 110.462 71.7411 110.328C71.8531 110.19 71.9384 110.035 71.9971 109.864C72.0557 109.694 72.0851 109.515 72.0851 109.328V109.248H71.0931C70.8424 109.248 70.6371 109.28 70.4771 109.344C70.3224 109.408 70.2104 109.499 70.1411 109.616C70.0717 109.728 70.0371 109.856 70.0371 110C70.0371 110.155 70.0691 110.291 70.1331 110.408C70.1971 110.52 70.2904 110.608 70.4131 110.672C70.5411 110.736 70.6931 110.768 70.8691 110.768ZM73.8673 111.24V107.032H74.4753L74.5233 107.8C74.6193 107.608 74.7446 107.448 74.8993 107.32C75.054 107.192 75.2406 107.096 75.4593 107.032C75.6833 106.968 75.934 106.936 76.2113 106.936V107.64H75.7953C75.6353 107.64 75.4806 107.662 75.3313 107.704C75.182 107.747 75.046 107.816 74.9233 107.912C74.806 108.008 74.7126 108.139 74.6433 108.304C74.574 108.47 74.5393 108.678 74.5393 108.928V111.24H73.8673Z" fill="#524B6B"/>
<rect x="88.1777" y="49.0913" width="19.0612" height="48.4591" rx="0.714794" fill="#14BA9C"/>
<path d="M90.9563 111.24L93.0203 105.64H93.7323L95.7883 111.24H95.0683L93.3723 106.48L91.6603 111.24H90.9563ZM91.9003 109.8L92.0923 109.256H94.6283L94.8203 109.8H91.9003ZM96.5966 113V107.032H97.2046L97.2606 107.688C97.3459 107.55 97.4526 107.424 97.5806 107.312C97.7139 107.2 97.8712 107.11 98.0526 107.04C98.2392 106.971 98.4526 106.936 98.6926 106.936C99.0712 106.936 99.4019 107.032 99.6846 107.224C99.9726 107.416 100.197 107.678 100.357 108.008C100.517 108.339 100.597 108.718 100.597 109.144C100.597 109.566 100.517 109.942 100.357 110.272C100.197 110.603 99.9726 110.864 99.6846 111.056C99.3966 111.243 99.0632 111.336 98.6846 111.336C98.3592 111.336 98.0739 111.27 97.8286 111.136C97.5832 111.003 97.3966 110.816 97.2686 110.576V113H96.5966ZM98.6046 110.752C98.8552 110.752 99.0766 110.688 99.2686 110.56C99.4659 110.427 99.6206 110.24 99.7326 110C99.8499 109.755 99.9086 109.467 99.9086 109.136C99.9086 108.806 99.8499 108.52 99.7326 108.28C99.6206 108.035 99.4659 107.848 99.2686 107.72C99.0766 107.587 98.8552 107.52 98.6046 107.52C98.3379 107.52 98.1059 107.587 97.9086 107.72C97.7112 107.848 97.5592 108.035 97.4526 108.28C97.3459 108.52 97.2926 108.806 97.2926 109.136C97.2926 109.467 97.3459 109.755 97.4526 110C97.5592 110.24 97.7112 110.427 97.9086 110.56C98.1059 110.688 98.3379 110.752 98.6046 110.752ZM101.573 111.24V107.032H102.181L102.229 107.8C102.325 107.608 102.45 107.448 102.605 107.32C102.76 107.192 102.946 107.096 103.165 107.032C103.389 106.968 103.64 106.936 103.917 106.936V107.64H103.501C103.341 107.64 103.186 107.662 103.037 107.704C102.888 107.747 102.752 107.816 102.629 107.912C102.512 108.008 102.418 108.139 102.349 108.304C102.28 108.47 102.245 108.678 102.245 108.928V111.24H101.573Z" fill="#524B6B"/>
<rect x="116.094" y="25.9152" width="19.0612" height="71.6352" rx="0.714794" fill="#14BA9C"/>
<path d="M118.241 111.24V105.64H119.025L120.929 109.584L122.817 105.64H123.609V111.24H122.937V106.848L121.177 110.504H120.673L118.913 106.88V111.24H118.241ZM126.107 111.336C125.787 111.336 125.52 111.278 125.307 111.16C125.093 111.038 124.933 110.878 124.827 110.68C124.72 110.478 124.667 110.262 124.667 110.032C124.667 109.755 124.736 109.52 124.875 109.328C125.019 109.131 125.219 108.982 125.475 108.88C125.731 108.779 126.029 108.728 126.371 108.728H127.419C127.419 108.456 127.387 108.23 127.323 108.048C127.259 107.867 127.155 107.731 127.011 107.64C126.867 107.55 126.675 107.504 126.435 107.504C126.195 107.504 125.989 107.566 125.819 107.688C125.648 107.806 125.541 107.982 125.499 108.216H124.811C124.843 107.939 124.936 107.707 125.091 107.52C125.245 107.328 125.44 107.184 125.675 107.088C125.915 106.987 126.168 106.936 126.435 106.936C126.813 106.936 127.125 107.006 127.371 107.144C127.616 107.278 127.797 107.467 127.915 107.712C128.032 107.952 128.091 108.238 128.091 108.568V111.24H127.491L127.451 110.52C127.397 110.632 127.328 110.739 127.243 110.84C127.163 110.936 127.067 111.022 126.955 111.096C126.843 111.171 126.715 111.23 126.571 111.272C126.432 111.315 126.277 111.336 126.107 111.336ZM126.203 110.768C126.379 110.768 126.541 110.728 126.691 110.648C126.84 110.568 126.968 110.462 127.075 110.328C127.187 110.19 127.272 110.035 127.331 109.864C127.389 109.694 127.419 109.515 127.419 109.328V109.248H126.427C126.176 109.248 125.971 109.28 125.811 109.344C125.656 109.408 125.544 109.499 125.475 109.616C125.405 109.728 125.371 109.856 125.371 110C125.371 110.155 125.403 110.291 125.467 110.408C125.531 110.52 125.624 110.608 125.747 110.672C125.875 110.736 126.027 110.768 126.203 110.768ZM129.556 113L130.508 110.792H130.276L128.7 107.032H129.428L130.732 110.272L132.092 107.032H132.788L130.252 113H129.556Z" fill="#524B6B"/>
<rect x="144.061" y="36.45" width="18.9623" height="61.1006" rx="0.714794" fill="#14BA9C"/>
<path d="M148.422 111.336C148.086 111.336 147.795 111.272 147.55 111.144C147.31 111.016 147.123 110.832 146.99 110.592C146.862 110.352 146.798 110.067 146.798 109.736H147.478C147.478 109.923 147.507 110.094 147.566 110.248C147.63 110.398 147.728 110.518 147.862 110.608C148 110.694 148.184 110.736 148.414 110.736C148.638 110.736 148.814 110.694 148.942 110.608C149.075 110.523 149.168 110.408 149.222 110.264C149.28 110.115 149.31 109.947 149.31 109.76V105.64H149.982V109.76C149.982 110.262 149.843 110.651 149.566 110.928C149.294 111.2 148.912 111.336 148.422 111.336ZM152.676 111.336C152.367 111.336 152.098 111.278 151.868 111.16C151.639 111.043 151.46 110.864 151.332 110.624C151.204 110.379 151.14 110.075 151.14 109.712V107.032H151.812V109.64C151.812 110.014 151.903 110.294 152.084 110.48C152.271 110.667 152.519 110.76 152.828 110.76C153.042 110.76 153.234 110.712 153.404 110.616C153.575 110.515 153.711 110.368 153.812 110.176C153.919 109.984 153.972 109.75 153.972 109.472V107.032H154.644V111.24H154.036L153.996 110.568C153.884 110.814 153.711 111.003 153.476 111.136C153.247 111.27 152.98 111.336 152.676 111.336ZM155.781 111.24V107.032H156.389L156.421 107.696C156.544 107.456 156.72 107.27 156.949 107.136C157.184 107.003 157.453 106.936 157.757 106.936C158.067 106.936 158.336 106.995 158.565 107.112C158.795 107.23 158.973 107.408 159.101 107.648C159.229 107.888 159.293 108.192 159.293 108.56V111.24H158.621V108.632C158.621 108.259 158.528 107.979 158.341 107.792C158.16 107.606 157.915 107.512 157.605 107.512C157.397 107.512 157.205 107.563 157.029 107.664C156.853 107.76 156.712 107.904 156.605 108.096C156.504 108.288 156.453 108.523 156.453 108.8V111.24H155.781Z" fill="#524B6B"/>
<rect x="171.928" y="51.1982" width="19.0612" height="46.3522" rx="0.714794" fill="#14BA9C"/>
<path d="M177.838 111.336C177.502 111.336 177.212 111.272 176.966 111.144C176.726 111.016 176.54 110.832 176.406 110.592C176.278 110.352 176.214 110.067 176.214 109.736H176.894C176.894 109.923 176.924 110.094 176.982 110.248C177.046 110.398 177.145 110.518 177.278 110.608C177.417 110.694 177.601 110.736 177.83 110.736C178.054 110.736 178.23 110.694 178.358 110.608C178.492 110.523 178.585 110.408 178.638 110.264C178.697 110.115 178.726 109.947 178.726 109.76V105.64H179.398V109.76C179.398 110.262 179.26 110.651 178.982 110.928C178.71 111.2 178.329 111.336 177.838 111.336ZM182.093 111.336C181.784 111.336 181.514 111.278 181.285 111.16C181.056 111.043 180.877 110.864 180.749 110.624C180.621 110.379 180.557 110.075 180.557 109.712V107.032H181.229V109.64C181.229 110.014 181.32 110.294 181.501 110.48C181.688 110.667 181.936 110.76 182.245 110.76C182.458 110.76 182.65 110.712 182.821 110.616C182.992 110.515 183.128 110.368 183.229 110.176C183.336 109.984 183.389 109.75 183.389 109.472V107.032H184.061V111.24H183.453L183.413 110.568C183.301 110.814 183.128 111.003 182.893 111.136C182.664 111.27 182.397 111.336 182.093 111.336ZM185.198 111.24V105.48H185.87V111.24H185.198Z" fill="#524B6B"/>
<rect x="199.844" y="23.8082" width="19.0612" height="73.7421" rx="0.714794" fill="#14BA9C"/>
<path d="M202.123 111.24L204.187 105.64H204.899L206.955 111.24H206.235L204.539 106.48L202.827 111.24H202.123ZM203.067 109.8L203.259 109.256H205.795L205.987 109.8H203.067ZM209.189 111.336C208.88 111.336 208.611 111.278 208.381 111.16C208.152 111.043 207.973 110.864 207.845 110.624C207.717 110.379 207.653 110.075 207.653 109.712V107.032H208.325V109.64C208.325 110.014 208.416 110.294 208.597 110.48C208.784 110.667 209.032 110.76 209.341 110.76C209.555 110.76 209.747 110.712 209.917 110.616C210.088 110.515 210.224 110.368 210.325 110.176C210.432 109.984 210.485 109.75 210.485 109.472V107.032H211.157V111.24H210.549L210.509 110.568C210.397 110.814 210.224 111.003 209.989 111.136C209.76 111.27 209.493 111.336 209.189 111.336ZM213.943 113.096C213.564 113.096 213.231 113.048 212.943 112.952C212.66 112.862 212.439 112.72 212.279 112.528C212.124 112.336 212.047 112.099 212.047 111.816C212.047 111.683 212.071 111.544 212.119 111.4C212.172 111.256 212.26 111.118 212.383 110.984C212.511 110.851 212.689 110.731 212.919 110.624L213.431 110.896C213.127 111.014 212.929 111.15 212.839 111.304C212.748 111.459 212.703 111.608 212.703 111.752C212.703 111.928 212.753 112.075 212.855 112.192C212.961 112.31 213.108 112.398 213.295 112.456C213.481 112.515 213.697 112.544 213.943 112.544C214.183 112.544 214.388 112.512 214.559 112.448C214.735 112.39 214.868 112.302 214.959 112.184C215.055 112.072 215.103 111.939 215.103 111.784C215.103 111.56 215.031 111.384 214.887 111.256C214.743 111.134 214.463 111.062 214.047 111.04C213.721 111.019 213.449 110.99 213.231 110.952C213.012 110.915 212.831 110.872 212.687 110.824C212.548 110.771 212.431 110.712 212.335 110.648C212.244 110.584 212.161 110.518 212.087 110.448V110.264L212.879 109.504L213.511 109.712L212.647 110.424L212.751 110.12C212.809 110.163 212.865 110.203 212.919 110.24C212.972 110.278 213.044 110.312 213.135 110.344C213.231 110.371 213.361 110.398 213.527 110.424C213.697 110.451 213.921 110.475 214.199 110.496C214.583 110.523 214.889 110.587 215.119 110.688C215.348 110.79 215.513 110.931 215.615 111.112C215.716 111.288 215.767 111.504 215.767 111.76C215.767 111.984 215.703 112.198 215.575 112.4C215.452 112.603 215.255 112.768 214.983 112.896C214.716 113.03 214.369 113.096 213.943 113.096ZM213.935 109.928C213.593 109.928 213.303 109.864 213.063 109.736C212.828 109.603 212.649 109.424 212.527 109.2C212.404 108.971 212.343 108.715 212.343 108.432C212.343 108.15 212.404 107.896 212.527 107.672C212.655 107.448 212.836 107.27 213.071 107.136C213.311 107.003 213.599 106.936 213.935 106.936C214.281 106.936 214.572 107.003 214.807 107.136C215.041 107.27 215.22 107.448 215.343 107.672C215.465 107.896 215.527 108.15 215.527 108.432C215.527 108.715 215.465 108.971 215.343 109.2C215.22 109.424 215.041 109.603 214.807 109.736C214.572 109.864 214.281 109.928 213.935 109.928ZM213.935 109.376C214.233 109.376 214.465 109.299 214.631 109.144C214.796 108.984 214.879 108.747 214.879 108.432C214.879 108.118 214.796 107.883 214.631 107.728C214.465 107.574 214.233 107.496 213.935 107.496C213.652 107.496 213.42 107.574 213.239 107.728C213.063 107.883 212.975 108.118 212.975 108.432C212.975 108.747 213.06 108.984 213.231 109.144C213.407 109.299 213.641 109.376 213.935 109.376ZM214.639 107.6L214.439 107.032H216.087V107.536L214.639 107.6Z" fill="#524B6B"/>
<rect x="227.811" y="36.4498" width="18.9623" height="61.1006" rx="0.714794" fill="#14BA9C"/>
<path d="M232.2 111.336C231.789 111.336 231.432 111.262 231.128 111.112C230.824 110.963 230.589 110.755 230.424 110.488C230.258 110.222 230.176 109.912 230.176 109.56H230.88C230.88 109.779 230.93 109.982 231.032 110.168C231.133 110.35 231.28 110.496 231.472 110.608C231.669 110.715 231.912 110.768 232.2 110.768C232.45 110.768 232.664 110.728 232.84 110.648C233.021 110.563 233.157 110.448 233.248 110.304C233.344 110.16 233.392 109.998 233.392 109.816C233.392 109.614 233.346 109.446 233.256 109.312C233.17 109.174 233.05 109.062 232.896 108.976C232.741 108.886 232.562 108.806 232.36 108.736C232.157 108.667 231.938 108.595 231.704 108.52C231.234 108.371 230.893 108.184 230.68 107.96C230.472 107.731 230.368 107.438 230.368 107.08C230.368 106.776 230.437 106.51 230.576 106.28C230.72 106.051 230.922 105.872 231.184 105.744C231.45 105.611 231.765 105.544 232.128 105.544C232.485 105.544 232.794 105.611 233.056 105.744C233.322 105.878 233.53 106.062 233.68 106.296C233.829 106.526 233.904 106.792 233.904 107.096H233.2C233.2 106.942 233.16 106.79 233.08 106.64C233 106.491 232.877 106.368 232.712 106.272C232.552 106.171 232.349 106.12 232.104 106.12C231.901 106.115 231.72 106.15 231.56 106.224C231.405 106.294 231.282 106.395 231.192 106.528C231.106 106.662 231.064 106.824 231.064 107.016C231.064 107.198 231.101 107.344 231.176 107.456C231.256 107.568 231.368 107.664 231.512 107.744C231.661 107.819 231.834 107.888 232.032 107.952C232.229 108.016 232.448 108.088 232.688 108.168C232.96 108.259 233.2 108.371 233.408 108.504C233.621 108.632 233.786 108.798 233.904 109C234.026 109.203 234.088 109.462 234.088 109.776C234.088 110.043 234.016 110.296 233.872 110.536C233.733 110.771 233.525 110.963 233.248 111.112C232.97 111.262 232.621 111.336 232.2 111.336ZM236.791 111.336C236.418 111.336 236.087 111.246 235.799 111.064C235.511 110.883 235.284 110.627 235.119 110.296C234.959 109.966 234.879 109.579 234.879 109.136C234.879 108.694 234.959 108.307 235.119 107.976C235.284 107.646 235.511 107.39 235.799 107.208C236.092 107.027 236.428 106.936 236.807 106.936C237.212 106.936 237.551 107.027 237.823 107.208C238.095 107.39 238.3 107.632 238.439 107.936C238.578 108.24 238.647 108.574 238.647 108.936C238.647 108.99 238.647 109.043 238.647 109.096C238.647 109.15 238.644 109.214 238.639 109.288H235.383V108.768H237.991C237.98 108.358 237.86 108.046 237.631 107.832C237.407 107.614 237.127 107.504 236.791 107.504C236.567 107.504 236.359 107.56 236.167 107.672C235.98 107.779 235.828 107.939 235.711 108.152C235.594 108.366 235.535 108.632 235.535 108.952V109.176C235.535 109.528 235.594 109.824 235.711 110.064C235.828 110.299 235.98 110.475 236.167 110.592C236.359 110.71 236.567 110.768 236.791 110.768C237.09 110.768 237.324 110.712 237.495 110.6C237.666 110.483 237.791 110.318 237.871 110.104H238.535C238.471 110.339 238.359 110.55 238.199 110.736C238.044 110.923 237.847 111.07 237.607 111.176C237.372 111.283 237.1 111.336 236.791 111.336ZM239.578 113V107.032H240.186L240.242 107.688C240.328 107.55 240.434 107.424 240.562 107.312C240.696 107.2 240.853 107.11 241.034 107.04C241.221 106.971 241.434 106.936 241.674 106.936C242.053 106.936 242.384 107.032 242.666 107.224C242.954 107.416 243.178 107.678 243.338 108.008C243.498 108.339 243.578 108.718 243.578 109.144C243.578 109.566 243.498 109.942 243.338 110.272C243.178 110.603 242.954 110.864 242.666 111.056C242.378 111.243 242.045 111.336 241.666 111.336C241.341 111.336 241.056 111.27 240.81 111.136C240.565 111.003 240.378 110.816 240.25 110.576V113H239.578ZM241.586 110.752C241.837 110.752 242.058 110.688 242.25 110.56C242.448 110.427 242.602 110.24 242.714 110C242.832 109.755 242.89 109.467 242.89 109.136C242.89 108.806 242.832 108.52 242.714 108.28C242.602 108.035 242.448 107.848 242.25 107.72C242.058 107.587 241.837 107.52 241.586 107.52C241.32 107.52 241.088 107.587 240.89 107.72C240.693 107.848 240.541 108.035 240.434 108.28C240.328 108.52 240.274 108.806 240.274 109.136C240.274 109.467 240.328 109.755 240.434 110C240.541 110.24 240.693 110.427 240.89 110.56C241.088 110.688 241.32 110.752 241.586 110.752Z" fill="#524B6B"/>
<rect x="255.678" y="42.7705" width="19.0612" height="54.7799" rx="0.714794" fill="#14BA9C"/>
<path d="M261.192 111.336C260.68 111.336 260.23 111.216 259.84 110.976C259.451 110.731 259.147 110.392 258.928 109.96C258.71 109.523 258.6 109.016 258.6 108.44C258.6 107.87 258.71 107.368 258.928 106.936C259.147 106.499 259.451 106.158 259.84 105.912C260.23 105.667 260.68 105.544 261.192 105.544C261.715 105.544 262.171 105.667 262.56 105.912C262.95 106.158 263.251 106.499 263.464 106.936C263.678 107.368 263.784 107.87 263.784 108.44C263.784 109.016 263.678 109.523 263.464 109.96C263.251 110.392 262.95 110.731 262.56 110.976C262.171 111.216 261.715 111.336 261.192 111.336ZM261.192 110.744C261.576 110.744 261.91 110.654 262.192 110.472C262.48 110.286 262.702 110.022 262.856 109.68C263.016 109.334 263.096 108.92 263.096 108.44C263.096 107.96 263.016 107.55 262.856 107.208C262.702 106.862 262.48 106.598 262.192 106.416C261.91 106.235 261.576 106.144 261.192 106.144C260.814 106.144 260.48 106.235 260.192 106.416C259.91 106.598 259.688 106.862 259.528 107.208C259.368 107.55 259.288 107.96 259.288 108.44C259.288 108.92 259.368 109.334 259.528 109.68C259.688 110.022 259.91 110.286 260.192 110.472C260.48 110.654 260.814 110.744 261.192 110.744ZM266.561 111.336C266.177 111.336 265.836 111.246 265.537 111.064C265.238 110.878 265.004 110.619 264.833 110.288C264.662 109.958 264.577 109.574 264.577 109.136C264.577 108.694 264.662 108.31 264.833 107.984C265.004 107.654 265.238 107.398 265.537 107.216C265.836 107.03 266.177 106.936 266.561 106.936C267.041 106.936 267.441 107.064 267.761 107.32C268.086 107.576 268.294 107.92 268.385 108.352H267.697C267.638 108.086 267.502 107.88 267.289 107.736C267.081 107.587 266.836 107.512 266.553 107.512C266.308 107.512 266.086 107.574 265.889 107.696C265.697 107.819 265.545 108 265.433 108.24C265.321 108.48 265.265 108.779 265.265 109.136C265.265 109.403 265.297 109.64 265.361 109.848C265.425 110.051 265.513 110.222 265.625 110.36C265.742 110.494 265.878 110.595 266.033 110.664C266.193 110.734 266.366 110.768 266.553 110.768C266.745 110.768 266.918 110.736 267.073 110.672C267.233 110.603 267.366 110.504 267.473 110.376C267.585 110.248 267.66 110.096 267.697 109.92H268.385C268.3 110.342 268.092 110.683 267.761 110.944C267.436 111.206 267.036 111.336 266.561 111.336ZM270.885 111.24C270.645 111.24 270.437 111.203 270.261 111.128C270.085 111.054 269.949 110.928 269.853 110.752C269.762 110.571 269.717 110.328 269.717 110.024V107.6H268.981V107.032H269.717L269.805 105.984H270.389V107.032H271.581V107.6H270.389V110.024C270.389 110.275 270.439 110.446 270.541 110.536C270.642 110.622 270.821 110.664 271.077 110.664H271.565V111.24H270.885Z" fill="#524B6B"/>
<rect x="283.594" y="49.0913" width="19.0612" height="48.4591" rx="0.714794" fill="#14BA9C"/>
<path d="M286.241 111.24V105.64H286.913L289.897 110.136V105.64H290.569V111.24H289.897L286.913 106.744V111.24H286.241ZM293.564 111.336C293.174 111.336 292.83 111.246 292.532 111.064C292.233 110.883 292.001 110.627 291.836 110.296C291.67 109.966 291.588 109.579 291.588 109.136C291.588 108.688 291.67 108.302 291.836 107.976C292.006 107.646 292.241 107.39 292.54 107.208C292.844 107.027 293.19 106.936 293.58 106.936C293.974 106.936 294.318 107.027 294.612 107.208C294.91 107.39 295.142 107.646 295.308 107.976C295.473 108.302 295.556 108.688 295.556 109.136C295.556 109.579 295.47 109.966 295.299 110.296C295.134 110.627 294.902 110.883 294.604 111.064C294.305 111.246 293.958 111.336 293.564 111.336ZM293.564 110.76C293.809 110.76 294.03 110.702 294.228 110.584C294.425 110.462 294.58 110.28 294.692 110.04C294.809 109.795 294.868 109.494 294.868 109.136C294.868 108.774 294.812 108.472 294.7 108.232C294.588 107.992 294.433 107.814 294.236 107.696C294.044 107.574 293.825 107.512 293.58 107.512C293.34 107.512 293.121 107.574 292.924 107.696C292.726 107.814 292.569 107.992 292.452 108.232C292.334 108.472 292.276 108.774 292.276 109.136C292.276 109.494 292.332 109.795 292.444 110.04C292.561 110.28 292.716 110.462 292.908 110.584C293.105 110.702 293.324 110.76 293.564 110.76ZM297.55 111.24L295.95 107.032H296.662L297.942 110.592L299.23 107.032H299.918L298.326 111.24H297.55Z" fill="#524B6B"/>
<rect x="311.511" y="59.6259" width="19.0612" height="37.9245" rx="0.714794" fill="#14BA9C"/>
<path d="M314.158 111.24V105.64H315.598C316.248 105.64 316.784 105.755 317.206 105.984C317.632 106.208 317.947 106.531 318.15 106.952C318.358 107.368 318.462 107.87 318.462 108.456C318.462 109.032 318.358 109.528 318.15 109.944C317.947 110.36 317.632 110.68 317.206 110.904C316.784 111.128 316.248 111.24 315.598 111.24H314.158ZM314.83 110.68H315.582C316.12 110.68 316.55 110.592 316.87 110.416C317.19 110.235 317.419 109.979 317.558 109.648C317.696 109.312 317.766 108.915 317.766 108.456C317.766 107.987 317.696 107.584 317.558 107.248C317.419 106.912 317.19 106.654 316.87 106.472C316.55 106.291 316.12 106.2 315.582 106.2H314.83V110.68ZM321.166 111.336C320.793 111.336 320.462 111.246 320.174 111.064C319.886 110.883 319.659 110.627 319.494 110.296C319.334 109.966 319.254 109.579 319.254 109.136C319.254 108.694 319.334 108.307 319.494 107.976C319.659 107.646 319.886 107.39 320.174 107.208C320.467 107.027 320.803 106.936 321.182 106.936C321.587 106.936 321.926 107.027 322.198 107.208C322.47 107.39 322.675 107.632 322.814 107.936C322.953 108.24 323.022 108.574 323.022 108.936C323.022 108.99 323.022 109.043 323.022 109.096C323.022 109.15 323.019 109.214 323.014 109.288H319.758V108.768H322.366C322.355 108.358 322.235 108.046 322.006 107.832C321.782 107.614 321.502 107.504 321.166 107.504C320.942 107.504 320.734 107.56 320.542 107.672C320.355 107.779 320.203 107.939 320.086 108.152C319.969 108.366 319.91 108.632 319.91 108.952V109.176C319.91 109.528 319.969 109.824 320.086 110.064C320.203 110.299 320.355 110.475 320.542 110.592C320.734 110.71 320.942 110.768 321.166 110.768C321.465 110.768 321.699 110.712 321.87 110.6C322.041 110.483 322.166 110.318 322.246 110.104H322.91C322.846 110.339 322.734 110.55 322.574 110.736C322.419 110.923 322.222 111.07 321.982 111.176C321.747 111.283 321.475 111.336 321.166 111.336ZM325.769 111.336C325.385 111.336 325.044 111.246 324.745 111.064C324.447 110.878 324.212 110.619 324.041 110.288C323.871 109.958 323.785 109.574 323.785 109.136C323.785 108.694 323.871 108.31 324.041 107.984C324.212 107.654 324.447 107.398 324.745 107.216C325.044 107.03 325.385 106.936 325.769 106.936C326.249 106.936 326.649 107.064 326.969 107.32C327.295 107.576 327.503 107.92 327.593 108.352H326.905C326.847 108.086 326.711 107.88 326.497 107.736C326.289 107.587 326.044 107.512 325.761 107.512C325.516 107.512 325.295 107.574 325.097 107.696C324.905 107.819 324.753 108 324.641 108.24C324.529 108.48 324.473 108.779 324.473 109.136C324.473 109.403 324.505 109.64 324.569 109.848C324.633 110.051 324.721 110.222 324.833 110.36C324.951 110.494 325.087 110.595 325.241 110.664C325.401 110.734 325.575 110.768 325.761 110.768C325.953 110.768 326.127 110.736 326.281 110.672C326.441 110.603 326.575 110.504 326.681 110.376C326.793 110.248 326.868 110.096 326.905 109.92H327.593C327.508 110.342 327.3 110.683 326.969 110.944C326.644 111.206 326.244 111.336 325.769 111.336Z" fill="#524B6B"/>
</svg>
