<svg width="21" height="21" viewBox="0 0 21 21" fill="none" xmlns="http://www.w3.org/2000/svg">
<path d="M10.085 0.365723C4.58888 0.365723 0.092041 4.86821 0.092041 10.3709C0.092041 15.8736 4.58888 20.3761 10.085 20.3761C15.5812 20.3761 20.078 15.8736 20.078 10.3709C20.078 4.86821 15.5812 0.365723 10.085 0.365723ZM10.085 17.8748C5.96291 17.8748 2.59028 14.4981 2.59028 10.3709C2.59028 6.24373 5.96291 2.86694 10.085 2.86694C14.2071 2.86694 17.5797 6.24373 17.5797 10.3709C17.5797 14.4981 14.2071 17.8748 10.085 17.8748Z" fill="#14BA9C"/>
<path d="M12.9578 6.9942L8.83566 11.1214L7.08689 9.37051C6.58724 8.87026 5.83776 8.87026 5.33812 9.37051C4.83847 9.87075 4.83847 10.6211 5.33812 11.1214L7.96127 13.7478C8.2111 13.9979 8.46092 14.1231 8.83566 14.1231C9.21039 14.1231 9.46022 13.9979 9.71004 13.7478L14.7065 8.74505C15.2062 8.24481 15.2062 7.49444 14.7065 6.9942C14.2069 6.49396 13.4574 6.49396 12.9578 6.9942Z" fill="#14BA9C"/>
</svg>
