<svg width="365" height="365" viewBox="0 0 365 365" fill="none" xmlns="http://www.w3.org/2000/svg">
<g clip-path="url(#clip0_1227_4998)">
<path d="M263.63 197.856H360.802L344.18 288.826H280.253L263.63 197.856Z" fill="white"/>
<path d="M344.18 289.24H280.253C280.004 289.24 279.839 289.075 279.839 288.909L263.216 197.939C263.216 197.856 263.216 197.691 263.299 197.608C263.382 197.526 263.464 197.443 263.63 197.443H360.802C360.968 197.443 361.05 197.526 361.133 197.608C361.216 197.691 361.216 197.856 361.216 197.939L344.593 288.909C344.593 289.075 344.345 289.24 344.18 289.24ZM280.666 288.413H343.849L360.306 198.27H264.209L280.666 288.413Z" fill="#0D0140" fill-opacity="0.6"/>
<path d="M263.63 197.856H360.802L344.18 178.67H280.253L263.63 197.856Z" fill="#130160"/>
<path d="M360.802 198.27H263.63C263.465 198.27 263.299 198.187 263.216 198.022C263.134 197.856 263.134 197.691 263.299 197.526L279.922 178.339C280.005 178.257 280.087 178.174 280.253 178.174H344.18C344.262 178.174 344.428 178.257 344.511 178.339L361.133 197.526C361.216 197.691 361.299 197.856 361.216 198.022C361.133 198.187 360.968 198.27 360.802 198.27ZM264.622 197.443H359.893L344.014 179.166H280.501L264.622 197.443Z" fill="#0D0140" fill-opacity="0.6"/>
<path d="M348.894 206.209L345.834 222.915H316.31L316.641 206.209H348.894Z" fill="#0D0140" fill-opacity="0.6"/>
<path d="M345.834 223.328H316.227C316.144 223.328 315.979 223.245 315.896 223.163C315.814 223.08 315.731 222.997 315.814 222.832L316.227 206.126C316.227 205.878 316.392 205.713 316.641 205.713H348.811C348.976 205.713 349.059 205.796 349.142 205.878C349.224 205.961 349.224 206.126 349.224 206.209L346.247 222.915C346.247 223.163 346.082 223.328 345.834 223.328ZM316.723 222.501H345.503L348.315 206.705H317.054L316.723 222.501Z" fill="#0D0140" fill-opacity="0.6"/>
<path d="M308.123 222.915H278.599L275.622 206.209H307.792L308.123 222.915Z" fill="#0D0140" fill-opacity="0.6"/>
<path d="M308.123 223.328H278.516C278.268 223.328 278.103 223.163 278.103 222.997L275.125 206.292C275.125 206.209 275.125 206.044 275.208 205.961C275.291 205.878 275.374 205.796 275.539 205.796H307.709C307.957 205.796 308.123 205.961 308.123 206.209L308.536 222.915C308.536 222.997 308.454 223.163 308.454 223.245C308.371 223.245 308.288 223.328 308.123 223.328ZM278.93 222.501H307.709L307.378 206.705H276.118L278.93 222.501Z" fill="#0D0140" fill-opacity="0.6"/>
<path d="M344.677 229.448L340.294 254.092H315.566L316.145 229.448H344.677Z" fill="#0D0140" fill-opacity="0.6"/>
<path d="M340.293 254.589H315.566C315.483 254.589 315.318 254.506 315.235 254.423C315.152 254.341 315.07 254.258 315.152 254.092L315.731 229.365C315.731 229.117 315.897 228.952 316.145 228.952H344.676C344.759 228.952 344.924 229.034 345.007 229.117C345.09 229.2 345.09 229.365 345.09 229.448L340.707 254.175C340.707 254.423 340.459 254.589 340.293 254.589ZM315.979 253.762H339.88L344.18 229.861H316.558L315.979 253.762Z" fill="#0D0140" fill-opacity="0.6"/>
<path d="M308.868 254.092H284.14L279.757 229.448H308.289L308.868 254.092Z" fill="#0D0140" fill-opacity="0.6"/>
<path d="M308.867 254.589H284.14C283.892 254.589 283.727 254.423 283.727 254.258L279.261 229.531C279.261 229.365 279.261 229.282 279.343 229.2C279.426 229.117 279.509 229.034 279.674 229.034H308.206C308.454 229.034 308.619 229.2 308.619 229.448L309.198 254.175C309.198 254.258 309.115 254.423 309.115 254.506C309.115 254.506 308.95 254.589 308.867 254.589ZM284.554 253.762H308.454L307.875 229.861H280.253L284.554 253.762Z" fill="#0D0140" fill-opacity="0.6"/>
<path d="M339.135 260.626L334.917 283.699H314.904L315.4 260.626H339.135Z" fill="#0D0140" fill-opacity="0.6"/>
<path d="M334.917 284.113H314.821C314.739 284.113 314.573 284.03 314.49 284.03C314.408 283.947 314.408 283.864 314.408 283.699L314.904 260.626C314.904 260.378 315.069 260.212 315.317 260.212H338.97C339.218 260.212 339.383 260.378 339.383 260.626V260.708L335.248 283.782C335.331 284.03 335.165 284.113 334.917 284.113ZM315.317 283.286H334.587L338.556 261.039H315.814L315.317 283.286Z" fill="#0D0140" fill-opacity="0.6"/>
<path d="M309.528 283.699H289.515L285.297 260.626H309.032L309.528 283.699Z" fill="#0D0140" fill-opacity="0.6"/>
<path d="M309.529 284.113H289.433C289.267 284.113 289.019 283.947 289.019 283.782L284.884 260.708C284.884 260.543 284.884 260.46 284.967 260.378C285.05 260.295 285.132 260.212 285.298 260.212H308.95C309.198 260.212 309.363 260.378 309.363 260.626L309.86 283.699C309.86 283.782 309.86 283.947 309.777 284.03C309.777 284.113 309.694 284.113 309.529 284.113ZM289.846 283.286H309.115L308.619 261.039H285.877L289.846 283.286Z" fill="#0D0140" fill-opacity="0.6"/>
<path d="M253.045 190.579C252.218 185.948 252.218 181.316 252.962 176.685C253.541 172.881 250.564 169.738 248.414 177.43C248.414 177.43 245.85 173.543 244.113 170.814C243.038 169.077 235.182 157.582 232.701 160.063C230.22 162.544 239.647 173.708 239.647 173.708C239.647 173.708 228.814 163.701 226.994 165.107C225.175 166.513 235.264 176.851 235.264 176.851C235.264 176.851 225.423 170.4 223.934 172.385C222.446 174.37 232.287 180.241 232.287 180.241C232.287 180.241 222.694 177.43 222.694 179.911C222.694 182.392 230.55 184.707 230.55 184.707C230.55 184.707 233.445 189.752 236.67 191.571C238.49 192.564 240.061 193.721 241.549 195.21C241.632 195.127 249.571 190.91 253.045 190.579Z" fill="#FFB4A3"/>
<path d="M241.715 195.541C241.632 195.541 241.466 195.458 241.384 195.375C239.978 193.97 238.407 192.812 236.587 191.819C233.61 190.083 230.881 185.865 230.385 184.955C229.062 184.542 222.363 182.309 222.363 179.745C222.363 179.332 222.528 179.001 222.859 178.753C224.017 177.843 227.407 178.422 229.888 179.001C227.407 177.347 223.851 174.7 223.521 172.964C223.438 172.633 223.521 172.219 223.686 171.971C224.844 170.4 229.475 172.633 232.783 174.618C230.219 171.723 226.332 167.175 226.415 165.438C226.415 165.107 226.58 164.859 226.829 164.694C227.242 164.363 229.144 163.949 236.422 170.069C230.715 162.295 232.121 160.063 232.535 159.649C232.866 159.318 233.445 159.153 233.941 159.153C237.58 159.566 244.526 170.4 244.609 170.483C245.85 172.468 247.586 175.031 248.413 176.354C249.654 172.468 251.06 172.137 251.887 172.302C253.127 172.55 253.872 174.535 253.541 176.768C252.796 181.316 252.796 185.948 253.623 190.496C253.623 190.579 253.623 190.744 253.541 190.827C253.458 190.91 253.375 190.992 253.21 190.992C249.819 191.24 242.045 195.458 242.045 195.458C241.797 195.541 241.715 195.541 241.715 195.541ZM224.926 179.332C224.43 179.249 223.934 179.414 223.438 179.662C223.355 179.745 223.272 179.828 223.272 179.911C223.272 181.482 227.904 183.467 230.798 184.294C230.881 184.294 230.964 184.376 231.046 184.459C231.046 184.542 233.941 189.421 237.001 191.158C238.737 192.067 240.309 193.225 241.715 194.631C243.12 193.887 249.158 190.744 252.466 190.248C251.721 185.782 251.721 181.151 252.466 176.685C252.714 174.949 252.135 173.377 251.473 173.212C250.812 173.046 249.736 174.122 248.744 177.595C248.744 177.76 248.579 177.843 248.413 177.926C248.248 177.926 248.082 177.843 248 177.76C248 177.678 245.353 173.791 243.699 171.144C242.045 168.498 236.256 160.476 233.61 160.228C233.362 160.145 233.114 160.228 232.948 160.393C231.377 161.965 236.339 169.242 239.895 173.46C240.061 173.625 239.978 173.956 239.812 174.039C239.647 174.122 239.399 174.122 239.316 174.039C234.189 169.325 228.152 164.776 227.242 165.521C227.242 165.521 227.242 165.521 227.159 165.686C227.077 167.34 232.204 173.295 235.512 176.603C235.677 176.768 235.677 177.016 235.512 177.181C235.347 177.347 235.099 177.347 234.933 177.264C230.385 174.287 224.927 171.641 224.182 172.716C224.1 172.798 224.099 172.964 224.099 173.046C224.513 174.866 230.219 178.67 232.369 179.993C232.535 180.076 232.618 180.324 232.535 180.489C232.452 180.655 232.204 180.82 232.039 180.738C229.806 179.911 227.407 179.497 224.926 179.332Z" fill="#0D0140" fill-opacity="0.6"/>
<path d="M238.903 184.128C238.655 184.128 238.49 183.963 238.49 183.715C238.49 183.632 238.49 183.549 238.49 183.549C240.226 179.58 244.113 177.016 248.496 177.016C248.662 177.016 248.745 177.099 248.827 177.181C249.737 178.587 250.481 180.159 251.06 181.73C251.143 181.978 251.06 182.226 250.812 182.309C250.564 182.392 250.316 182.309 250.233 182.061C249.654 180.655 248.993 179.249 248.248 177.926C244.361 178.008 240.805 180.407 239.317 183.963C239.151 184.046 238.986 184.128 238.903 184.128Z" fill="#0D0140" fill-opacity="0.6"/>
<path d="M230.964 183.219C230.882 183.219 230.799 183.219 230.799 183.136C230.551 183.053 230.468 182.805 230.633 182.557C232.37 178.918 237.58 173.873 243.121 171.889C243.369 171.806 243.617 171.889 243.7 172.137C243.783 172.385 243.7 172.633 243.452 172.716C238.076 174.7 233.114 179.497 231.378 182.97C231.295 183.136 231.13 183.219 230.964 183.219Z" fill="#0D0140" fill-opacity="0.6"/>
<path d="M307.709 254.175C307.544 247.973 304.98 244.168 300.432 243.259C295.883 242.349 292.162 242.928 289.432 237.883C286.703 232.839 263.051 189.504 260.405 186.527C257.758 183.549 235.016 194.962 234.768 198.932C234.52 202.901 273.141 237.387 277.524 241.274C281.907 245.161 286.207 248.552 286.207 248.552L286.786 254.175H307.709Z" fill="#130160"/>
<path d="M303.906 246.98C303.906 249.709 303.988 253.596 303.988 253.596L303.906 246.98Z" fill="white"/>
<path d="M304.07 253.844C303.905 253.844 303.822 253.762 303.822 253.596C303.822 253.596 303.739 249.709 303.739 246.98C303.739 246.815 303.822 246.732 303.987 246.732C304.153 246.732 304.235 246.815 304.235 246.98C304.235 249.709 304.318 253.514 304.318 253.596C304.318 253.679 304.235 253.844 304.07 253.844Z" fill="#0D0140" fill-opacity="0.6"/>
<path d="M291.5 241.026C290.838 240.612 290.177 240.199 289.515 239.703L289.019 239.372C288.274 238.876 287.613 238.214 287.365 237.304C287.365 237.139 287.365 237.056 287.282 236.891C287.199 236.643 287.117 236.395 286.951 236.147C286.124 234.41 286.786 232.342 288.44 231.35C288.605 231.267 288.771 231.185 288.936 231.019C289.019 230.854 289.101 230.688 289.101 230.606C289.184 230.027 289.598 229.531 290.094 229.2C290.342 229.117 290.59 229.034 290.755 228.952C290.921 228.869 291.086 228.704 291.252 228.455C291.748 227.794 292.409 227.463 293.154 227.298C293.65 227.298 294.229 227.38 294.808 227.38C295.635 227.38 296.379 227.05 297.123 227.298C297.537 227.38 297.785 227.711 298.198 227.794C298.612 227.877 299.108 227.877 299.522 227.794C300.349 227.794 301.093 228.207 301.589 228.869C301.672 228.952 301.755 229.034 301.837 229.117C302.003 229.2 302.168 229.282 302.251 229.282C302.995 229.448 303.574 229.861 303.987 230.523C304.07 230.771 304.236 230.936 304.401 231.102C304.566 231.267 304.814 231.433 304.98 231.598C305.228 231.846 305.476 232.094 305.641 232.425C305.724 232.59 305.807 232.839 305.89 233.004C306.055 233.169 306.22 233.252 306.386 233.335C307.295 233.914 307.709 234.989 307.295 235.981C307.213 236.064 307.213 236.229 307.213 236.312C307.295 236.477 307.295 236.56 307.378 236.725C307.544 237.056 307.378 237.47 307.295 237.801C307.295 238.214 307.295 238.545 307.295 238.958C307.295 239.537 307.13 240.199 306.799 240.695C306.468 241.357 306.138 242.018 305.724 242.597C304.897 243.755 303.657 244.665 302.251 245.161C301.424 245.492 300.514 245.409 299.687 245.078C299.522 244.995 299.439 244.913 299.274 244.83C299.108 244.747 298.943 244.747 298.86 244.665C297.868 244.417 296.875 244.086 295.966 243.59L290.921 241.191" fill="#C14834"/>
<path d="M302.83 240.86C303.492 240.364 304.319 240.53 304.815 241.109C305.642 242.184 303.078 245.409 301.424 243.176C301.424 243.176 298.943 246.732 294.477 244.499C291.831 243.259 290.342 240.364 290.756 237.47C290.756 237.47 289.102 237.47 288.854 236.395C288.606 235.32 289.929 233.169 291.583 235.32L291.5 235.981C292.244 235.568 292.823 234.989 293.32 234.327C294.064 234.162 294.808 233.748 295.304 233.252C295.304 233.252 296.545 234.079 299.274 233.004C299.274 233.004 299.522 235.898 303.161 238.462C303.078 238.628 302.417 241.109 302.83 240.86Z" fill="#FFB4A3"/>
<path d="M302.003 238.462C301.59 238.214 301.176 237.966 300.763 237.801C300.597 237.718 300.349 237.635 300.101 237.553C299.936 237.47 299.688 237.387 299.439 237.304V237.222C299.439 237.222 299.439 237.139 299.522 237.139C300.018 237.056 300.515 237.139 301.011 237.387C301.507 237.635 301.838 237.966 302.169 238.38V238.462H302.086H302.003Z" fill="#0D0140" fill-opacity="0.6"/>
<path d="M295.056 234.989C295.552 234.906 296.049 234.989 296.545 235.237C297.041 235.402 297.454 235.816 297.703 236.229V236.312H297.62L297.041 235.981C296.876 235.898 296.627 235.733 296.462 235.65C296.049 235.485 295.635 235.32 295.222 235.154C294.973 235.154 294.973 235.071 295.056 234.989C294.973 234.989 294.973 234.989 295.056 234.989Z" fill="#0D0140" fill-opacity="0.6"/>
<path d="M297.868 241.357C297.702 241.357 297.537 241.357 297.454 241.274C296.875 241.026 296.545 240.447 296.71 239.785C296.793 239.62 296.875 239.537 297.041 239.62C297.206 239.703 297.206 239.785 297.206 239.951C297.124 240.282 297.372 240.695 297.702 240.778C297.868 240.86 298.116 240.86 298.199 240.612C298.199 240.612 298.199 240.612 298.199 240.53C298.281 240.447 298.281 240.364 298.199 240.282C298.116 240.033 297.62 239.785 297.454 239.703C297.372 239.62 297.289 239.537 297.289 239.372C297.454 238.628 297.62 237.966 297.868 237.304C297.951 237.139 298.033 237.139 298.199 237.139C298.364 237.222 298.364 237.304 298.364 237.47C298.199 238.049 298.033 238.628 297.868 239.289C298.199 239.455 298.529 239.785 298.695 240.116C298.778 240.364 298.778 240.612 298.612 240.778C298.447 241.191 298.199 241.357 297.868 241.357Z" fill="#0D0140" fill-opacity="0.6"/>
<path d="M299.274 238.958C299.026 239.206 299.026 239.62 299.274 239.868C299.605 240.033 300.018 239.951 300.184 239.62C300.266 239.537 300.266 239.454 300.349 239.289L299.77 239.206L300.349 238.876C300.349 238.793 300.266 238.793 300.184 238.71C299.853 238.545 299.522 238.627 299.274 238.958Z" fill="#0D0140" fill-opacity="0.6"/>
<path d="M294.643 236.643C294.395 236.891 294.395 237.304 294.643 237.552C294.973 237.718 295.387 237.635 295.552 237.304C295.635 237.222 295.635 237.139 295.718 236.974L295.139 236.891L295.718 236.56C295.718 236.477 295.635 236.395 295.552 236.395C295.222 236.229 294.808 236.395 294.643 236.643Z" fill="#0D0140" fill-opacity="0.6"/>
<path d="M296.462 242.266C296.38 242.266 296.38 242.266 296.297 242.266C295.553 241.936 294.974 241.274 294.726 240.447C294.726 240.282 294.808 240.199 294.891 240.199C295.056 240.199 295.139 240.282 295.139 240.364C295.139 240.364 295.304 241.109 296.462 241.853C296.545 241.936 296.628 242.101 296.545 242.184C296.628 242.184 296.545 242.184 296.462 242.266Z" fill="#0D0140" fill-opacity="0.6"/>
<path d="M291.004 235.899C290.673 235.154 290.011 235.072 289.598 235.568L291.004 235.899Z" fill="white"/>
<path d="M291.003 236.147C290.921 236.147 290.838 236.064 290.755 235.981C290.673 235.733 290.507 235.568 290.259 235.485C290.094 235.485 289.846 235.568 289.763 235.733C289.68 235.816 289.515 235.816 289.432 235.733C289.349 235.65 289.349 235.485 289.432 235.402C289.68 235.154 290.011 234.989 290.425 234.989C290.838 235.071 291.169 235.32 291.334 235.733C291.417 235.898 291.334 235.981 291.169 236.064C291.086 236.147 291.086 236.147 291.003 236.147Z" fill="#0D0140" fill-opacity="0.6"/>
<path d="M289.929 236.643C289.515 236.064 290.177 235.237 290.177 235.237L289.929 236.643Z" fill="white"/>
<path d="M289.929 236.974C289.847 236.974 289.764 236.974 289.764 236.891C289.268 236.147 290.012 235.237 290.012 235.154C290.095 235.071 290.26 235.071 290.343 235.154C290.425 235.237 290.508 235.402 290.343 235.485C290.343 235.485 289.847 236.147 290.095 236.56C290.177 236.643 290.177 236.808 290.012 236.891C290.095 236.974 290.012 236.974 289.929 236.974Z" fill="#0D0140" fill-opacity="0.6"/>
<path d="M302.913 241.605C303.326 241.274 303.905 241.357 304.236 241.687C304.319 241.77 304.401 241.936 304.401 242.101" fill="white"/>
<path d="M304.484 242.349C304.318 242.349 304.236 242.266 304.236 242.101C304.153 241.853 304.07 241.687 303.822 241.687C303.574 241.605 303.243 241.605 303.078 241.77C302.995 241.853 302.83 241.853 302.747 241.687C302.664 241.605 302.664 241.439 302.83 241.357C303.161 241.026 303.657 241.026 304.07 241.191C304.484 241.357 304.732 241.687 304.815 242.101C304.815 242.184 304.649 242.349 304.484 242.349C304.567 242.349 304.567 242.349 304.484 242.349Z" fill="#0D0140" fill-opacity="0.6"/>
<path d="M302.665 243.259C303.409 243.424 304.154 242.349 304.154 241.605L302.665 243.259Z" fill="white"/>
<path d="M302.83 243.507C302.748 243.507 302.665 243.507 302.582 243.507C302.417 243.507 302.334 243.341 302.417 243.176C302.417 243.011 302.582 242.928 302.748 243.011C302.913 243.011 303.161 243.011 303.244 242.845C303.575 242.514 303.823 242.101 303.823 241.605C303.823 241.439 303.905 241.357 304.071 241.357C304.236 241.357 304.319 241.439 304.319 241.605C304.319 242.266 303.988 242.845 303.492 243.259C303.409 243.424 303.078 243.507 302.83 243.507Z" fill="#0D0140" fill-opacity="0.6"/>
<path d="M233.362 154.604L217.153 164.363L228.069 175.279L254.864 157.582L243.7 148.236L233.362 154.604Z" fill="white"/>
<path d="M228.069 175.693C227.986 175.693 227.821 175.61 227.738 175.61L216.905 164.611C216.822 164.528 216.739 164.363 216.822 164.28C216.822 164.115 216.905 164.032 216.987 163.949L233.196 154.274L243.451 147.823C243.617 147.74 243.782 147.74 243.947 147.823L255.112 157.168C255.195 157.251 255.277 157.416 255.277 157.499C255.277 157.664 255.195 157.747 255.112 157.83L228.317 175.527C228.234 175.693 228.152 175.693 228.069 175.693ZM217.897 164.446L228.152 174.7L254.12 157.499L243.617 148.733L233.61 155.018L217.897 164.446Z" fill="#0D0140" fill-opacity="0.6"/>
<path d="M225.837 149.146C228.07 150.469 236.174 149.973 237.498 151.379C238.821 152.785 237.58 154.852 233.445 154.604L223.356 160.641C223.19 159.235 222.86 157.912 222.363 156.589C221.784 155.514 221.04 154.439 220.296 153.529L225.837 149.146Z" fill="#FFB4A3"/>
<path d="M223.272 161.055C223.19 161.055 223.107 161.055 223.107 160.972C222.941 160.889 222.859 160.807 222.859 160.641C222.693 159.318 222.363 157.995 221.949 156.754C221.37 155.679 220.709 154.687 219.882 153.777C219.799 153.695 219.799 153.612 219.799 153.446C219.799 153.364 219.882 153.198 219.964 153.116L225.588 148.733C225.753 148.65 225.919 148.65 226.084 148.733C227.076 149.311 229.64 149.56 231.956 149.725C234.685 149.973 237.083 150.138 237.827 150.965C238.406 151.544 238.572 152.371 238.241 153.116C237.662 154.356 235.925 155.018 233.527 154.935L223.52 160.889C223.438 161.055 223.355 161.055 223.272 161.055ZM220.791 153.612C221.536 154.522 222.114 155.431 222.693 156.424C223.19 157.581 223.438 158.739 223.603 159.98L233.196 154.273C233.279 154.191 233.362 154.191 233.444 154.191C235.925 154.273 237.166 153.529 237.497 152.868C237.662 152.454 237.579 151.958 237.249 151.627C236.67 151.048 234.189 150.8 231.956 150.635C229.723 150.469 227.242 150.221 226.001 149.642L220.791 153.612Z" fill="#0D0140" fill-opacity="0.6"/>
<path d="M234.851 165.19C237.409 165.19 239.482 163.524 239.482 161.468C239.482 159.413 237.409 157.747 234.851 157.747C232.293 157.747 230.22 159.413 230.22 161.468C230.22 163.524 232.293 165.19 234.851 165.19Z" fill="white"/>
<path d="M234.851 165.603C232.039 165.603 229.806 163.784 229.806 161.468C229.806 159.153 232.122 157.333 234.851 157.333C237.58 157.333 239.896 159.153 239.896 161.468C239.896 163.784 237.58 165.603 234.851 165.603ZM234.851 158.16C232.535 158.16 230.633 159.649 230.633 161.468C230.633 163.288 232.535 164.776 234.851 164.776C237.166 164.776 239.069 163.288 239.069 161.468C239.069 159.649 237.166 158.16 234.851 158.16Z" fill="#0D0140" fill-opacity="0.6"/>
<path d="M238.82 154.356L242.045 152.537C242.872 153.198 244.03 153.281 244.94 152.785L248.827 155.928C248 156.424 247.834 157.499 248.33 158.326C248.413 158.491 248.578 158.574 248.661 158.739L243.699 162.047" fill="white"/>
<path d="M243.7 162.461C243.451 162.461 243.286 162.295 243.286 162.047C243.286 161.882 243.369 161.799 243.451 161.717L248 158.657C247.421 157.83 247.504 156.755 248.165 156.01L244.857 153.364C243.948 153.777 242.873 153.695 241.963 153.116L238.903 154.852C238.738 155.018 238.407 154.935 238.324 154.77C238.159 154.604 238.241 154.274 238.407 154.191C238.407 154.191 238.489 154.191 238.489 154.108L241.715 152.289C241.88 152.206 242.046 152.206 242.211 152.289C242.873 152.868 243.865 152.95 244.609 152.454C244.775 152.371 244.94 152.371 245.105 152.537L248.992 155.679C249.075 155.762 249.158 155.928 249.158 156.01C249.158 156.176 249.075 156.258 248.992 156.341C248.413 156.755 248.248 157.499 248.579 158.078C248.662 158.16 248.744 158.326 248.827 158.409C248.91 158.491 248.992 158.657 248.992 158.739C248.992 158.905 248.91 158.987 248.827 159.07L243.782 162.378C243.865 162.378 243.782 162.461 243.7 162.461Z" fill="#0D0140" fill-opacity="0.6"/>
<path d="M232.618 169.408L230.054 171.062C229.227 170.235 227.821 170.069 226.829 170.731L222.363 166.348C223.19 165.852 223.438 164.776 222.942 164.032C222.859 163.867 222.776 163.784 222.694 163.701L227.325 161.055" fill="white"/>
<path d="M230.055 171.475C229.972 171.475 229.807 171.392 229.724 171.392C228.98 170.648 227.904 170.565 227.077 171.144C226.912 171.227 226.664 171.227 226.581 171.062L222.115 166.679C222.033 166.596 221.95 166.43 222.033 166.348C222.033 166.182 222.115 166.1 222.198 166.017C222.529 165.852 222.777 165.438 222.86 165.107C222.942 164.694 222.777 164.28 222.446 164.032C222.364 163.949 222.281 163.784 222.364 163.701C222.364 163.536 222.446 163.453 222.529 163.371L227.16 160.724C227.326 160.641 227.656 160.641 227.739 160.89C227.822 161.055 227.822 161.386 227.574 161.468L223.356 163.949C223.604 164.363 223.687 164.859 223.604 165.273C223.521 165.769 223.356 166.182 223.025 166.513L226.912 170.317C227.987 169.821 229.145 169.904 230.137 170.648L232.453 169.16C232.618 168.994 232.866 169.077 233.032 169.242C233.197 169.408 233.115 169.738 232.949 169.821L230.385 171.475C230.22 171.475 230.137 171.475 230.055 171.475Z" fill="#0D0140" fill-opacity="0.6"/>
<path d="M117.913 132.275C114.77 131.944 111.627 131.117 108.733 129.794C106.335 128.719 103.771 130.125 108.402 132.937C108.402 132.937 105.342 133.929 103.275 134.508C101.952 134.922 92.9373 137.982 94.0951 140.049C95.2529 142.117 104.35 137.982 104.35 137.982C104.35 137.982 95.7491 143.274 96.4107 144.68C97.0723 146.086 105.673 141.372 105.673 141.372C105.673 141.372 99.636 146.665 100.628 147.988C101.621 149.311 107.327 143.936 107.327 143.936C107.327 143.936 103.688 149.725 105.342 150.138C106.996 150.552 109.973 145.838 109.973 145.838C109.973 145.838 113.778 144.846 115.597 143.026C116.589 142.034 117.665 141.207 118.905 140.463C118.905 140.628 117.499 134.674 117.913 132.275Z" fill="#FFB4A3"/>
<path d="M105.508 150.717C105.426 150.717 105.26 150.717 105.177 150.717C104.847 150.635 104.681 150.387 104.516 150.139C104.185 149.312 104.929 147.575 105.674 146.086C104.102 147.409 102.118 148.815 100.96 148.733C100.712 148.733 100.381 148.567 100.215 148.402C99.3884 147.409 101.208 145.177 103.027 143.357C100.629 144.515 97.569 145.838 96.4939 145.425C96.2458 145.342 96.0804 145.177 95.9977 144.928C95.5842 143.853 97.8998 141.869 100.464 140.049C95.0053 141.869 93.9302 140.628 93.6821 140.297C93.5167 139.966 93.434 139.553 93.5994 139.222C94.5918 136.824 103.027 134.177 103.11 134.177C104.516 133.764 106.335 133.185 107.41 132.854C105.343 131.366 105.26 130.373 105.508 129.794C105.922 128.967 107.493 128.802 108.899 129.464C111.711 130.787 114.771 131.614 117.913 131.945C117.996 131.945 118.161 132.027 118.244 132.11C118.327 132.193 118.327 132.358 118.327 132.441C117.913 134.674 119.236 140.545 119.236 140.628C119.236 140.793 119.154 141.042 118.988 141.124C117.831 141.786 116.755 142.613 115.846 143.605C114.192 145.259 110.966 146.252 110.222 146.417C109.561 147.327 107.245 150.717 105.508 150.717ZM107.328 143.605C107.41 143.605 107.493 143.605 107.576 143.688C107.741 143.853 107.824 144.019 107.658 144.267C106.501 146.086 105.012 149.063 105.343 149.808C105.343 149.89 105.343 149.89 105.426 149.89C106.335 150.139 108.403 147.575 109.561 145.755C109.643 145.673 109.726 145.59 109.809 145.59C109.809 145.59 113.53 144.598 115.267 142.944C116.177 141.951 117.252 141.124 118.327 140.463C118.079 139.305 117.169 135.004 117.417 132.772C114.357 132.441 111.38 131.614 108.568 130.291C107.41 129.794 106.418 129.96 106.253 130.291C106.087 130.621 106.583 131.448 108.568 132.689C108.734 132.772 108.816 132.937 108.734 133.102C108.734 133.268 108.568 133.433 108.403 133.433C108.403 133.433 105.343 134.426 103.275 135.087C101.208 135.749 95.0053 137.982 94.3437 139.636C94.261 139.718 94.261 139.884 94.3437 139.966C94.9226 141.042 99.8846 139.636 104.02 137.734C104.185 137.651 104.433 137.734 104.599 137.899C104.681 138.064 104.599 138.312 104.433 138.478C100.133 141.124 96.5766 144.019 96.6593 144.68C97.1555 145.011 101.125 143.44 105.26 141.207C105.426 141.124 105.674 141.124 105.839 141.372C106.004 141.538 105.922 141.786 105.756 141.951C102.779 144.598 100.381 147.492 100.794 147.988C100.794 147.988 100.794 148.071 100.877 148.071C101.952 148.154 105.095 145.59 106.831 143.936C107.08 143.605 107.245 143.605 107.328 143.605Z" fill="#0D0140" fill-opacity="0.6"/>
<path d="M110.801 140.793C110.718 140.793 110.635 140.793 110.553 140.711C108.237 138.809 107.245 135.666 107.989 132.772C108.072 132.606 108.154 132.523 108.32 132.523C109.395 132.193 110.553 132.027 111.711 131.862C111.959 131.862 112.124 132.027 112.207 132.275C112.207 132.523 112.041 132.689 111.793 132.772C110.801 132.854 109.726 133.02 108.816 133.268C108.154 135.831 109.064 138.478 111.132 140.049C111.297 140.215 111.38 140.463 111.214 140.628C111.049 140.793 110.966 140.793 110.801 140.793Z" fill="#0D0140" fill-opacity="0.6"/>
<path d="M108.733 145.838C108.651 145.838 108.568 145.838 108.485 145.755C106.418 143.936 104.02 139.718 103.689 135.418C103.606 135.17 103.689 134.922 103.937 134.839C104.185 134.756 104.433 134.839 104.516 135.087C104.516 135.17 104.516 135.253 104.516 135.335C104.847 139.222 107.079 143.357 108.982 145.094C109.147 145.259 109.147 145.507 109.064 145.673C108.982 145.755 108.816 145.838 108.733 145.838Z" fill="#0D0140" fill-opacity="0.6"/>
<path d="M176.631 95.0603C196.644 95.0603 203.508 105.729 208.387 116.893C213.267 128.058 213.763 129.546 213.763 129.546L229.807 145.755C230.551 146.5 230.551 147.74 229.807 148.485C227.657 150.717 223.191 154.935 219.056 156.341C218.394 156.589 217.65 156.424 217.071 155.928C213.928 152.95 202.681 141.951 199.456 134.839L201.441 151.462L145.287 150.717L147.107 138.395C147.107 138.395 137.183 145.011 119.981 144.267C118.906 144.267 117.914 143.523 117.583 142.447C116.839 139.966 115.598 135.087 116.26 130.704C116.425 129.629 117.252 128.719 118.41 128.554L139.416 125.08C139.416 125.08 147.52 106.721 153.144 101.594C161.414 94.2333 176.631 95.0603 176.631 95.0603Z" fill="#130160"/>
<path d="M147.272 138.809C147.024 138.809 146.858 138.561 146.858 138.312C146.858 138.147 149.587 121.69 152.73 110.194C152.813 109.946 153.061 109.864 153.226 109.864C153.474 109.946 153.557 110.194 153.557 110.36C150.414 121.855 147.768 138.23 147.685 138.395C147.603 138.726 147.437 138.891 147.272 138.809Z" fill="#0D0140" fill-opacity="0.6"/>
<path d="M199.621 135.253C199.373 135.253 199.207 135.087 199.207 134.839C199.207 134.674 197.14 115.983 194.245 108.127C194.163 107.879 194.245 107.631 194.493 107.548C194.742 107.465 194.99 107.548 195.072 107.796C197.967 115.818 200.034 134.591 200.034 134.756C200.034 135.004 199.869 135.17 199.621 135.253Z" fill="#0D0140" fill-opacity="0.6"/>
<path d="M207.312 145.425H137.017V173.791H207.312V145.425Z" fill="white"/>
<path d="M207.312 174.204H137.017C136.769 174.204 136.604 174.039 136.604 173.791V145.425C136.604 145.177 136.769 145.011 137.017 145.011H207.312C207.56 145.011 207.726 145.177 207.726 145.425V173.708C207.726 173.956 207.56 174.122 207.312 174.204ZM137.431 173.377H206.816V145.838H137.431V173.377Z" fill="#0D0140" fill-opacity="0.6"/>
<path d="M149.587 183.88L188.621 178.67C189.862 178.505 191.019 179.414 191.185 180.655L193.004 197.112C193.17 198.353 192.26 199.428 191.019 199.593L152.15 204.472C150.91 204.638 149.752 203.728 149.669 202.488L147.685 186.361C147.519 185.203 148.346 184.045 149.587 183.88Z" fill="#130160"/>
<path d="M151.821 204.969C150.497 204.969 149.34 203.976 149.174 202.57L147.189 186.444C147.024 184.955 148.016 183.632 149.505 183.467L188.539 178.257C189.284 178.174 189.945 178.339 190.524 178.835C191.103 179.249 191.434 179.911 191.517 180.655L193.336 197.029C193.501 198.518 192.426 199.841 191.02 200.007L152.151 204.886C152.069 204.969 151.986 204.969 151.821 204.969ZM188.953 179.166C188.87 179.166 188.787 179.166 188.705 179.166L149.67 184.376C148.678 184.542 148.016 185.451 148.099 186.444L150.084 202.57C150.167 203.563 151.076 204.307 152.069 204.142L190.938 199.262C191.93 199.097 192.674 198.27 192.509 197.278L190.69 180.82C190.69 179.828 189.863 179.084 188.953 179.166Z" fill="#0D0140" fill-opacity="0.6"/>
<path d="M158.188 186.94C157.94 186.94 157.774 186.692 157.774 186.444C158.436 180.324 162.902 164.032 169.187 163.453C171.833 163.205 174.48 166.596 177.209 173.377C178.532 176.685 179.607 179.993 180.434 183.467C180.434 183.715 180.269 183.88 180.103 183.963C179.938 183.963 179.69 183.88 179.607 183.715C178.201 178.174 173.653 163.949 169.187 164.363C163.977 164.859 159.346 179.001 158.601 186.609C158.601 186.775 158.436 186.94 158.188 186.94Z" fill="#0D0140" fill-opacity="0.6"/>
<path d="M169.104 167.423C170.109 167.423 170.923 166.608 170.923 165.603C170.923 164.599 170.109 163.784 169.104 163.784C168.099 163.784 167.285 164.599 167.285 165.603C167.285 166.608 168.099 167.423 169.104 167.423Z" fill="#130160"/>
<path d="M169.104 167.836C167.864 167.836 166.789 166.844 166.789 165.521C166.789 164.198 167.781 163.205 169.104 163.205C170.427 163.205 171.42 164.198 171.42 165.521C171.337 166.844 170.345 167.836 169.104 167.836ZM169.104 164.115C168.277 164.115 167.698 164.776 167.698 165.603C167.698 166.43 168.36 167.009 169.187 167.009C170.014 167.009 170.593 166.348 170.593 165.521C170.51 164.776 169.931 164.115 169.104 164.115Z" fill="#0D0140" fill-opacity="0.6"/>
<path d="M169.104 167.836C167.864 167.836 166.789 166.844 166.789 165.521C166.789 164.198 167.781 163.205 169.104 163.205C170.345 163.205 171.42 164.198 171.42 165.521C171.42 166.844 170.345 167.836 169.104 167.836ZM169.104 164.115C168.277 164.115 167.698 164.776 167.698 165.521C167.698 166.348 168.36 166.927 169.104 166.927C169.931 166.927 170.51 166.265 170.51 165.521C170.51 164.776 169.931 164.115 169.104 164.115Z" fill="#0D0140" fill-opacity="0.6"/>
<path d="M170.345 197.277C173.496 197.277 176.051 194.723 176.051 191.571C176.051 188.42 173.496 185.865 170.345 185.865C167.193 185.865 164.639 188.42 164.639 191.571C164.639 194.723 167.193 197.277 170.345 197.277Z" fill="white"/>
<path d="M170.345 197.774C166.954 197.774 164.143 195.045 164.143 191.571C164.143 188.18 166.872 185.369 170.345 185.369C173.736 185.369 176.548 188.098 176.548 191.571C176.548 195.045 173.736 197.774 170.345 197.774ZM170.345 186.278C167.451 186.278 165.052 188.677 165.052 191.571C165.052 194.466 167.451 196.864 170.345 196.864C173.24 196.864 175.638 194.466 175.638 191.571C175.638 188.677 173.24 186.278 170.345 186.278Z" fill="#0D0140" fill-opacity="0.6"/>
<path d="M169.601 91.5042C169.849 94.316 169.849 97.1278 169.601 99.9396C169.601 99.9396 175.307 101.428 178.615 99.278C178.615 99.278 177.54 93.8198 177.788 90.5945C178.036 87.3692 169.601 91.5042 169.601 91.5042Z" fill="#FFB4A3"/>
<path d="M173.818 100.932C172.329 100.932 170.923 100.767 169.517 100.353C169.352 100.27 169.187 100.105 169.187 99.8569C169.435 97.0451 169.435 94.2333 169.187 91.5042C169.187 91.3388 169.269 91.1734 169.435 91.0907C170.51 90.5945 175.885 88.0308 177.622 89.2713C178.035 89.6021 178.284 90.0983 178.201 90.6772C177.87 93.8198 178.945 99.1953 178.945 99.278C178.945 99.4434 178.945 99.6088 178.78 99.6915C177.291 100.601 175.554 101.015 173.818 100.932ZM170.096 99.6088C171.337 99.8569 175.472 100.601 178.118 99.1126C177.87 97.9548 177.126 93.4063 177.374 90.5945C177.457 90.2637 177.291 90.0983 177.208 90.0156C176.216 89.354 172.412 90.6772 170.096 91.835C170.262 94.3987 170.262 97.0451 170.096 99.6088Z" fill="#0D0140" fill-opacity="0.6"/>
<path d="M168.939 59.7474C163.646 58.9204 159.677 62.4765 159.346 65.8672C159.346 65.8672 155.872 68.3482 155.79 70.8292C155.707 73.3102 151.158 76.122 155.872 80.9186C160.586 85.7152 186.968 79.9262 186.968 79.9262C186.968 79.9262 189.035 73.8891 186.885 71.6562C186.885 71.6562 185.975 65.371 181.923 64.2959C177.871 63.2208 178.367 56.7702 168.939 59.7474Z" fill="#C14834"/>
<path d="M184.321 78.603C184.321 78.603 185.562 75.8739 187.96 77.1144C190.441 78.3549 189.118 87.0384 184.073 84.6401C184.073 84.6401 183.246 92.9928 173.322 94.3987C163.398 95.8046 160.338 85.0536 160.338 85.0536C160.338 85.0536 157.526 86.7903 156.038 85.0536C154.549 83.3169 154.797 77.9414 159.677 80.257L160.173 81.6629C161.083 80.1743 161.579 78.4376 161.661 76.6182C161.661 76.6182 162.902 75.6258 164.142 72.4832C164.142 72.4832 167.037 72.7313 170.758 67.9347C170.758 67.9347 173.984 73.1448 182.585 74.2199C182.667 74.1372 183.742 79.43 184.321 78.603Z" fill="#FFB4A3"/>
<path d="M180.517 74.9642C179.607 74.9642 178.697 74.9642 177.788 75.0469C177.374 75.0469 176.878 75.1296 176.465 75.1296C176.051 75.1296 175.555 75.295 175.059 75.295C174.893 75.295 174.811 75.2123 174.811 75.0469C174.811 74.9642 174.811 74.8815 174.893 74.8815C175.224 74.5507 175.72 74.2199 176.216 74.0545C176.713 73.8891 177.209 73.7237 177.705 73.7237C178.201 73.7237 178.697 73.7237 179.194 73.8891C179.69 73.9718 180.186 74.2199 180.6 74.5507C180.682 74.6334 180.765 74.7988 180.682 74.8815C180.682 74.9642 180.6 74.9642 180.517 74.9642Z" fill="#0D0140" fill-opacity="0.6"/>
<path d="M165.052 75.4604C165.465 75.1296 165.879 74.7988 166.375 74.6334C166.871 74.468 167.368 74.3026 167.864 74.3026C168.36 74.2199 168.939 74.3026 169.435 74.3853C169.931 74.468 170.427 74.7161 170.841 75.0469C170.924 75.1296 170.924 75.295 170.841 75.3777C170.758 75.4604 170.758 75.4604 170.676 75.4604C170.179 75.4604 169.766 75.4604 169.27 75.4604C168.773 75.4604 168.36 75.4604 167.946 75.5431C167.037 75.5431 166.21 75.7085 165.217 75.7912C165.052 75.7912 164.969 75.7085 164.969 75.5431L165.052 75.4604Z" fill="#0D0140" fill-opacity="0.6"/>
<path d="M176.134 85.0536C174.976 85.0536 173.984 84.3093 173.736 83.1515C173.653 82.9034 173.736 82.6553 173.984 82.5726C174.232 82.4899 174.48 82.5726 174.563 82.8207C174.563 82.9034 174.563 82.9034 174.563 82.9861C174.728 83.7304 175.472 84.2266 176.217 84.1439C176.713 84.1439 177.126 83.7304 177.126 83.1515V83.0688C177.126 82.8207 177.044 82.5726 176.878 82.4072C176.299 82.0764 175.638 81.9937 174.976 82.0764C174.728 82.0764 174.563 81.9937 174.48 81.7456C174.314 80.9186 174.149 80.0916 174.066 79.2646C174.066 79.0165 174.232 78.8511 174.397 78.7684C174.645 78.7684 174.811 78.9338 174.893 79.0992C174.976 80.0089 175.141 80.6705 175.224 81.084C175.968 81.0013 176.795 81.1667 177.374 81.6629C177.788 81.9937 177.953 82.4899 177.953 82.9861C178.036 83.9785 177.292 84.8055 176.299 84.8882L176.134 85.0536Z" fill="#0D0140" fill-opacity="0.6"/>
<path d="M174.397 78.6857C174.149 78.6857 173.984 78.5203 173.984 78.2722C173.901 77.6933 173.901 77.1144 173.901 76.4528C173.901 76.2047 174.066 76.0393 174.314 76.0393C174.562 76.0393 174.728 76.2047 174.728 76.4528C174.728 77.1144 174.811 77.6933 174.811 78.1895C174.811 78.4376 174.645 78.603 174.397 78.6857Z" fill="#0D0140" fill-opacity="0.6"/>
<path d="M177.457 79.0165C177.291 79.8435 177.705 80.6705 178.284 80.7532C178.863 80.8359 179.441 80.1743 179.607 79.3473C179.69 79.0992 179.69 78.8511 179.607 78.603L178.449 79.0165L179.111 77.8587C179.028 77.776 178.863 77.6933 178.697 77.6933C178.201 77.5279 177.622 78.1895 177.457 79.0165Z" fill="#0D0140" fill-opacity="0.6"/>
<path d="M167.037 79.3473C166.872 80.257 167.285 81.0013 167.864 81.084C168.443 81.1667 169.022 80.5051 169.187 79.6781C169.27 79.43 169.27 79.1819 169.187 78.9338L168.03 79.3473L168.691 78.1068C168.609 78.0241 168.443 77.9414 168.278 77.9414C167.782 77.8587 167.12 78.5203 167.037 79.3473Z" fill="#0D0140" fill-opacity="0.6"/>
<path d="M171.916 78.7684C171.668 78.6857 171.585 78.4376 171.585 78.2722C171.585 78.1068 171.751 78.0241 171.916 77.9414L176.382 77.8587C176.63 77.8587 176.796 78.0241 176.796 78.2722C176.796 78.5203 176.63 78.6857 176.382 78.6857L171.916 78.7684Z" fill="#0D0140" fill-opacity="0.6"/>
<path d="M166.707 83.8131C164.308 83.8131 164.143 80.7532 164.143 79.43V79.3473C164.06 78.1068 164.06 76.8663 166.128 76.5355C167.451 76.3701 170.015 76.2874 171.007 76.2047C171.586 76.2047 172.082 76.6182 172.165 77.1971C172.33 78.5203 172.33 79.8435 172.165 81.1667C171.751 83.0688 169.022 83.8131 166.707 83.8131ZM171.007 77.1144C170.015 77.1144 167.451 77.1971 166.21 77.3625C164.97 77.5279 164.887 78.0241 164.97 79.1819V79.43C165.053 81.2494 165.301 82.9861 166.624 82.9861C168.691 82.9861 171.007 82.2418 171.255 81.084C171.421 79.8435 171.421 78.603 171.255 77.3625C171.255 77.1971 171.09 77.0317 171.007 77.1144Z" fill="#0D0140" fill-opacity="0.6"/>
<path d="M177.54 83.565C177.291 83.4823 177.209 83.2342 177.209 83.0688C177.209 82.9034 177.374 82.8207 177.54 82.738C179.359 82.6553 181.096 82.2418 181.344 81.911C181.592 81.5802 181.427 80.3397 181.178 77.5279C181.178 77.2798 180.93 77.0317 180.599 77.0317L176.216 77.3625C176.134 77.3625 176.051 77.4452 176.051 77.4452C175.968 77.5279 175.968 77.6106 175.968 77.6106L176.299 81.5802C176.299 81.8283 176.134 81.9937 175.968 82.0764C175.72 82.0764 175.555 81.911 175.472 81.6629L175.059 77.6933C175.059 77.3625 175.141 77.1144 175.307 76.8663C175.472 76.6182 175.803 76.4528 176.051 76.4528L180.351 76.122C181.096 76.0393 181.757 76.6182 181.84 77.3625C182.336 81.4148 182.005 81.9937 181.923 82.1591C181.757 83.2342 179.111 83.4823 177.54 83.565Z" fill="#0D0140" fill-opacity="0.6"/>
<path d="M174.231 87.6173C171.006 87.4519 169.931 85.7979 169.848 85.7979C169.766 85.6325 169.766 85.3017 170.014 85.219C170.179 85.1363 170.427 85.1363 170.593 85.3017C170.593 85.3844 171.585 86.6249 174.314 86.7903C174.562 86.873 174.645 87.1211 174.645 87.2865C174.562 87.4519 174.479 87.5346 174.231 87.6173Z" fill="#0D0140" fill-opacity="0.6"/>
<path d="M159.098 81.4148C157.775 80.3397 156.617 81.0013 156.286 82.3245L159.098 81.4148Z" fill="white"/>
<path d="M156.286 82.8207H156.203C155.955 82.738 155.789 82.5726 155.872 82.3245C155.955 81.5802 156.451 81.0013 157.195 80.6705C157.94 80.4224 158.767 80.6705 159.345 81.1667C159.511 81.3321 159.594 81.5802 159.428 81.7456C159.263 81.911 159.015 81.9937 158.849 81.8283C158.519 81.4975 157.94 81.3321 157.526 81.4148C157.113 81.5802 156.865 81.9937 156.782 82.4072C156.616 82.6553 156.451 82.8207 156.286 82.8207Z" fill="#0D0140" fill-opacity="0.6"/>
<path d="M157.941 83.9785C156.7 83.3169 157.114 81.084 157.114 81.084L157.941 83.9785Z" fill="white"/>
<path d="M157.94 84.392C157.858 84.392 157.775 84.392 157.775 84.3093C156.204 83.565 156.617 81.084 156.617 81.0013C156.7 80.7532 156.865 80.5878 157.113 80.6705C157.361 80.6705 157.527 80.9186 157.444 81.1667C157.444 81.1667 157.113 83.0688 158.106 83.565C158.354 83.6477 158.436 83.8958 158.271 84.1439C158.271 84.3093 158.106 84.392 157.94 84.392Z" fill="#0D0140" fill-opacity="0.6"/>
<path d="M185.148 79.8435C185.396 78.8511 186.471 78.2722 187.381 78.603C187.794 78.6857 188.042 78.9338 188.291 79.2646" fill="white"/>
<path d="M185.148 80.257C185.065 80.257 185.065 80.257 184.982 80.257C184.734 80.1743 184.651 79.9262 184.734 79.6781C185.065 78.7684 185.809 78.1895 186.719 78.1068C187.463 78.0241 188.208 78.3549 188.704 79.0165C188.869 79.1819 188.786 79.5127 188.621 79.5954C188.456 79.6781 188.125 79.6781 188.042 79.43C187.794 79.0992 187.298 78.8511 186.884 78.9338C186.305 79.0165 185.809 79.43 185.644 80.0089C185.478 80.1743 185.313 80.257 185.148 80.257Z" fill="#0D0140" fill-opacity="0.6"/>
<path d="M186.224 83.2342C187.63 82.8207 187.96 80.0089 187.133 78.5203L186.224 83.2342Z" fill="white"/>
<path d="M186.224 83.6477C186.058 83.6477 185.893 83.4823 185.81 83.3169C185.727 83.0688 185.893 82.8207 186.141 82.8207C186.472 82.6553 186.802 82.4072 186.885 81.9937C187.299 80.9186 187.216 79.7608 186.802 78.7684C186.72 78.603 186.72 78.2722 186.968 78.1895C187.133 78.1068 187.464 78.1068 187.547 78.3549C188.126 79.5954 188.208 81.084 187.712 82.3245C187.464 82.9861 187.051 83.4823 186.389 83.6477H186.224Z" fill="#0D0140" fill-opacity="0.6"/>
<path d="M117.169 182.061L79.8716 173.791L85.9914 155.349L123.868 164.363L117.169 182.061Z" fill="white"/>
<path d="M117.169 182.474H117.086L79.7886 174.204C79.7059 174.204 79.5405 174.121 79.5405 174.039C79.4578 173.956 79.4578 173.791 79.5405 173.708L85.6603 155.183C85.743 154.935 85.9911 154.852 86.1565 154.935L124.033 163.949C124.116 163.949 124.281 164.032 124.281 164.197C124.364 164.28 124.364 164.446 124.281 164.528L117.583 182.226C117.5 182.391 117.334 182.474 117.169 182.474ZM80.3675 173.543L116.838 181.647L123.206 164.694L86.1565 155.927L80.3675 173.543Z" fill="#0D0140" fill-opacity="0.6"/>
<path d="M91.5321 185.782C91.5321 180.489 91.0359 176.685 91.5321 174.618C92.0283 172.55 93.2688 170.565 94.592 170.235C95.9152 169.904 96.246 177.347 96.246 177.347L109.147 180.489C109.147 180.489 107.493 185.782 104.02 188.759L91.5321 185.782Z" fill="#FFB4A3"/>
<path d="M104.103 189.173H104.02L91.4496 186.196C91.2842 186.113 91.1188 185.948 91.1188 185.782C91.1188 183.797 91.0361 182.061 90.9534 180.489C90.8707 177.926 90.788 175.858 91.1188 174.535C91.615 172.55 92.9382 170.235 94.5095 169.904C94.7576 169.821 95.0057 169.904 95.1711 170.069C96.2462 170.896 96.577 175.279 96.7424 177.099L109.313 180.159C109.395 180.159 109.478 180.241 109.561 180.324C109.644 180.407 109.644 180.572 109.644 180.655C109.561 180.903 107.907 186.113 104.433 189.09C104.268 189.09 104.185 189.173 104.103 189.173ZM91.9458 185.369L103.937 188.18C106.584 185.782 108.155 181.978 108.568 180.737L96.0808 177.678C95.9154 177.595 95.75 177.429 95.75 177.264C95.5846 173.873 95.0057 170.813 94.5095 170.565C93.5171 170.813 92.3593 172.55 91.8631 174.618C91.615 176.52 91.5323 178.422 91.7804 180.324C91.8631 181.895 91.9458 183.549 91.9458 185.369Z" fill="#0D0140" fill-opacity="0.6"/>
<path d="M101.456 173.625C104.653 173.625 107.245 171.367 107.245 168.581C107.245 165.795 104.653 163.536 101.456 163.536C98.2588 163.536 95.667 165.795 95.667 168.581C95.667 171.367 98.2588 173.625 101.456 173.625Z" fill="white"/>
<path d="M101.456 174.039C98.0652 174.039 95.2534 171.558 95.2534 168.581C95.2534 165.603 98.0652 163.122 101.456 163.122C104.847 163.122 107.658 165.603 107.658 168.581C107.658 171.558 104.847 174.039 101.456 174.039ZM101.456 164.032C98.4787 164.032 96.1631 166.1 96.1631 168.663C96.1631 171.227 98.5614 173.294 101.456 173.294C104.35 173.294 106.749 171.227 106.749 168.663C106.749 166.1 104.433 164.032 101.456 164.032Z" fill="#0D0140" fill-opacity="0.6"/>
<path d="M110.552 164.28L118.326 166.265C118.078 167.009 118.492 167.754 119.153 168.002H119.236L116.01 177.43C115.349 177.264 114.687 177.595 114.439 178.257L106.5 176.354" fill="white"/>
<path d="M114.44 178.753H114.357L106.418 176.851C106.17 176.768 106.087 176.602 106.087 176.354C106.17 176.106 106.335 176.024 106.583 176.024L114.192 177.843C114.522 177.347 115.101 177.016 115.763 177.016L118.74 168.332C118.409 168.167 118.244 167.919 118.078 167.588C117.913 167.257 117.83 166.927 117.913 166.596L110.553 164.694C110.305 164.611 110.222 164.363 110.222 164.197C110.305 163.949 110.553 163.867 110.718 163.867L118.492 165.851C118.575 165.851 118.74 165.934 118.74 166.1C118.823 166.182 118.823 166.348 118.74 166.43C118.657 166.678 118.657 166.927 118.823 167.175C118.905 167.423 119.154 167.588 119.402 167.671C119.484 167.671 119.65 167.754 119.65 167.919C119.732 168.002 119.732 168.167 119.65 168.25L116.424 177.678C116.342 177.926 116.176 178.008 115.928 177.926C115.432 177.843 115.019 178.091 114.853 178.505C114.688 178.67 114.522 178.753 114.44 178.753Z" fill="#0D0140" fill-opacity="0.6"/>
<path d="M89.8779 172.468L85.4948 171.723C85.7429 170.979 85.3294 170.235 84.6678 169.987C84.5851 169.987 84.5024 169.987 84.5024 169.904L87.7277 160.228C88.3893 160.393 89.1336 160.063 89.3817 159.318L95.7496 161.138" fill="white"/>
<path d="M89.8784 172.881L85.4126 172.137C85.3299 172.137 85.1645 172.054 85.0818 171.971C84.9991 171.889 84.9991 171.723 84.9991 171.641C85.0818 171.392 85.0818 171.062 84.9164 170.896C84.751 170.648 84.5029 170.483 84.2548 170.483C84.0894 170.483 84.0067 170.4 83.924 170.317C83.8413 170.235 83.8413 170.069 83.8413 169.987L87.0666 160.311C87.1493 160.063 87.3974 159.98 87.5628 160.063C88.059 160.228 88.5552 159.897 88.7206 159.484C88.8033 159.236 89.0514 159.153 89.2168 159.236L95.5847 161.055C95.8328 161.138 95.9155 161.386 95.9155 161.551C95.8328 161.799 95.5847 161.882 95.4193 161.882L89.3822 160.145C89.0514 160.724 88.4725 160.972 87.8109 160.972L84.8337 169.904C85.4953 170.235 85.8261 170.896 85.8261 171.558L89.7957 172.219C90.0438 172.302 90.1265 172.55 90.0438 172.798C90.1265 172.716 90.0438 172.798 89.8784 172.881Z" fill="#0D0140" fill-opacity="0.6"/>
<path d="M104.103 187.932C104.103 187.932 106.832 188.429 106.419 191.737C106.005 195.045 101.953 218.945 81.195 236.808C86.5705 252.521 89.9612 268.813 91.2844 285.353C91.2844 285.353 62.4221 294.533 32.0712 291.059L31.4096 288.247C31.4096 288.247 20.1624 287.917 17.0198 281.135C13.8772 274.354 21.5683 242.597 28.7632 234.079C35.9581 225.561 60.7681 219.855 67.5495 214.479C74.3309 209.104 83.676 196.285 85.2473 192.729C86.8186 189.173 89.3823 184.459 91.6152 184.955L104.103 187.932Z" fill="#130160"/>
<path d="M80.0365 235.402C79.8711 235.402 79.7057 235.319 79.623 235.154C79.5403 235.071 74.8264 226.14 70.0298 222.749C69.8644 222.584 69.7817 222.336 69.9471 222.17C70.1125 222.005 70.3606 221.922 70.526 222.087C75.488 225.644 80.2019 234.492 80.3673 234.823C80.45 234.989 80.3673 235.319 80.2019 235.402C80.1192 235.319 80.0365 235.402 80.0365 235.402Z" fill="#0D0140" fill-opacity="0.6"/>
<path d="M33.4766 288.744C33.2285 288.661 33.1458 288.413 33.1458 288.247C33.1458 288.082 33.3112 287.999 33.4766 287.917C48.9415 287.172 66.2258 281.962 68.6241 281.218C68.7068 275.925 67.3009 268.317 65.7296 264.761C62.8351 265.422 41.8293 270.136 28.9281 269.64C28.68 269.64 28.5146 269.392 28.5146 269.226C28.5146 268.978 28.68 268.813 28.9281 268.813C42.5736 269.309 65.5642 263.934 65.8123 263.934C65.9777 263.851 66.2258 264.016 66.3085 264.182C68.0452 267.738 69.5338 276.091 69.4511 281.714C69.4511 281.88 69.3684 282.045 69.1203 282.128C69.0376 281.962 50.2647 287.999 33.4766 288.744Z" fill="#0D0140" fill-opacity="0.6"/>
<path d="M31.4915 269.557C31.2434 269.557 31.078 269.392 31.078 269.144C31.078 269.061 29.7548 257.235 29.3413 246.071C29.3413 245.822 29.5067 245.574 29.7548 245.574C29.7548 245.574 29.7548 245.574 29.8375 245.574C30.0856 245.574 30.251 245.74 30.251 245.905C30.251 245.905 30.251 245.905 30.251 245.988C30.6645 257.152 31.9877 268.896 31.9877 268.978C31.9877 269.227 31.8223 269.392 31.5742 269.475L31.4915 269.557Z" fill="#0D0140" fill-opacity="0.6"/>
<path d="M84.7496 279.316C84.0053 279.895 76.0661 279.481 72.51 278.985C72.1792 278.572 72.0965 277.993 72.1792 277.497C72.51 276.752 83.7572 253.265 84.7496 252.686C85.742 252.108 96.5757 252.025 96.5757 252.025C96.9065 252.521 85.6593 278.654 84.7496 279.316Z" fill="white"/>
<path d="M81.6078 280.06C78.5479 280.06 75.488 279.812 72.4281 279.481C72.3454 279.481 72.2627 279.399 72.18 279.316C71.7665 278.737 71.6011 278.075 71.7665 277.414C71.8492 277.166 83.3445 253.1 84.5023 252.438C85.4947 251.942 94.6744 251.777 96.4938 251.777C96.5765 251.777 96.7419 251.859 96.8246 251.942C96.9073 252.025 96.99 252.19 96.99 252.356C96.9073 253.513 86.3217 278.82 84.9985 279.812C84.6677 279.895 83.3445 280.06 81.6078 280.06ZM72.7589 278.654C76.7285 279.15 83.6753 279.399 84.5023 278.985C85.4947 277.745 95.0052 255.994 96.0803 252.604C91.6972 252.686 85.6601 252.852 84.9985 253.183C84.0061 254.092 73.2551 276.339 72.5935 277.745C72.5108 277.993 72.5935 278.406 72.7589 278.654Z" fill="#0D0140" fill-opacity="0.6"/>
<path d="M96.4939 252.108C96.4939 252.108 85.6602 252.19 84.6678 252.769C83.6754 253.348 72.4282 276.835 72.0974 277.579C71.932 278.075 72.0974 278.654 72.4282 279.068C71.8493 279.068 71.2704 278.902 70.7742 278.654C70.278 277.993 70.7742 276.256 70.7742 276.256L77.721 260.378C77.721 260.378 82.5176 251.694 83.2619 251.611C84.0062 251.529 96.0804 251.694 96.4939 252.108Z" fill="#0D0140" fill-opacity="0.6"/>
<path d="M72.5112 279.481C70.8572 279.233 70.6091 279.068 70.4437 278.902C69.8648 278.158 70.2783 276.504 70.361 276.173L77.3905 260.212C80.6158 254.34 82.6006 251.281 83.2622 251.198C83.3449 251.198 96.1634 251.198 96.825 251.859C96.9904 252.025 96.9904 252.273 96.825 252.438C96.7423 252.521 96.6596 252.521 96.5769 252.521C92.1111 252.521 85.6605 252.769 84.9989 253.1C84.0065 254.01 73.2555 276.256 72.5939 277.662C72.4285 278.158 72.842 278.737 72.842 278.737C72.9247 278.902 72.9247 279.068 72.842 279.233C72.7593 279.399 72.5939 279.481 72.5112 279.481ZM71.1053 278.323C71.1053 278.323 71.2707 278.406 71.6842 278.489C71.6015 278.158 71.6015 277.745 71.6842 277.331C71.7669 277.083 83.2622 253.017 84.42 252.356C85.3297 252.108 86.3221 251.942 87.2318 251.942C85.247 251.942 83.593 251.859 83.2622 251.942C82.766 252.273 80.2023 256.573 78.0521 260.543L71.1053 276.421C70.9399 277.083 70.9399 277.745 71.1053 278.323Z" fill="#0D0140" fill-opacity="0.6"/>
<path d="M67.6318 268.317C69.5339 267.407 71.1879 264.347 72.5111 262.859C73.8343 261.37 77.7212 260.378 77.7212 260.378L75.2402 265.174C76.9769 265.009 78.6309 264.513 80.2022 263.934C83.5102 262.693 88.0587 259.799 89.2992 260.212C90.5397 260.626 90.1262 262.197 88.2241 263.851C88.2241 263.851 89.7127 265.753 87.5625 267.903C87.6452 269.144 87.0663 270.384 85.9912 271.046C85.7431 272.783 84.7507 274.271 83.1794 275.098C80.533 276.504 78.7963 277.496 75.571 277.662C73.3381 277.745 71.1052 277.579 68.955 277.248C68.955 274.106 68.4588 271.129 67.6318 268.317Z" fill="#FFB4A3"/>
<path d="M74.4956 277.993C72.6762 277.993 70.8568 277.827 69.0374 277.496C68.872 277.496 68.7066 277.331 68.7066 277.083C68.5412 274.106 68.045 271.211 67.218 268.399C67.1353 268.234 67.218 267.986 67.4661 267.903C68.7066 267.324 69.8644 265.67 70.9395 264.264C71.4357 263.603 71.8492 263.024 72.2627 262.61C73.6686 261.039 77.5555 260.047 77.7209 260.047C77.8863 260.047 78.0517 260.047 78.1344 260.212C78.2171 260.378 78.2171 260.543 78.1344 260.708L76.0669 264.761C77.4728 264.513 78.796 264.099 80.1192 263.603C81.5251 263.024 82.931 262.445 84.2542 261.701C86.9006 260.378 88.6373 259.551 89.547 259.881C90.0432 260.047 90.374 260.378 90.5394 260.874C90.7048 261.701 90.1259 262.859 88.8854 263.934C89.6297 265.34 89.2989 267.076 88.1411 268.069C88.1411 269.309 87.5622 270.55 86.5698 271.294C86.239 273.113 85.1639 274.602 83.5099 275.429L83.0137 275.677C80.6154 276.918 78.8787 277.827 75.7361 278.075C75.3226 277.91 74.9091 277.993 74.4956 277.993ZM69.5336 276.752C71.6011 277.083 73.6686 277.166 75.7361 277.083C78.6306 276.918 80.2846 276.008 82.6002 274.85L83.0964 274.602C84.5023 273.858 85.4947 272.534 85.6601 270.88C85.6601 270.715 85.7428 270.632 85.8255 270.55C86.7352 269.971 87.3141 268.896 87.2314 267.821C87.2314 267.655 87.2314 267.572 87.3141 267.49C89.2162 265.588 87.9757 264.099 87.9757 264.016C87.8103 263.851 87.893 263.603 88.0584 263.437C89.2989 262.362 89.7951 261.453 89.7124 260.956C89.7124 260.874 89.6297 260.626 89.2989 260.543C88.72 260.378 86.4871 261.453 84.6677 262.362C83.2618 263.107 81.8559 263.768 80.3673 264.264C78.7133 264.926 76.9766 265.34 75.2399 265.588C75.0745 265.588 74.9091 265.505 74.8264 265.422C74.7437 265.257 74.7437 265.091 74.8264 265.009L76.8112 261.122C75.6534 261.535 73.5859 262.28 72.7589 263.189C72.3454 263.603 71.9319 264.182 71.5184 264.843C70.526 266.249 69.3682 267.821 68.045 268.565C68.9547 271.211 69.3682 273.94 69.5336 276.752Z" fill="#0D0140" fill-opacity="0.6"/>
<path d="M81.1119 267.821C80.8638 267.821 80.6984 267.738 80.6157 267.49C80.6157 267.242 80.6984 267.076 80.9465 266.994L81.1119 266.911C84.3372 265.588 87.0663 264.43 88.0587 263.355C88.2241 263.189 88.4722 263.189 88.6376 263.355C88.803 263.52 88.803 263.768 88.6376 263.934C87.4798 265.091 84.8334 266.249 81.36 267.655L81.1946 267.738C81.1946 267.821 81.1119 267.821 81.1119 267.821Z" fill="#0D0140" fill-opacity="0.6"/>
<path d="M80.0365 272.286C79.7884 272.286 79.623 272.038 79.623 271.873C79.623 271.707 79.7057 271.542 79.8711 271.459C82.6002 270.55 85.1639 269.226 87.3968 267.49C87.5622 267.324 87.8103 267.324 87.9757 267.572C88.1411 267.738 88.1411 267.986 87.893 268.151C85.5774 269.971 82.931 271.377 80.1192 272.286H80.0365Z" fill="#0D0140" fill-opacity="0.6"/>
<path d="M79.5405 274.602C79.2924 274.602 79.127 274.354 79.127 274.106C79.127 273.94 79.2097 273.775 79.3751 273.775C81.6907 273.031 83.8409 271.956 85.8257 270.55C85.9911 270.384 86.3219 270.467 86.4046 270.632C86.57 270.798 86.4873 271.046 86.3219 271.211C84.2544 272.7 82.0215 273.775 79.6232 274.519L79.5405 274.602Z" fill="#0D0140" fill-opacity="0.6"/>
<path d="M32.8149 196.12C32.1533 200.916 29.4242 212.825 29.4242 212.825C28.0183 214.066 26.2816 214.975 24.3795 215.306C22.6428 215.637 20.9061 215.389 19.3348 214.644C13.7939 212.081 9.57618 200.916 17.6808 191.819C23.8833 184.955 29.755 188.18 31.9879 192.233C32.6495 193.473 32.9803 194.796 32.8149 196.12Z" fill="#C14834"/>
<path d="M32.8149 196.12C32.1533 200.916 29.4242 212.825 29.4242 212.825C28.0183 214.066 26.2816 214.975 24.3795 215.306C21.8985 207.615 24.3795 196.285 31.9879 192.233C32.6495 193.473 32.9803 194.797 32.8149 196.12Z" fill="#130160"/>
<path d="M24.3795 215.802C24.2141 215.802 24.0487 215.72 23.966 215.472C21.4023 207.698 23.966 196.037 31.7398 191.902C31.9879 191.819 32.236 191.902 32.3187 192.067C33.063 193.308 33.3938 194.714 33.2284 196.12C32.5668 200.916 29.8377 212.742 29.8377 212.908C29.8377 212.991 29.755 213.073 29.6723 213.073C28.2664 214.479 26.447 215.389 24.3795 215.802ZM31.8225 192.894C24.8757 196.947 22.5601 207.532 24.7103 214.893C26.3643 214.479 27.8529 213.735 29.0934 212.66C29.4242 211.337 31.8225 200.586 32.4014 196.12C32.4841 195.045 32.3187 193.887 31.8225 192.894Z" fill="#0D0140" fill-opacity="0.6"/>
<path d="M45.2198 223.824C23.4697 228.125 25.3718 209.6 28.0182 200.751C30.6646 191.902 41.8291 188.429 41.8291 188.429C43.235 185.121 48.0316 183.218 53.0763 187.767C56.0535 190.579 57.9557 194.383 58.2865 198.435L45.2198 223.824Z" fill="#C14834"/>
<path d="M40.3408 217.043C41.4159 222.336 42.2429 228.538 42.2429 228.538C42.2429 228.538 44.8066 233.087 50.0167 232.177C55.2268 231.267 54.2344 226.884 53.9863 225.974C53.7382 225.065 52.2496 222.336 51.8361 221.426C51.4226 220.516 40.3408 217.043 40.3408 217.043Z" fill="#FFB4A3"/>
<path d="M48.6109 232.756C44.0624 232.756 41.8295 228.786 41.8295 228.703C41.8295 228.621 41.7468 228.621 41.7468 228.538C41.7468 228.455 40.9198 222.253 39.8447 217.043C39.8447 216.877 39.8447 216.712 40.0101 216.629C40.0928 216.547 40.2582 216.464 40.4236 216.547C44.6413 217.87 51.8362 220.185 52.2497 221.178C52.4151 221.509 52.7459 222.17 53.0767 222.914C53.5729 223.824 53.9864 224.817 54.3999 225.809C54.8961 227.298 54.648 228.952 53.9037 230.275C52.994 231.515 51.5881 232.342 50.0168 232.508C49.6033 232.756 49.1071 232.756 48.6109 232.756ZM42.5738 228.455C44.0624 230.936 46.9569 232.342 49.8514 231.846C51.1746 231.763 52.4151 231.019 53.1594 229.944C53.7383 228.786 53.9037 227.38 53.4902 226.14C53.1594 225.23 52.7459 224.32 52.2497 223.411C51.9189 222.666 51.5881 222.005 51.4227 221.591C51.0092 221.095 45.7991 219.193 40.8371 217.622C41.8295 222.418 42.4911 227.711 42.5738 228.455Z" fill="#0D0140" fill-opacity="0.6"/>
<path d="M54.069 193.969C54.069 193.969 65.1508 203.645 63.166 211.336C61.1812 219.028 48.28 225.313 40.0927 219.358C40.0927 219.358 39.2657 223.576 35.4615 221.839C31.6573 220.103 32.4843 215.306 36.702 214.893C36.702 214.893 36.0404 210.923 40.9197 205.299C43.8142 202.074 45.799 198.187 46.7087 194.052C46.7087 193.969 49.0243 195.541 54.069 193.969Z" fill="#FFB4A3"/>
<path d="M46.4606 206.126L45.4682 206.788C45.1374 206.953 44.8066 207.201 44.4758 207.367C43.8142 207.78 43.2353 208.277 42.491 208.69C42.3256 208.855 41.9948 208.773 41.9121 208.525C41.8294 208.359 41.8294 208.277 41.9121 208.111C42.3256 207.284 42.9045 206.54 43.7315 206.126C44.145 205.878 44.5585 205.713 44.972 205.547C45.3855 205.382 45.8817 205.299 46.3779 205.382C46.626 205.382 46.7914 205.547 46.8741 205.713C46.8741 205.878 46.7914 206.126 46.626 206.209L46.4606 206.126Z" fill="#0D0140" fill-opacity="0.6"/>
<path d="M55.9706 198.27L53.9031 200.007C53.2415 200.585 52.4972 201.164 51.7529 201.743C51.5875 201.909 51.2567 201.826 51.0913 201.661C51.0086 201.495 51.0086 201.33 51.0913 201.247C51.5048 200.337 52.1664 199.593 52.9107 198.931C53.3242 198.601 53.7377 198.353 54.1512 198.104C54.5647 197.856 55.0609 197.691 55.5571 197.526C55.8052 197.443 56.0533 197.608 56.0533 197.856C56.136 197.939 56.0533 198.104 55.9706 198.27Z" fill="#0D0140" fill-opacity="0.6"/>
<path d="M55.2266 208.69C54.4823 208.69 53.738 208.359 53.3245 207.698C53.2418 207.45 53.3245 207.201 53.4899 207.119C53.6553 207.036 53.9034 207.036 54.0688 207.284C54.4823 207.863 55.3093 208.029 55.9709 207.698C56.4671 207.532 56.6325 206.953 56.4671 206.457V206.374C56.3844 206.126 56.219 205.961 55.9709 205.878C55.3093 205.796 54.7304 205.961 54.1515 206.292C53.9861 206.374 53.738 206.375 53.5726 206.209C52.5802 204.803 51.6705 203.232 51.0089 201.661C50.9262 201.495 50.9262 201.164 51.1743 201.082C51.3397 200.999 51.6705 200.999 51.7532 201.247V201.33C52.4148 202.736 53.1591 204.142 54.0688 205.465C54.7304 205.134 55.4747 204.969 56.219 205.134C56.7152 205.299 57.046 205.63 57.2114 206.126C57.6249 206.953 57.2941 208.028 56.3844 208.442C56.0536 208.607 55.6401 208.69 55.2266 208.69Z" fill="#0D0140" fill-opacity="0.6"/>
<path d="M45.7988 210.179C46.3777 210.84 47.122 211.088 47.6182 210.675C48.1144 210.261 48.0317 209.434 47.4528 208.773C47.2874 208.607 47.122 208.442 46.8739 208.277L46.4604 209.352L46.0469 208.028C45.8815 208.028 45.7988 208.111 45.6334 208.194C45.2199 208.938 45.3026 209.765 45.7988 210.179Z" fill="#0D0140" fill-opacity="0.6"/>
<path d="M54.896 202.818C55.4749 203.48 56.2192 203.728 56.7154 203.315C57.2116 202.901 57.1289 202.074 56.55 201.412C56.3846 201.247 56.2192 201.082 55.9711 200.916L55.5576 201.991L55.1441 200.668C54.9787 200.668 54.896 200.751 54.7306 200.834C54.3171 201.33 54.3998 202.157 54.896 202.818Z" fill="#0D0140" fill-opacity="0.6"/>
<path d="M54.1519 214.396C53.4903 214.396 52.8287 214.148 52.3325 213.652C52.1671 213.487 52.0844 213.239 52.2498 213.073C52.4152 212.908 52.6633 212.825 52.8287 212.991C53.3249 213.404 53.9865 213.569 54.6481 213.404C55.3924 213.073 55.9713 212.329 56.054 211.502C56.1367 211.254 56.3021 211.171 56.5502 211.171C56.7983 211.254 56.881 211.502 56.881 211.667C56.7156 212.825 55.9713 213.735 54.8962 214.148C54.6481 214.314 54.4 214.396 54.1519 214.396Z" fill="#0D0140" fill-opacity="0.6"/>
<path d="M34.717 219.937C34.5516 219.937 34.3862 219.772 34.3035 219.606C34.0554 218.945 34.2208 218.201 34.5516 217.622C35.0478 216.96 35.8748 216.464 36.7018 216.298C36.9499 216.298 37.1153 216.464 37.198 216.629C37.198 216.877 37.1153 217.043 36.8672 217.125C36.2883 217.208 35.7094 217.539 35.2959 218.035C35.0478 218.449 34.9651 218.945 35.1305 219.358C35.2132 219.606 35.0478 219.855 34.7997 219.855L34.717 219.937Z" fill="#0D0140" fill-opacity="0.6"/>
<path d="M37.2804 220.682C36.8669 220.682 36.4534 220.516 36.1226 220.351C35.2956 219.772 34.7167 218.945 34.5513 218.035C34.5513 217.787 34.7167 217.622 34.9648 217.622C35.1302 217.622 35.2956 217.787 35.3783 217.952C35.5437 218.697 36.0399 219.276 36.6188 219.689C36.9496 219.937 37.2804 219.937 37.6112 219.855C37.8593 219.772 38.0247 219.937 38.1074 220.103C38.1901 220.351 38.0247 220.599 37.8593 220.599C37.6112 220.599 37.4458 220.682 37.2804 220.682Z" fill="#0D0140" fill-opacity="0.6"/>
<path d="M46.3774 167.836C46.1293 167.836 45.9639 167.671 45.9639 167.423V135.418C45.9639 129.794 50.5124 125.246 56.136 125.246H73.503C73.7511 125.246 73.9165 125.411 73.9165 125.659C73.9165 125.907 73.7511 126.073 73.503 126.073H56.136C51.0086 126.073 46.8736 130.208 46.8736 135.335V167.34C46.7909 167.671 46.6255 167.836 46.3774 167.836Z" fill="#0D0140" fill-opacity="0.6"/>
<path d="M79.1268 124.088L71.8492 119.953C71.0222 119.457 70.0298 119.788 69.6163 120.532C69.4509 120.78 69.3682 121.111 69.3682 121.359V129.712C69.3682 130.621 70.1125 131.366 71.0222 131.366C71.353 131.366 71.6011 131.283 71.8492 131.118L79.1268 126.9C79.9538 126.486 80.2846 125.494 79.8711 124.667C79.7057 124.502 79.4576 124.253 79.1268 124.088Z" fill="#130160"/>
<path d="M71.1053 131.779C69.9475 131.779 68.9551 130.787 68.9551 129.629V121.442C68.9551 120.284 69.9475 119.291 71.1053 119.291C71.5188 119.291 71.8496 119.374 72.1804 119.54L79.2926 123.592C80.3677 124.171 80.6985 125.494 80.1196 126.569C79.9542 126.9 79.6234 127.148 79.2926 127.396L72.1804 131.531C71.8496 131.696 71.4361 131.779 71.1053 131.779ZM71.1053 120.118C70.8572 120.118 70.6091 120.201 70.4437 120.284C70.0302 120.532 69.7821 120.945 69.7821 121.442V129.629C69.7821 130.125 70.0302 130.539 70.4437 130.787C70.8572 131.035 71.3534 131.035 71.7669 130.787L78.8791 126.734C79.2926 126.486 79.5407 126.073 79.5407 125.577C79.5407 125.08 79.2926 124.667 78.8791 124.419L71.7669 120.367C71.6015 120.201 71.3534 120.118 71.1053 120.118Z" fill="#0D0140" fill-opacity="0.6"/>
<path d="M290.673 161.799C290.425 161.799 290.26 161.634 290.26 161.386V138.312C290.26 130.208 283.727 123.675 275.622 123.675H254.864C254.616 123.757 254.368 123.592 254.368 123.344C254.285 123.096 254.451 122.848 254.699 122.848C254.782 122.848 254.864 122.848 254.947 122.848H275.705C284.223 122.848 291.17 129.794 291.252 138.312V161.386C291.087 161.634 290.922 161.799 290.673 161.799Z" fill="#0D0140" fill-opacity="0.6"/>
<path d="M292.08 167.092L296.297 159.814C296.793 159.07 296.545 157.995 295.718 157.499C295.47 157.333 295.139 157.251 294.809 157.251H286.456C285.546 157.251 284.802 157.912 284.719 158.822C284.719 159.153 284.802 159.484 284.967 159.732L289.185 167.009C289.599 167.836 290.591 168.084 291.418 167.671C291.749 167.588 291.914 167.34 292.08 167.092Z" fill="#130160"/>
<path d="M290.673 168.25C289.929 168.25 289.185 167.836 288.771 167.175L284.719 160.063C284.14 158.987 284.471 157.664 285.546 157.085C285.877 156.92 286.207 156.837 286.621 156.837H294.808C295.966 156.837 296.958 157.83 296.958 158.987C296.958 159.401 296.876 159.732 296.628 160.063L292.493 167.175C292.162 167.836 291.418 168.25 290.673 168.25ZM286.538 157.747C286.042 157.747 285.629 157.995 285.38 158.409C285.132 158.822 285.132 159.318 285.38 159.732L289.433 166.844C289.681 167.257 290.094 167.506 290.591 167.506C291.087 167.506 291.5 167.257 291.748 166.844L295.801 159.732C296.131 159.07 295.966 158.326 295.304 157.912C295.139 157.83 294.891 157.747 294.643 157.747H286.538Z" fill="#0D0140" fill-opacity="0.6"/>
<path d="M276.367 324.057C267.683 324.057 260.075 323.56 259.909 323.56C259.661 323.643 259.413 323.478 259.413 323.23C259.33 322.982 259.496 322.733 259.744 322.733C259.827 322.733 259.909 322.733 259.992 322.733C260.157 322.733 277.194 323.809 289.516 322.733C298.034 321.989 305.725 317.937 307.048 313.388C307.71 311.321 306.883 309.336 304.65 307.599C296.297 300.983 294.395 296.269 298.117 291.142C298.282 290.977 298.53 290.894 298.696 290.977C298.861 291.059 298.944 291.39 298.861 291.556C298.861 291.556 298.861 291.556 298.861 291.638C295.388 296.352 297.207 300.57 305.229 306.938C308.372 309.419 308.454 311.9 307.875 313.636C306.387 318.433 298.365 322.816 289.599 323.56C285.464 323.891 280.75 324.057 276.367 324.057Z" fill="#0D0140" fill-opacity="0.6"/>
<path d="M89.3819 330.507H87.6452C87.3971 330.59 87.149 330.425 87.149 330.176C87.0663 329.928 87.2317 329.68 87.4798 329.68C87.5625 329.68 87.6452 329.68 87.7279 329.68H89.4646C89.7127 329.598 89.9608 329.763 89.9608 330.011C90.0435 330.259 89.8781 330.507 89.63 330.507C89.5473 330.59 89.4646 330.59 89.3819 330.507Z" fill="#0D0140" fill-opacity="0.6"/>
<path d="M84.4197 330.507H81.1944C80.9463 330.59 80.6982 330.425 80.6982 330.176C80.6155 329.928 80.7809 329.68 81.029 329.68C81.1117 329.68 81.1944 329.68 81.2771 329.68H84.5024C84.7505 329.598 84.9986 329.763 84.9986 330.011C85.0813 330.259 84.9159 330.507 84.6678 330.507C84.5851 330.59 84.5024 330.59 84.4197 330.507ZM77.9691 330.507H74.7438C74.4957 330.59 74.2476 330.425 74.2476 330.176C74.1649 329.928 74.3303 329.68 74.5784 329.68C74.6611 329.68 74.7438 329.68 74.8265 329.68H78.0518C78.2999 329.763 78.3826 330.011 78.3826 330.176C78.2172 330.425 78.1345 330.507 77.9691 330.507ZM71.5185 330.507H68.2932C68.0451 330.425 67.9624 330.176 67.9624 330.011C67.9624 329.846 68.1278 329.763 68.2932 329.68H71.5185C71.7666 329.598 72.0147 329.763 72.0147 330.011C72.0974 330.259 71.932 330.507 71.6839 330.507C71.6839 330.59 71.6012 330.59 71.5185 330.507ZM65.0679 330.507H61.8426C61.5945 330.59 61.3464 330.425 61.3464 330.176C61.2637 329.928 61.4291 329.68 61.6772 329.68C61.7599 329.68 61.8426 329.68 61.9253 329.68H65.1506C65.3987 329.598 65.6468 329.763 65.6468 330.011C65.7295 330.259 65.5641 330.507 65.316 330.507C65.2333 330.59 65.1506 330.59 65.0679 330.507ZM58.6173 330.507C57.4595 330.342 56.3844 329.928 55.392 329.267C55.2266 329.101 55.1439 328.853 55.3093 328.688C55.4747 328.522 55.7228 328.44 55.8882 328.605C56.7152 329.184 57.7076 329.515 58.7 329.68C58.9481 329.763 59.0308 330.011 58.9481 330.259C58.8654 330.342 58.7827 330.425 58.6173 330.507ZM53.4899 326.951C53.3245 326.951 53.1591 326.868 53.1591 326.703C52.5802 325.711 52.2494 324.553 52.1667 323.478C52.1667 323.23 52.3321 323.064 52.5802 323.064C52.8283 323.064 52.9937 323.23 53.0764 323.478C53.1591 324.47 53.4072 325.463 53.9034 326.372C53.9861 326.62 53.9861 326.868 53.738 326.951C53.5726 326.951 53.4899 326.951 53.4899 326.951ZM52.4975 320.666C52.2494 320.666 52.084 320.501 52.084 320.252V317.027C52.0013 316.779 52.1667 316.531 52.4148 316.531C52.6629 316.448 52.911 316.614 52.911 316.862C52.911 316.944 52.911 317.027 52.911 317.11V320.335C52.911 320.418 52.7456 320.666 52.4975 320.666ZM52.4975 314.215C52.2494 314.215 52.084 314.05 52.084 313.802V310.577C52.0013 310.328 52.1667 310.08 52.4148 310.08C52.6629 309.998 52.911 310.163 52.911 310.411C52.911 310.494 52.911 310.577 52.911 310.659V313.885C52.911 313.967 52.7456 314.133 52.4975 314.215Z" fill="#0D0140" fill-opacity="0.6"/>
<path d="M52.4975 307.682C52.2494 307.682 52.084 307.517 52.084 307.269V305.532C52.0013 305.284 52.1667 305.036 52.4148 305.036C52.6629 304.953 52.911 305.118 52.911 305.366C52.911 305.449 52.911 305.532 52.911 305.615V307.351C52.911 307.517 52.7456 307.682 52.4975 307.682Z" fill="#0D0140" fill-opacity="0.6"/>
<path d="M51.0918 298.75L46.8741 306.028C46.3779 306.855 46.7087 307.847 47.453 308.261C47.7011 308.426 48.0319 308.509 48.28 308.509H56.6327C57.5424 308.509 58.2867 307.765 58.2867 306.855C58.2867 306.524 58.204 306.276 58.0386 306.028L53.8209 298.75C53.4074 297.923 52.415 297.675 51.588 298.089C51.4226 298.254 51.1745 298.502 51.0918 298.75Z" fill="#130160"/>
<path d="M56.6329 309.005H48.4456C47.7013 309.005 46.957 308.592 46.5435 307.93C46.13 307.268 46.13 306.442 46.5435 305.78L50.5958 298.668C51.1747 297.593 52.4979 297.262 53.573 297.923C53.9038 298.089 54.1519 298.42 54.3173 298.668L58.3696 305.78C58.7831 306.442 58.7831 307.268 58.3696 307.93C58.1215 308.592 57.3772 309.005 56.6329 309.005ZM52.4979 298.42C52.0017 298.42 51.5882 298.668 51.3401 299.081L47.2051 306.193C46.957 306.607 46.957 307.103 47.2051 307.517C47.4532 307.93 47.8667 308.178 48.3629 308.178H56.5502C57.0464 308.178 57.4599 307.93 57.708 307.517C57.9561 307.103 57.9561 306.607 57.708 306.193L53.6557 299.081C53.4076 298.668 52.9941 298.42 52.4979 298.42Z" fill="#0D0140" fill-opacity="0.6"/>
<path opacity="0.36" d="M82.9258 341.276C81.3371 341.882 79.4044 343.312 80.1747 344.825C80.5186 345.355 81.0207 345.767 81.6053 345.994C97.7749 354.523 116.709 355.582 134.97 356.483L206.162 359.963C217.475 360.513 229.312 360.967 239.587 356.215C243.501 354.261 247.215 351.937 250.674 349.268C255.585 345.733 260.441 342.15 265.241 338.525C266.445 337.624 267.697 336.579 267.965 335.093C268.233 333.394 266.92 331.757 265.331 331.077C263.694 330.519 261.947 330.32 260.228 330.506C244.498 331.049 228.769 331.269 213.026 331.166C203.039 331.111 193.025 330.939 183.114 329.673C166.979 327.617 151.593 325.416 135.307 327.466C117.452 329.701 99.6457 334.846 82.919 341.269L82.9258 341.276Z" fill="url(#paint0_linear_1227_4998)"/>
<path d="M147.768 325.876H119.981V339.852H147.768V325.876Z" fill="#0D0140" fill-opacity="0.6"/>
<path d="M147.768 340.266H120.064C119.816 340.266 119.65 340.1 119.65 339.852V325.876C119.65 325.628 119.816 325.463 120.064 325.463H147.851C148.099 325.463 148.265 325.628 148.265 325.876V339.852C148.182 340.018 148.016 340.266 147.768 340.266ZM120.477 339.439H147.355V326.29H120.395L120.477 339.439Z" fill="#0D0140" fill-opacity="0.6"/>
<path d="M135.446 348.784C140.607 348.784 144.791 344.6 144.791 339.439C144.791 334.278 140.607 330.094 135.446 330.094C130.285 330.094 126.101 334.278 126.101 339.439C126.101 344.6 130.285 348.784 135.446 348.784Z" fill="white"/>
<path d="M135.446 349.197C130.07 349.197 125.687 344.814 125.687 339.439C125.687 334.063 130.07 329.68 135.446 329.68C140.821 329.68 145.204 334.063 145.204 339.439C145.204 344.814 140.821 349.197 135.446 349.197ZM135.446 330.59C130.566 330.59 126.514 334.559 126.514 339.439C126.514 344.318 130.484 348.37 135.363 348.37C140.242 348.37 144.295 344.401 144.295 339.521C144.295 334.559 140.325 330.59 135.446 330.59Z" fill="#0D0140" fill-opacity="0.6"/>
<path d="M135.446 344.318C138.141 344.318 140.325 342.134 140.325 339.439C140.325 336.744 138.141 334.559 135.446 334.559C132.751 334.559 130.567 336.744 130.567 339.439C130.567 342.134 132.751 344.318 135.446 344.318Z" fill="#0D0140" fill-opacity="0.6"/>
<path d="M135.446 344.732C132.551 344.732 130.153 342.333 130.153 339.439C130.153 336.544 132.551 334.146 135.446 334.146C138.34 334.146 140.738 336.544 140.738 339.439C140.738 342.333 138.34 344.732 135.446 344.732ZM135.446 334.973C132.965 334.973 130.98 336.958 130.98 339.439C130.98 341.92 132.965 343.905 135.446 343.905C137.927 343.905 139.911 341.92 139.911 339.439C139.911 336.958 137.927 334.973 135.446 334.973Z" fill="#0D0140" fill-opacity="0.6"/>
<path d="M236.257 325.876H208.552V339.852H236.257V325.876Z" fill="#0D0140" fill-opacity="0.6"/>
<path d="M236.256 340.266H208.469C208.221 340.266 208.056 340.1 208.056 339.852V325.876C208.056 325.628 208.221 325.463 208.469 325.463H236.174C236.422 325.463 236.587 325.628 236.587 325.876V339.852C236.753 340.018 236.504 340.266 236.256 340.266ZM208.965 339.439H235.843V326.29H208.965V339.439Z" fill="#0D0140" fill-opacity="0.6"/>
<path d="M247.091 279.564V331.5H230.716C228.979 329.267 226.25 327.613 221.95 327.778C219.055 327.861 216.326 329.184 214.59 331.5H153.805V279.564H247.091Z" fill="white"/>
<path d="M247.091 331.996H230.717C230.551 331.996 230.469 331.913 230.386 331.83C228.484 329.349 225.672 328.109 221.95 328.274C219.139 328.357 216.575 329.68 214.921 331.83C214.838 331.913 214.755 331.996 214.59 331.996H153.806C153.557 331.996 153.392 331.83 153.392 331.582V279.564C153.392 279.316 153.557 279.151 153.806 279.151H247.091C247.339 279.151 247.505 279.316 247.505 279.564V331.5C247.505 331.748 247.339 331.913 247.091 331.996ZM230.882 331.169H246.595V280.06H154.219V331.169H214.342C216.161 328.853 218.973 327.53 221.868 327.447C225.755 327.199 228.815 328.522 230.882 331.169Z" fill="#0D0140" fill-opacity="0.6"/>
<path d="M164.97 271.79H235.844C236.753 271.79 237.58 272.121 238.325 272.617L247.091 279.481H153.805L162.571 272.534C163.233 272.121 164.143 271.79 164.97 271.79Z" fill="#130160"/>
<path d="M247.091 280.06H153.805C153.64 280.06 153.475 279.977 153.392 279.729C153.309 279.564 153.392 279.399 153.557 279.233L162.323 272.286C163.15 271.625 164.06 271.294 165.135 271.294H235.926C236.919 271.294 237.911 271.625 238.738 272.286L247.504 279.233C247.67 279.316 247.67 279.564 247.67 279.729C247.422 279.895 247.256 280.06 247.091 280.06ZM154.963 279.233H245.85L238.077 273.113C237.415 272.617 236.671 272.369 235.844 272.369H164.97C164.143 272.369 163.399 272.617 162.737 273.113L154.963 279.233Z" fill="#0D0140" fill-opacity="0.6"/>
<path d="M153.805 301.728V339.852H148.429C147.023 339.852 145.7 338.86 145.369 337.537C144.542 334.559 142.144 329.846 135.776 329.846C129.16 329.846 126.1 334.89 124.86 337.867C124.364 339.025 123.206 339.852 121.883 339.852H98.4785V331.582C98.4785 327.282 98.9747 322.072 101.456 320.335C101.704 320.17 101.952 320.004 102.283 319.922C105.425 318.846 112.868 319.095 114.688 318.185C115.846 317.606 117.086 315.869 118.409 313.223C119.236 311.652 120.063 309.667 120.89 307.517C122.048 304.622 123.537 303.216 124.777 302.555H124.86C125.521 302.141 126.348 301.893 127.093 301.893L153.805 301.728Z" fill="#130160"/>
<path d="M153.805 340.266H148.43C146.776 340.266 145.37 339.191 144.956 337.619C144.129 334.89 141.896 330.259 135.776 330.259C129.491 330.259 126.514 335.138 125.274 338.033C124.695 339.356 123.454 340.266 121.966 340.266H98.5614C98.3133 340.266 98.1479 340.1 98.1479 339.852V331.582C98.1479 325.38 99.2231 321.493 101.291 320.004C101.539 319.839 101.869 319.673 102.2 319.508C103.854 318.929 106.666 318.681 109.312 318.516C111.628 318.35 113.778 318.185 114.605 317.771C115.598 317.275 116.755 315.704 118.079 312.975C118.823 311.486 119.65 309.584 120.56 307.268C121.304 305.118 122.71 303.299 124.612 302.058H124.695C125.439 301.645 126.266 301.397 127.176 301.314H153.805C154.053 301.314 154.219 301.479 154.219 301.728V339.852C154.219 340.1 154.053 340.266 153.805 340.266ZM135.776 329.349C142.392 329.349 144.873 334.394 145.783 337.371C146.114 338.612 147.189 339.439 148.43 339.439H153.392V302.141H127.176C126.431 302.141 125.77 302.389 125.108 302.72C123.371 303.878 122.048 305.532 121.304 307.517C120.394 309.832 119.567 311.734 118.74 313.306C117.252 316.283 116.011 317.937 114.853 318.433C113.944 318.846 111.793 319.012 109.23 319.26C106.666 319.508 103.937 319.673 102.366 320.17C102.118 320.252 101.869 320.418 101.621 320.583C99.8019 321.906 98.8923 325.628 98.8923 331.5V339.356H121.8C122.875 339.356 123.95 338.694 124.364 337.619C125.77 334.559 128.912 329.349 135.776 329.349Z" fill="#0D0140" fill-opacity="0.6"/>
<path d="M130.152 307.268H149.67V318.929H125.273C124.198 318.929 123.371 318.102 123.371 317.027C123.371 316.696 123.454 316.366 123.619 316.117L127.423 308.922C128.002 307.93 128.995 307.268 130.152 307.268Z" fill="white"/>
<path d="M149.67 319.425H125.274C123.95 319.425 122.958 318.35 122.958 317.027C122.958 316.614 123.041 316.283 123.206 315.952L127.01 308.757C127.589 307.599 128.83 306.855 130.153 306.855H149.67C149.918 306.855 150.084 307.02 150.084 307.269V318.929C150.084 319.177 149.918 319.425 149.67 319.425ZM130.153 307.682C129.161 307.682 128.251 308.261 127.755 309.088L123.95 316.283C123.702 316.779 123.702 317.275 123.95 317.771C124.199 318.185 124.695 318.516 125.274 318.516H149.257V307.682H130.153Z" fill="#0D0140" fill-opacity="0.6"/>
<path d="M153.805 292.961V301.645H127.176C126.349 301.645 125.604 301.893 124.943 302.306L137.927 294.119C139.167 293.292 140.656 292.879 142.144 292.879H153.805V292.961Z" fill="#0D0140" fill-opacity="0.6"/>
<path d="M124.86 302.803C124.695 302.803 124.529 302.72 124.529 302.555C124.447 302.389 124.447 302.058 124.695 301.976L137.679 293.788C139.002 292.961 140.573 292.465 142.145 292.548H153.805C154.053 292.548 154.219 292.713 154.219 292.961V301.645C154.219 301.893 154.053 302.058 153.805 302.058H127.176C126.432 302.058 125.77 302.306 125.108 302.637C125.026 302.803 124.943 302.803 124.86 302.803ZM142.062 293.458C140.656 293.458 139.25 293.871 138.092 294.615L127.341 301.314H153.309V293.458H142.062Z" fill="#0D0140" fill-opacity="0.6"/>
<path d="M118.41 313.14C117.086 315.787 115.846 317.606 114.688 318.102C112.869 318.929 105.343 318.764 102.283 319.839C101.952 319.922 101.704 320.087 101.456 320.252C102.035 318.764 109.313 314.381 111.38 313.967C113.448 313.554 118.161 313.14 118.41 313.14Z" fill="#0D0140" fill-opacity="0.6"/>
<path d="M101.456 320.666C101.373 320.666 101.291 320.666 101.291 320.583C101.125 320.5 101.042 320.335 101.042 320.17C101.042 320.087 101.042 320.087 101.042 320.004C101.787 318.268 109.23 313.884 111.297 313.388C113.365 312.892 118.327 312.561 118.327 312.561C118.575 312.561 118.74 312.727 118.74 312.975C118.74 313.057 118.74 313.14 118.74 313.14C117.252 316.117 116.011 317.771 114.853 318.268C113.944 318.681 111.793 318.846 109.23 319.095C106.666 319.343 103.937 319.508 102.366 320.004C102.118 320.087 101.869 320.252 101.621 320.418C101.621 320.666 101.539 320.666 101.456 320.666ZM117.665 313.636C116.259 313.719 113.117 314.05 111.463 314.381C109.809 314.711 105.26 317.441 103.027 319.177C105.095 318.764 107.08 318.598 109.147 318.433C111.463 318.268 113.613 318.102 114.44 317.689C115.267 317.275 116.507 315.952 117.665 313.636Z" fill="#0D0140" fill-opacity="0.6"/>
<path d="M153.805 331.5H214.59C212.77 333.898 211.53 336.792 210.951 339.77H153.805V331.5Z" fill="white"/>
<path d="M210.869 340.266H153.806C153.557 340.266 153.392 340.1 153.392 339.852V331.582C153.392 331.334 153.557 331.169 153.806 331.169H214.59C214.755 331.169 214.921 331.252 215.004 331.417C215.086 331.582 215.086 331.748 214.921 331.83C213.101 334.229 211.944 336.958 211.365 339.935C211.282 340.183 211.117 340.266 210.869 340.266ZM154.136 339.439H210.538C211.034 336.792 212.109 334.229 213.68 331.996H154.219L154.136 339.439Z" fill="#0D0140" fill-opacity="0.6"/>
<path d="M248.993 331.5V339.77H233.693C233.362 337.371 232.618 333.981 230.716 331.5H248.993Z" fill="white"/>
<path d="M248.993 340.266H233.694C233.446 340.266 233.28 340.1 233.28 339.935C232.867 337.454 232.205 334.229 230.386 331.83C230.303 331.665 230.303 331.5 230.386 331.417C230.468 331.252 230.634 331.169 230.799 331.169H249.076C249.324 331.169 249.489 331.334 249.489 331.582V339.852C249.407 340.018 249.241 340.266 248.993 340.266ZM234.107 339.439H248.58V331.996H231.544C232.867 334.229 233.776 336.792 234.107 339.439Z" fill="#0D0140" fill-opacity="0.6"/>
<path d="M222.612 348.784C227.773 348.784 231.957 344.6 231.957 339.439C231.957 334.278 227.773 330.094 222.612 330.094C217.451 330.094 213.267 334.278 213.267 339.439C213.267 344.6 217.451 348.784 222.612 348.784Z" fill="white"/>
<path d="M222.612 349.197C217.236 349.197 212.853 344.814 212.853 339.439C212.853 334.063 217.236 329.68 222.612 329.68C227.987 329.68 232.37 334.063 232.37 339.439C232.288 344.814 227.987 349.197 222.612 349.197ZM222.612 330.59C217.732 330.59 213.68 334.559 213.68 339.439C213.68 344.318 217.65 348.37 222.529 348.37C227.408 348.37 231.461 344.401 231.461 339.521C231.461 334.559 227.491 330.59 222.612 330.59Z" fill="#0D0140" fill-opacity="0.6"/>
<path d="M222.612 344.318C225.307 344.318 227.491 342.134 227.491 339.439C227.491 336.744 225.307 334.559 222.612 334.559C219.917 334.559 217.732 336.744 217.732 339.439C217.732 342.134 219.917 344.318 222.612 344.318Z" fill="#0D0140" fill-opacity="0.6"/>
<path d="M222.612 344.732C219.717 344.732 217.319 342.333 217.319 339.439C217.319 336.544 219.717 334.146 222.612 334.146C225.506 334.146 227.904 336.544 227.904 339.439C227.904 342.333 225.506 344.732 222.612 344.732ZM222.612 334.973C220.131 334.973 218.146 336.958 218.146 339.439C218.146 341.92 220.131 343.905 222.612 343.905C225.093 343.905 227.077 341.92 227.077 339.439C226.995 336.958 225.01 334.973 222.612 334.973Z" fill="#0D0140" fill-opacity="0.6"/>
<path d="M245.685 285.932H155.129C154.88 286.015 154.632 285.849 154.632 285.601C154.55 285.353 154.715 285.105 154.963 285.105C155.046 285.105 155.129 285.105 155.211 285.105H245.768C246.016 285.188 246.099 285.436 246.099 285.601C245.933 285.766 245.85 285.932 245.685 285.932Z" fill="#0D0140" fill-opacity="0.6"/>
<path d="M245.685 291.886H155.128C154.88 291.886 154.715 291.721 154.715 291.473C154.715 291.225 154.88 291.059 155.128 291.059H245.685C245.933 291.059 246.098 291.225 246.098 291.473C246.098 291.638 245.933 291.886 245.685 291.886Z" fill="#0D0140" fill-opacity="0.6"/>
<path d="M245.685 297.758H155.129C154.88 297.841 154.632 297.675 154.632 297.427C154.55 297.179 154.715 296.931 154.963 296.931C155.046 296.931 155.129 296.931 155.211 296.931H245.768C246.016 297.014 246.099 297.262 246.099 297.427C245.933 297.593 245.85 297.758 245.685 297.758Z" fill="#0D0140" fill-opacity="0.6"/>
<path d="M245.685 303.712H155.129C154.881 303.63 154.798 303.382 154.798 303.216C154.798 303.051 154.963 302.968 155.129 302.885H245.685C245.933 302.968 246.016 303.216 246.016 303.382C245.933 303.547 245.851 303.63 245.685 303.712Z" fill="#0D0140" fill-opacity="0.6"/>
<path d="M245.685 309.584H155.129C154.88 309.667 154.632 309.501 154.632 309.253C154.55 309.005 154.715 308.757 154.963 308.757C155.046 308.757 155.129 308.757 155.211 308.757H245.768C246.016 308.84 246.099 309.088 246.099 309.253C245.933 309.419 245.85 309.584 245.685 309.584Z" fill="#0D0140" fill-opacity="0.6"/>
<path d="M245.685 315.539H155.129C154.881 315.456 154.798 315.208 154.798 315.042C154.798 314.877 154.963 314.794 155.129 314.712H245.685C245.933 314.794 246.016 315.042 246.016 315.208C245.933 315.373 245.851 315.456 245.685 315.539Z" fill="#0D0140" fill-opacity="0.6"/>
<path d="M245.685 321.41H155.129C154.88 321.493 154.632 321.327 154.632 321.079C154.55 320.831 154.715 320.583 154.963 320.583C155.046 320.583 155.129 320.583 155.211 320.583H245.768C246.016 320.666 246.099 320.914 246.099 321.079C245.933 321.327 245.85 321.41 245.685 321.41Z" fill="#0D0140" fill-opacity="0.6"/>
<path d="M245.685 327.365H155.129C154.88 327.447 154.632 327.282 154.632 327.034C154.55 326.786 154.715 326.538 154.963 326.538C155.046 326.538 155.129 326.538 155.211 326.538H245.768C246.016 326.62 246.099 326.868 246.099 327.034C245.933 327.199 245.85 327.365 245.685 327.365Z" fill="#0D0140" fill-opacity="0.6"/>
</g>
<defs>
<linearGradient id="paint0_linear_1227_4998" x1="177.646" y1="284.425" x2="171.339" y2="379.647" gradientUnits="userSpaceOnUse">
<stop stop-color="#231F20" stop-opacity="0"/>
<stop offset="1" stop-color="#231F20"/>
</linearGradient>
<clipPath id="clip0_1227_4998">
<rect width="365" height="365" fill="white"/>
</clipPath>
</defs>
</svg>
