<svg width="398" height="398" viewBox="0 0 398 398" fill="none" xmlns="http://www.w3.org/2000/svg">
<path opacity="0.41" d="M359.187 295.722C357.985 301.955 356.441 308.235 353.297 313.719C353.002 314.229 352.708 314.73 352.349 315.216V315.001L41.2805 314.149V315.495C40.3333 290.508 34.6498 265.8 34.5862 240.79C34.5623 226.343 36.4408 211.951 40.1741 197.989C43.6844 184.847 48.9062 172 56.9856 161.055C79.0348 131.157 117.8 120.021 149.194 100.169C182.594 79.0587 194.216 31.6649 230.928 17.0503C250.278 9.32114 272.909 10.7619 291.567 20.0273C310.225 29.2928 324.879 46.0725 332.433 65.4869C342.113 90.3858 340.378 117.999 343.474 144.53C347.374 178.057 359.092 210.255 361.933 243.823C363.406 261.168 362.482 278.64 359.187 295.73V295.722Z" fill="#68E1FD" fill-opacity="0.62"/>
<path opacity="0.41" d="M359.187 295.722C357.985 301.955 356.441 308.235 353.297 313.719C353.002 314.229 352.708 314.73 352.349 315.216V315.001L41.2805 314.149V315.495C40.3333 290.508 34.6498 265.8 34.5862 240.79C34.5623 226.343 36.4408 211.951 40.1741 197.989C43.6844 184.847 48.9062 172 56.9856 161.055C79.0348 131.157 117.8 120.021 149.194 100.169C182.594 79.0587 194.216 31.6649 230.928 17.0503C250.278 9.32114 272.909 10.7619 291.567 20.0273C310.225 29.2928 324.879 46.0725 332.433 65.4869C342.113 90.3858 340.378 117.999 343.474 144.53C347.374 178.057 359.092 210.255 361.933 243.823C363.406 261.168 362.482 278.64 359.187 295.73V295.722Z" fill="#68E1FD" fill-opacity="0.62"/>
<path opacity="0.66" d="M352.389 315.033V315.431C331.892 356.934 283.798 380.838 261.382 381.427L104.721 382.757C69.0288 382.757 41.2007 352.938 41.2007 317.246V314.149L352.381 315.041L352.389 315.033Z" fill="#68E1FD" fill-opacity="0.62"/>
<path d="M82.1787 330.117C80.34 330.818 78.1032 332.473 78.9947 334.224C79.3927 334.837 79.9738 335.315 80.6504 335.578C99.3644 345.448 121.278 346.674 142.412 347.717L224.806 351.744C237.9 352.381 251.599 352.907 263.492 347.406C268.021 345.146 272.319 342.455 276.323 339.367C282.007 335.275 287.626 331.128 293.182 326.933C294.575 325.89 296.024 324.68 296.335 322.961C296.645 320.995 295.125 319.1 293.286 318.312C291.391 317.668 289.37 317.437 287.38 317.652C269.175 318.281 250.97 318.535 232.75 318.416C221.192 318.352 209.602 318.153 198.132 316.689C179.458 314.309 161.651 311.761 142.802 314.133C122.138 316.72 101.529 322.674 82.1708 330.109L82.1787 330.117Z" fill="url(#paint0_linear_1587_7528)" fill-opacity="0.6"/>
<path d="M278.807 66.657H169.19C159.492 66.657 151.63 74.5188 151.63 84.2168V301.262C151.63 310.96 159.492 318.822 169.19 318.822H278.807C288.505 318.822 296.367 310.96 296.367 301.262V84.2168C296.367 74.5188 288.505 66.657 278.807 66.657Z" fill="#68E1FD"/>
<path d="M278.807 66.657H169.19C159.492 66.657 151.63 74.5188 151.63 84.2168V301.262C151.63 310.96 159.492 318.822 169.19 318.822H278.807C288.505 318.822 296.367 310.96 296.367 301.262V84.2168C296.367 74.5188 288.505 66.657 278.807 66.657Z" fill="url(#paint1_linear_1587_7528)"/>
<path d="M269.796 66.657H160.179C150.481 66.657 142.619 74.5188 142.619 84.2168V301.262C142.619 310.96 150.481 318.822 160.179 318.822H269.796C279.494 318.822 287.356 310.96 287.356 301.262V84.2168C287.356 74.5188 279.494 66.657 269.796 66.657Z" fill="#6E678C"/>
<path d="M276.435 95.528V281.068C276.435 288.765 270.194 295.014 262.497 295.021H168.171C160.474 295.021 154.233 288.781 154.233 281.084V95.528C154.233 89.1839 159.367 84.0337 165.711 84.0337H264.949C271.293 84.0337 276.443 89.1839 276.443 95.528H276.435Z" fill="white"/>
<path d="M276.435 219.441V281.068C276.435 288.765 270.194 295.014 262.497 295.021H179.936V219.441H276.435Z" fill="#68E1FD"/>
<path d="M276.427 219.441V281.068C276.427 288.765 270.194 295.006 262.497 295.021H179.936V219.441H276.427Z" fill="url(#paint2_linear_1587_7528)"/>
<path d="M276.427 254.983V281.068C276.427 284.65 275.057 288.088 272.582 290.683H182.944V254.991H276.435L276.427 254.983Z" fill="url(#paint3_linear_1587_7528)"/>
<path d="M152.792 84.1531L123.333 115.659H254.147L280.399 83.7073L152.792 84.1531Z" fill="#68E1FD"/>
<path d="M168.951 84.0257L142.556 115.468L254.386 115.587H123.333L124.121 114.839L134.668 104.961L154.138 84.0178L168.951 84.0257Z" fill="url(#paint4_linear_1587_7528)"/>
<path d="M207.684 83.572L181.472 115.468L293.302 115.587H162.241L163.037 114.839L187.975 84.0178L207.684 83.572Z" fill="url(#paint5_linear_1587_7528)"/>
<path d="M245.208 83.572L218.996 115.468L199.764 115.587L200.56 114.839L225.499 84.0178L245.208 83.572Z" fill="url(#paint6_linear_1587_7528)"/>
<path d="M280.59 83.572L254.378 115.468L235.154 115.587L235.95 114.839L260.881 84.0178L280.59 83.572Z" fill="url(#paint7_linear_1587_7528)"/>
<path d="M181.154 115.651H199.916C199.199 120.833 194.415 124.447 189.233 123.73C185.038 123.149 181.735 119.846 181.154 115.651Z" fill="#68E1FD"/>
<path d="M162.105 115.651H180.867C180.151 120.833 175.367 124.447 170.185 123.73C165.99 123.149 162.687 119.846 162.105 115.651Z" fill="#68E1FD"/>
<path d="M237.98 115.539C237.311 120.729 232.559 124.391 227.369 123.714C223.142 123.165 219.799 119.862 219.202 115.643H237.86L237.972 115.539H237.98Z" fill="#68E1FD"/>
<path d="M254.29 115.539C253.836 120.276 250.35 123.937 246.123 123.937C241.896 123.937 238.458 120.307 237.972 115.643H254.226L254.29 115.539Z" fill="#68E1FD"/>
<path d="M143.161 115.651H161.922C161.206 120.833 156.422 124.447 151.24 123.73C147.045 123.149 143.742 119.846 143.161 115.651Z" fill="#68E1FD"/>
<path d="M200.186 115.651H218.932C218.216 120.833 213.432 124.447 208.25 123.73C204.055 123.149 200.751 119.846 200.17 115.651H200.186Z" fill="#68E1FD"/>
<path d="M124.088 115.651H142.85C142.134 120.833 137.35 124.447 132.168 123.73C127.973 123.149 124.669 119.846 124.088 115.651Z" fill="#68E1FD"/>
<path d="M181.154 115.651H199.916C199.199 120.833 194.415 124.447 189.233 123.73C185.038 123.149 181.735 119.846 181.154 115.651Z" fill="url(#paint8_linear_1587_7528)"/>
<path d="M162.105 115.651H180.867C180.151 120.833 175.367 124.447 170.185 123.73C165.99 123.149 162.687 119.846 162.105 115.651Z" fill="url(#paint9_linear_1587_7528)"/>
<path d="M237.972 115.651C237.303 120.841 232.551 124.502 227.361 123.826C223.135 123.277 219.791 119.973 219.194 115.754H237.861L237.964 115.651H237.972Z" fill="url(#paint10_linear_1587_7528)"/>
<path d="M254.234 115.595C253.789 120.331 250.31 124.009 246.099 124.009C241.889 124.009 238.466 120.371 237.972 115.714H254.171L254.234 115.603V115.595Z" fill="url(#paint11_linear_1587_7528)"/>
<path d="M143.161 115.651H161.922C161.206 120.833 156.422 124.447 151.24 123.73C147.045 123.149 143.742 119.846 143.161 115.651Z" fill="url(#paint12_linear_1587_7528)"/>
<path d="M200.186 115.651H218.932C218.216 120.833 213.432 124.447 208.25 123.73C204.055 123.149 200.751 119.846 200.17 115.651H200.186Z" fill="url(#paint13_linear_1587_7528)"/>
<path d="M124.088 115.651H142.85C142.134 120.833 137.35 124.447 132.168 123.73C127.973 123.149 124.669 119.846 124.088 115.651Z" fill="url(#paint14_linear_1587_7528)"/>
<path d="M142.842 115.651L168.768 84.2566L187.975 84.0178L161.867 115.651H142.842Z" fill="url(#paint15_linear_1587_7528)"/>
<path d="M180.986 115.651L206.92 84.2566L224.949 83.8506L200.011 115.651H180.986Z" fill="url(#paint16_linear_1587_7528)"/>
<path d="M219.139 115.651L245.056 84.2566L263.102 83.8506L238.155 115.651H219.139Z" fill="url(#paint17_linear_1587_7528)"/>
<path d="M254.17 115.707L279.324 110.724L280.685 83.572L254.17 115.707Z" fill="#68E1FD"/>
<path d="M254.378 115.444L279.532 110.461L280.909 83.3093L254.378 115.444Z" fill="url(#paint18_linear_1587_7528)"/>
<path d="M199.446 300.92H219.601C222.562 300.92 224.958 303.324 224.958 306.277C224.958 309.238 222.554 311.634 219.601 311.634H199.446C196.485 311.634 194.089 309.23 194.089 306.277C194.089 303.316 196.493 300.92 199.446 300.92Z" fill="url(#paint19_linear_1587_7528)"/>
<path d="M276.419 222.832H182.897V250.565H276.419V222.832Z" fill="url(#paint20_linear_1587_7528)"/>
<path d="M207.39 230.729H189.464V250.199H207.39V230.729Z" fill="#68E1FD"/>
<path d="M207.39 230.729H189.464V250.199H207.39V230.729Z" fill="url(#paint21_linear_1587_7528)"/>
<path d="M230.546 239.166H212.62V250.199H230.546V239.166Z" fill="url(#paint22_linear_1587_7528)"/>
<path d="M204.842 230.729H186.917V250.199H204.842V230.729Z" fill="#68E1FD"/>
<path d="M226.916 240.281H212.986V250.422H226.916V240.281Z" fill="#68E1FD"/>
<path d="M206.992 270.099H189.066V289.569H206.992V270.099Z" fill="#68E1FD"/>
<path d="M226.517 279.651H212.587V289.792H226.517V279.651Z" fill="#68E1FD"/>
<path d="M243.64 250.414C247.122 250.414 249.944 247.591 249.944 244.109C249.944 240.628 247.122 237.805 243.64 237.805C240.158 237.805 237.335 240.628 237.335 244.109C237.335 247.591 240.158 250.414 243.64 250.414Z" fill="url(#paint23_linear_1587_7528)"/>
<path d="M241.315 250.414C244.797 250.414 247.619 247.591 247.619 244.109C247.619 240.628 244.797 237.805 241.315 237.805C237.833 237.805 235.011 240.628 235.011 244.109C235.011 247.591 237.833 250.414 241.315 250.414Z" fill="#68E1FD"/>
<path d="M237.884 289.959C241.366 289.959 244.189 287.136 244.189 283.655C244.189 280.173 241.366 277.35 237.884 277.35C234.403 277.35 231.58 280.173 231.58 283.655C231.58 287.136 234.403 289.959 237.884 289.959Z" fill="url(#paint24_linear_1587_7528)"/>
<path d="M235.56 289.959C239.042 289.959 241.864 287.136 241.864 283.655C241.864 280.173 239.042 277.35 235.56 277.35C232.078 277.35 229.256 280.173 229.256 283.655C229.256 287.136 232.078 289.959 235.56 289.959Z" fill="#68E1FD"/>
<path d="M263.595 250.422C268.242 250.422 272.009 246.655 272.009 242.008C272.009 237.361 268.242 233.594 263.595 233.594C258.949 233.594 255.182 237.361 255.182 242.008C255.182 246.655 258.949 250.422 263.595 250.422Z" fill="url(#paint25_linear_1587_7528)"/>
<path d="M260.491 250.422C265.138 250.422 268.905 246.655 268.905 242.008C268.905 237.361 265.138 233.594 260.491 233.594C255.844 233.594 252.077 237.361 252.077 242.008C252.077 246.655 255.844 250.422 260.491 250.422Z" fill="#68E1FD"/>
<path d="M255.627 289.672C260.274 289.672 264.041 285.905 264.041 281.259C264.041 276.612 260.274 272.845 255.627 272.845C250.98 272.845 247.213 276.612 247.213 281.259C247.213 285.905 250.98 289.672 255.627 289.672Z" fill="url(#paint26_linear_1587_7528)"/>
<path d="M252.531 289.672C257.178 289.672 260.945 285.905 260.945 281.259C260.945 276.612 257.178 272.845 252.531 272.845C247.885 272.845 244.118 276.612 244.118 281.259C244.118 285.905 247.885 289.672 252.531 289.672Z" fill="#68E1FD"/>
<path d="M222.8 192.051C219.712 195.362 217.921 199.629 216.17 203.832L211.234 215.788C210.908 216.337 210.852 217.006 211.075 217.603C211.457 218.08 212.022 218.375 212.635 218.391C215.143 218.773 217.674 219.019 220.213 219.147C233.021 219.943 245.86 220.237 258.716 220.03C260.26 220.11 261.796 219.847 263.221 219.266C266.763 217.475 267.01 212.548 266.413 208.64C265.697 204.078 264.423 199.629 262.624 195.378C261.995 193.691 261.064 192.138 259.878 190.785C256.941 187.705 252.3 187.211 248.033 187.092C239.93 186.893 228.882 185.508 222.8 192.051Z" fill="#130160"/>
<path d="M213.376 189.313C213.208 188.413 212.388 187.784 211.481 187.856C210.367 187.808 209.244 187.856 208.138 187.975C207.421 187.991 206.737 188.254 206.188 188.708C205.79 189.193 205.543 189.782 205.479 190.403C204.58 195.283 205.622 200.282 206.02 205.225C206.299 208.6 206.323 212.174 208.146 215.015C209.817 217.571 212.667 219.099 215.724 219.075C216.989 219.075 218.43 218.613 218.916 217.443C219.115 216.854 219.17 216.225 219.075 215.612C218.422 206.737 217.141 197.464 213.383 189.305L213.376 189.313Z" fill="#130160"/>
<path d="M212.731 184.966C213.328 183.677 214.14 182.507 214.856 181.273C215.055 180.963 215.191 180.612 215.247 180.254C215.294 179.864 215.095 179.49 214.753 179.307C214.045 179.028 213.471 180.015 212.739 180.167C212.007 180.318 211.473 179.729 210.988 179.219C208.878 177.126 206.395 175.446 203.657 174.284C203.37 174.117 203.028 174.061 202.71 174.149C202.415 174.284 202.327 174.802 202.63 174.897C202.335 174.921 202.041 174.849 201.794 174.69C201.531 174.579 201.141 174.571 201.014 174.833C200.887 175.096 201.253 175.486 201.157 175.781C200.839 175.781 200.513 175.741 200.21 175.629C199.892 175.574 199.462 175.629 199.406 175.996C199.382 176.115 199.382 176.242 199.406 176.362C199.446 176.855 199.446 177.357 199.406 177.85C199.557 179.172 200.107 180.413 200.99 181.408C202.749 183.589 204.333 185.914 205.726 188.342C206.061 189.138 206.514 189.878 207.064 190.538C207.844 191.374 210.717 192.552 211.473 191.104C211.832 190.419 211.537 188.923 211.672 188.127C211.887 187.028 212.246 185.962 212.731 184.951V184.966Z" fill="#FFB4A3"/>
<path d="M251.807 204.97C252.181 206.188 251.998 207.501 251.305 208.568C250.477 209.571 249.045 209.77 247.747 209.834C241.427 210.168 234.979 209.077 228.802 210.518C227.919 210.63 227.099 211.051 226.494 211.712C225.968 212.643 225.817 213.75 226.064 214.793L226.597 219.314L220.444 218.199C220.213 218.168 219.991 218.088 219.792 217.969C219.497 217.69 219.33 217.3 219.306 216.902C218.804 214.546 218.582 212.142 218.653 209.73C218.733 207.302 219.688 204.986 221.344 203.203C222.912 201.81 224.798 200.839 226.836 200.361C231.572 199 236.555 198.602 241.49 198.204C243.624 198.037 247.174 197.559 249.005 199.008C250.533 200.242 251.44 203.163 251.815 204.978L251.807 204.97Z" fill="url(#paint27_linear_1587_7528)"/>
<path d="M225.746 172.358C225.579 173.902 225.634 175.47 225.905 176.999C226.582 179.721 228.532 181.958 231.143 182.992C233.037 183.741 235.282 183.94 236.579 185.484C237.877 187.028 237.813 189.082 239.142 190.371C240.567 191.565 242.621 191.645 244.133 190.57C245.59 189.472 246.561 187.856 246.848 186.049C247.118 184.266 247.222 182.459 247.158 180.66C247.19 178.256 247.389 175.86 247.755 173.48C248.074 171.825 248.273 170.153 248.352 168.473C248.336 166.523 247.962 164.597 247.246 162.79C245.646 158.579 242.35 154.774 237.98 153.66C233.881 152.649 229.606 154.408 227.409 158.014C226.311 159.781 226.414 161.588 226.279 163.697C226.104 166.571 225.921 169.452 225.73 172.35L225.746 172.358Z" fill="#FFB4A3"/>
<path d="M224.504 148.128C223.716 147.809 222.657 147.515 222.156 148.191C221.981 148.478 221.901 148.804 221.917 149.139C221.901 150.34 222.307 151.503 223.055 152.442C222.267 152.386 221.495 152.617 220.866 153.095C219.983 153.962 220.421 155.499 221.201 156.454C221.981 157.409 223.047 158.189 223.509 159.295C223.756 159.892 223.812 160.553 224.05 161.19C224.233 161.827 224.767 162.296 225.427 162.4C226.279 162.4 226.82 161.548 227.322 160.84C230.1 157.059 235.354 156.104 239.286 158.675C242.939 161.27 243.958 166.165 244.683 170.591C245.049 170.853 245.272 170.145 245.415 169.723C245.733 168.776 247.214 168.863 247.747 169.667C248.201 170.543 248.113 171.594 247.54 172.398C247.031 173.21 246.283 173.854 245.725 174.642C245.558 174.825 245.479 175.072 245.487 175.311C245.534 175.518 245.654 175.701 245.821 175.828C246.275 176.282 246.752 176.704 247.262 177.094C247.636 177.468 248.153 177.659 248.679 177.627C249.037 177.524 249.347 177.309 249.57 177.014C251.465 174.889 252.205 171.944 252.611 169.118C253.017 166.284 252.993 163.092 250.796 161.389C250.358 161.055 249.849 160.808 249.451 160.442C248.742 159.741 248.161 158.921 247.723 158.014C245.359 154.034 241.714 150.977 237.391 149.338C235.441 148.422 233.268 148.12 231.143 148.47C228.962 149.123 226.621 149.003 224.52 148.128H224.504Z" fill="#C14834"/>
<path d="M213.153 217.507C212.819 217.921 212.516 218.558 212.89 218.94C213.153 219.123 213.479 219.194 213.79 219.139L225.101 218.47C225.284 218.47 225.467 218.438 225.642 218.375C226.207 218.12 226.247 217.356 226.207 216.727L226.008 213.814C225.945 212.763 226.16 212.436 225.141 212.301C223.604 212.229 222.068 212.444 220.604 212.938C217.714 213.67 215.111 215.27 213.161 217.523L213.153 217.507Z" fill="#FFB4A3"/>
<path d="M146.201 190.833C159.952 190.833 171.1 179.685 171.1 165.934C171.1 152.183 159.952 141.035 146.201 141.035C132.45 141.035 121.302 152.183 121.302 165.934C121.302 179.685 132.45 190.833 146.201 190.833Z" fill="#130160"/>
<path d="M141.775 190.833C155.527 190.833 166.674 179.685 166.674 165.934C166.674 152.183 155.527 141.035 141.775 141.035C128.024 141.035 116.876 152.183 116.876 165.934C116.876 179.685 128.024 190.833 141.775 190.833Z" fill="url(#paint28_linear_1587_7528)"/>
<path d="M117.624 240.838C129.802 240.838 139.674 230.966 139.674 218.789C139.674 206.611 129.802 196.739 117.624 196.739C105.447 196.739 95.5752 206.611 95.5752 218.789C95.5752 230.966 105.447 240.838 117.624 240.838Z" fill="#130160"/>
<path d="M113.708 240.838C125.886 240.838 135.758 230.966 135.758 218.789C135.758 206.611 125.886 196.739 113.708 196.739C101.531 196.739 91.6592 206.611 91.6592 218.789C91.6592 230.966 101.531 240.838 113.708 240.838Z" fill="url(#paint29_linear_1587_7528)"/>
<path d="M155.825 180.278H131.929L135.981 158.667H152.355L155.825 180.278Z" fill="white"/>
<path d="M149.56 160.577H139.316V159.63C139.316 156.804 141.608 154.504 144.442 154.504C147.276 154.504 149.568 156.796 149.568 159.63V160.577H149.56ZM141.266 158.73H147.57C147.061 156.987 145.238 155.992 143.495 156.502C142.42 156.82 141.577 157.656 141.266 158.73Z" fill="white"/>
<path d="M114.911 214.689C114.911 219.37 112.459 221.678 109.585 221.678C106.712 221.678 104.443 219.465 104.403 215.047C104.364 210.638 106.831 208.122 109.752 208.122C112.849 208.074 114.903 210.462 114.903 214.689H114.911ZM106.791 214.896C106.728 217.738 107.786 219.879 109.633 219.879C111.48 219.879 112.475 217.754 112.475 214.832C112.475 212.134 111.687 209.889 109.633 209.889C107.786 209.889 106.791 212.142 106.791 214.896ZM109.386 230.999L122.409 208.09H124.303L111.289 230.991H109.386V230.999ZM129.334 223.875C129.334 228.548 126.874 230.864 124.049 230.864C121.223 230.864 118.898 228.651 118.867 224.233C118.835 219.823 121.279 217.284 124.216 217.284C127.312 217.252 129.326 219.632 129.326 223.867L129.334 223.875ZM121.215 224.074C121.215 226.916 122.274 229.057 124.112 229.057C126.094 229.057 126.954 226.948 126.954 224.01C126.954 221.32 126.166 219.067 124.112 219.067C122.234 219.059 121.215 221.272 121.215 224.066V224.074Z" fill="white"/>
<defs>
<linearGradient id="paint0_linear_1587_7528" x1="191.804" y1="264.32" x2="184.505" y2="374.526" gradientUnits="userSpaceOnUse">
<stop stop-color="#231F20" stop-opacity="0"/>
<stop offset="1" stop-color="#231F20"/>
</linearGradient>
<linearGradient id="paint1_linear_1587_7528" x1="189.726" y1="194.128" x2="403.938" y2="185.444" gradientUnits="userSpaceOnUse">
<stop stop-color="#231F20" stop-opacity="0"/>
<stop offset="1" stop-color="#231F20"/>
</linearGradient>
<linearGradient id="paint2_linear_1587_7528" x1="230.88" y1="331.041" x2="225.093" y2="172.804" gradientUnits="userSpaceOnUse">
<stop stop-color="#231F20" stop-opacity="0"/>
<stop offset="1" stop-color="#231F20"/>
</linearGradient>
<linearGradient id="paint3_linear_1587_7528" x1="225.57" y1="239.755" x2="239.03" y2="348.099" gradientUnits="userSpaceOnUse">
<stop stop-color="#231F20" stop-opacity="0"/>
<stop offset="1" stop-color="#231F20"/>
</linearGradient>
<linearGradient id="paint4_linear_1587_7528" x1="191.956" y1="76.026" x2="186.527" y2="145.302" gradientUnits="userSpaceOnUse">
<stop stop-color="#231F20" stop-opacity="0"/>
<stop offset="1" stop-color="#231F20"/>
</linearGradient>
<linearGradient id="paint5_linear_1587_7528" x1="230.92" y1="75.4608" x2="225.419" y2="145.604" gradientUnits="userSpaceOnUse">
<stop stop-color="#231F20" stop-opacity="0"/>
<stop offset="1" stop-color="#231F20"/>
</linearGradient>
<linearGradient id="paint6_linear_1587_7528" x1="224.647" y1="72.038" x2="219.155" y2="142.174" gradientUnits="userSpaceOnUse">
<stop stop-color="#231F20" stop-opacity="0"/>
<stop offset="1" stop-color="#231F20"/>
</linearGradient>
<linearGradient id="paint7_linear_1587_7528" x1="260.029" y1="72.038" x2="254.529" y2="142.174" gradientUnits="userSpaceOnUse">
<stop stop-color="#231F20" stop-opacity="0"/>
<stop offset="1" stop-color="#231F20"/>
</linearGradient>
<linearGradient id="paint8_linear_1587_7528" x1="187.625" y1="88.8495" x2="194.511" y2="152.187" gradientUnits="userSpaceOnUse">
<stop offset="0.02" stop-color="white" stop-opacity="0"/>
<stop offset="0.32" stop-color="white" stop-opacity="0.39"/>
<stop offset="0.68" stop-color="white" stop-opacity="0.68"/>
<stop offset="1" stop-color="white"/>
</linearGradient>
<linearGradient id="paint9_linear_1587_7528" x1="168.792" y1="90.8952" x2="175.677" y2="154.233" gradientUnits="userSpaceOnUse">
<stop stop-color="#231F20" stop-opacity="0"/>
<stop offset="1" stop-color="#231F20"/>
</linearGradient>
<linearGradient id="paint10_linear_1587_7528" x1="225.236" y1="84.8615" x2="232.121" y2="148.207" gradientUnits="userSpaceOnUse">
<stop offset="0.02" stop-color="white" stop-opacity="0"/>
<stop offset="0.32" stop-color="white" stop-opacity="0.39"/>
<stop offset="0.68" stop-color="white" stop-opacity="0.68"/>
<stop offset="1" stop-color="white"/>
</linearGradient>
<linearGradient id="paint11_linear_1587_7528" x1="242.82" y1="85.4188" x2="249.594" y2="147.753" gradientUnits="userSpaceOnUse">
<stop stop-color="#231F20" stop-opacity="0"/>
<stop offset="1" stop-color="#231F20"/>
</linearGradient>
<linearGradient id="paint12_linear_1587_7528" x1="150.07" y1="92.925" x2="156.955" y2="156.271" gradientUnits="userSpaceOnUse">
<stop offset="0.02" stop-color="white" stop-opacity="0"/>
<stop offset="0.32" stop-color="white" stop-opacity="0.39"/>
<stop offset="0.68" stop-color="white" stop-opacity="0.68"/>
<stop offset="1" stop-color="white"/>
</linearGradient>
<linearGradient id="paint13_linear_1587_7528" x1="206.411" y1="86.8038" x2="213.296" y2="150.142" gradientUnits="userSpaceOnUse">
<stop stop-color="#231F20" stop-opacity="0"/>
<stop offset="1" stop-color="#231F20"/>
</linearGradient>
<linearGradient id="paint14_linear_1587_7528" x1="131.221" y1="94.9707" x2="138.106" y2="158.324" gradientUnits="userSpaceOnUse">
<stop stop-color="#231F20" stop-opacity="0"/>
<stop offset="1" stop-color="#231F20"/>
</linearGradient>
<linearGradient id="paint15_linear_1587_7528" x1="142.842" y1="99.8343" x2="187.975" y2="99.8343" gradientUnits="userSpaceOnUse">
<stop offset="0.02" stop-color="white" stop-opacity="0"/>
<stop offset="0.32" stop-color="white" stop-opacity="0.39"/>
<stop offset="0.68" stop-color="white" stop-opacity="0.68"/>
<stop offset="1" stop-color="white"/>
</linearGradient>
<linearGradient id="paint16_linear_1587_7528" x1="180.986" y1="99.7467" x2="224.949" y2="99.7467" gradientUnits="userSpaceOnUse">
<stop offset="0.02" stop-color="white" stop-opacity="0"/>
<stop offset="0.32" stop-color="white" stop-opacity="0.39"/>
<stop offset="0.68" stop-color="white" stop-opacity="0.68"/>
<stop offset="1" stop-color="white"/>
</linearGradient>
<linearGradient id="paint17_linear_1587_7528" x1="219.139" y1="99.7467" x2="263.102" y2="99.7467" gradientUnits="userSpaceOnUse">
<stop offset="0.02" stop-color="white" stop-opacity="0"/>
<stop offset="0.32" stop-color="white" stop-opacity="0.39"/>
<stop offset="0.68" stop-color="white" stop-opacity="0.68"/>
<stop offset="1" stop-color="white"/>
</linearGradient>
<linearGradient id="paint18_linear_1587_7528" x1="295.754" y1="113.127" x2="245.797" y2="88.6824" gradientUnits="userSpaceOnUse">
<stop stop-color="#231F20" stop-opacity="0"/>
<stop offset="1" stop-color="#231F20"/>
</linearGradient>
<linearGradient id="paint19_linear_1587_7528" x1="208.138" y1="283.201" x2="211.147" y2="333.373" gradientUnits="userSpaceOnUse">
<stop stop-color="#231F20" stop-opacity="0"/>
<stop offset="1" stop-color="#231F20"/>
</linearGradient>
<linearGradient id="paint20_linear_1587_7528" x1="226.239" y1="209.109" x2="237.534" y2="300.148" gradientUnits="userSpaceOnUse">
<stop stop-color="#231F20" stop-opacity="0"/>
<stop offset="1" stop-color="#231F20"/>
</linearGradient>
<linearGradient id="paint21_linear_1587_7528" x1="208.242" y1="237.877" x2="176.824" y2="246.171" gradientUnits="userSpaceOnUse">
<stop stop-color="#231F20" stop-opacity="0"/>
<stop offset="1" stop-color="#231F20"/>
</linearGradient>
<linearGradient id="paint22_linear_1587_7528" x1="230.458" y1="242.342" x2="202.073" y2="249.833" gradientUnits="userSpaceOnUse">
<stop stop-color="#231F20" stop-opacity="0"/>
<stop offset="1" stop-color="#231F20"/>
</linearGradient>
<linearGradient id="paint23_linear_1587_7528" x1="246.712" y1="236.229" x2="236.929" y2="261.287" gradientUnits="userSpaceOnUse">
<stop stop-color="#231F20" stop-opacity="0"/>
<stop offset="1" stop-color="#231F20"/>
</linearGradient>
<linearGradient id="paint24_linear_1587_7528" x1="240.965" y1="275.774" x2="231.174" y2="300.832" gradientUnits="userSpaceOnUse">
<stop stop-color="#231F20" stop-opacity="0"/>
<stop offset="1" stop-color="#231F20"/>
</linearGradient>
<linearGradient id="paint25_linear_1587_7528" x1="267.695" y1="231.509" x2="254.64" y2="264.917" gradientUnits="userSpaceOnUse">
<stop stop-color="#231F20" stop-opacity="0"/>
<stop offset="1" stop-color="#231F20"/>
</linearGradient>
<linearGradient id="paint26_linear_1587_7528" x1="259.734" y1="270.743" x2="246.68" y2="304.16" gradientUnits="userSpaceOnUse">
<stop stop-color="#231F20" stop-opacity="0"/>
<stop offset="1" stop-color="#231F20"/>
</linearGradient>
<linearGradient id="paint27_linear_1587_7528" x1="231.564" y1="195.76" x2="245.693" y2="249.522" gradientUnits="userSpaceOnUse">
<stop stop-opacity="0"/>
<stop offset="0.99"/>
</linearGradient>
<linearGradient id="paint28_linear_1587_7528" x1="116.876" y1="165.926" x2="166.674" y2="165.926" gradientUnits="userSpaceOnUse">
<stop offset="0.02" stop-color="white" stop-opacity="0"/>
<stop offset="0.32" stop-color="white" stop-opacity="0.39"/>
<stop offset="0.68" stop-color="white" stop-opacity="0.68"/>
<stop offset="1" stop-color="white"/>
</linearGradient>
<linearGradient id="paint29_linear_1587_7528" x1="91.6592" y1="218.789" x2="135.758" y2="218.789" gradientUnits="userSpaceOnUse">
<stop offset="0.02" stop-color="white" stop-opacity="0"/>
<stop offset="0.32" stop-color="white" stop-opacity="0.39"/>
<stop offset="0.68" stop-color="white" stop-opacity="0.68"/>
<stop offset="1" stop-color="white"/>
</linearGradient>
</defs>
</svg>
