<svg width="378" height="378" viewBox="0 0 378 378" fill="none" xmlns="http://www.w3.org/2000/svg">
<path d="M265.289 81.3802H147.166C136.844 81.3802 128.477 89.7476 128.477 100.069V111.188C128.477 121.509 136.844 129.877 147.166 129.877H265.289C275.611 129.877 283.979 121.509 283.979 111.188V100.069C283.979 89.7476 275.611 81.3802 265.289 81.3802Z" fill="white"/>
<path d="M291.54 135.55H173.417C163.095 135.55 154.728 143.918 154.728 154.239V165.357C154.728 175.679 163.095 184.047 173.417 184.047H291.54C301.862 184.047 310.229 175.679 310.229 165.357V154.239C310.229 143.918 301.862 135.55 291.54 135.55Z" fill="white"/>
<path d="M257.222 191.007H139.099C128.778 191.007 120.41 199.375 120.41 209.697V220.815C120.41 231.136 128.778 239.504 139.099 239.504H257.222C267.544 239.504 275.912 231.136 275.912 220.815V209.697C275.912 199.375 267.544 191.007 257.222 191.007Z" fill="white"/>
<path opacity="0.18" d="M165.741 215.589C165.741 225.735 157.512 233.964 147.367 233.964C137.221 233.964 128.992 225.735 128.992 215.589C128.992 205.444 137.221 197.215 147.367 197.215C157.465 197.158 165.684 205.301 165.741 215.389V215.589Z" fill="#0D0140" fill-opacity="0.75"/>
<path opacity="0.34" d="M146.861 219.461C149.863 219.461 152.297 217.027 152.297 214.026C152.297 211.024 149.863 208.59 146.861 208.59C143.86 208.59 141.426 211.024 141.426 214.026C141.426 217.027 143.86 219.461 146.861 219.461Z" fill="#0D0140" fill-opacity="0.75"/>
<path opacity="0.34" d="M158.713 230.045C151.753 235.509 141.874 235.232 135.228 229.387C137.326 222.96 144.248 219.451 150.675 221.549C154.623 222.836 157.645 226.04 158.713 230.045Z" fill="#0D0140" fill-opacity="0.75"/>
<path opacity="0.18" d="M261.409 201.248H183.925V205.987H261.409V201.248Z" fill="#0D0140" fill-opacity="0.75"/>
<path opacity="0.18" d="M261.409 209.658H183.925V214.397H261.409V209.658Z" fill="#0D0140" fill-opacity="0.75"/>
<path opacity="0.18" d="M261.409 218.078H183.925V222.817H261.409V218.078Z" fill="#0D0140" fill-opacity="0.75"/>
<path opacity="0.18" d="M261.409 226.498H183.925V231.237H261.409V226.498Z" fill="#0D0140" fill-opacity="0.75"/>
<path opacity="0.18" d="M197.264 159.789C197.207 169.887 188.988 178.02 178.89 177.963C168.792 177.906 160.658 169.686 160.716 159.589C160.773 149.491 168.992 141.357 179.09 141.414C189.112 141.472 197.217 149.577 197.264 159.589V159.789Z" fill="#0D0140" fill-opacity="0.75"/>
<path opacity="0.34" d="M178.413 163.66C181.415 163.66 183.848 161.227 183.848 158.225C183.848 155.223 181.415 152.79 178.413 152.79C175.411 152.79 172.978 155.223 172.978 158.225C172.978 161.227 175.411 163.66 178.413 163.66Z" fill="#0D0140" fill-opacity="0.75"/>
<path opacity="0.34" d="M190.256 174.244C183.295 179.708 173.417 179.432 166.771 173.586C168.868 167.16 175.791 163.651 182.218 165.748C186.165 167.036 189.188 170.24 190.256 174.244Z" fill="#0D0140" fill-opacity="0.75"/>
<path opacity="0.18" d="M292.951 145.448H215.467V150.187H292.951V145.448Z" fill="#0D0140" fill-opacity="0.75"/>
<path opacity="0.18" d="M292.951 153.858H215.467V158.597H292.951V153.858Z" fill="#0D0140" fill-opacity="0.75"/>
<path opacity="0.18" d="M292.951 162.278H215.467V167.017H292.951V162.278Z" fill="#0D0140" fill-opacity="0.75"/>
<path opacity="0.18" d="M292.951 170.697H215.467V175.436H292.951V170.697Z" fill="#0D0140" fill-opacity="0.75"/>
<path opacity="0.18" d="M172.959 105.619C172.959 115.764 164.73 123.993 154.584 123.993C144.439 123.993 136.21 115.764 136.21 105.619C136.21 95.4733 144.439 87.2444 154.584 87.2444C164.73 87.2444 172.959 95.4733 172.959 105.619Z" fill="#0D0140" fill-opacity="0.75"/>
<path opacity="0.34" d="M154.07 109.5C157.072 109.5 159.505 107.066 159.505 104.065C159.505 101.063 157.072 98.6295 154.07 98.6295C151.068 98.6295 148.635 101.063 148.635 104.065C148.635 107.066 151.068 109.5 154.07 109.5Z" fill="#0D0140" fill-opacity="0.75"/>
<path opacity="0.34" d="M165.932 120.093C158.962 125.567 149.083 125.281 142.437 119.416C144.535 112.98 151.448 109.462 157.875 111.559C161.832 112.847 164.874 116.06 165.932 120.093Z" fill="#0D0140" fill-opacity="0.75"/>
<path opacity="0.18" d="M268.617 91.2873H191.133V96.0264H268.617V91.2873Z" fill="#0D0140" fill-opacity="0.75"/>
<path opacity="0.18" d="M268.617 99.707H191.133V104.446H268.617V99.707Z" fill="#0D0140" fill-opacity="0.75"/>
<path opacity="0.18" d="M268.617 108.108H191.133V112.847H268.617V108.108Z" fill="#0D0140" fill-opacity="0.75"/>
<path opacity="0.18" d="M268.617 116.527H191.133V121.266H268.617V116.527Z" fill="#0D0140" fill-opacity="0.75"/>
<path d="M275.673 89.0847C279.57 89.0847 282.729 85.9256 282.729 82.0286C282.729 78.1316 279.57 74.9725 275.673 74.9725C271.776 74.9725 268.617 78.1316 268.617 82.0286C268.617 85.9256 271.776 89.0847 275.673 89.0847Z" fill="#0D0140" fill-opacity="0.75"/>
<path d="M220.073 274.784L284.513 304.182C287.364 305.479 290.73 304.229 292.036 301.378L308.513 265.278C308.828 264.61 309.009 263.876 309.028 263.132C309.114 260.834 307.807 258.708 305.719 257.745L241.28 228.348C238.476 226.994 235.11 228.166 233.756 230.97C233.737 231.008 233.718 231.056 233.699 231.094L217.213 267.223C215.897 270.065 217.146 273.44 219.987 274.746C219.987 274.746 219.997 274.746 220.006 274.746L220.083 274.784H220.073Z" fill="#68E1FD"/>
<path d="M220.073 274.784L284.513 304.182C287.364 305.479 290.73 304.229 292.036 301.378L308.513 265.278C308.828 264.61 309.009 263.876 309.028 263.132C309.114 260.834 307.807 258.708 305.719 257.745L241.28 228.348C238.476 226.994 235.11 228.166 233.756 230.97C233.737 231.008 233.718 231.056 233.699 231.094L217.213 267.223C215.897 270.065 217.146 273.44 219.987 274.746C219.987 274.746 219.997 274.746 220.006 274.746L220.083 274.784H220.073Z" fill="url(#paint0_linear_1587_7324)"/>
<path d="M217.098 273.44L281.537 302.837C284.389 304.134 287.745 302.885 289.061 300.043L305.538 263.933C305.852 263.266 306.024 262.541 306.053 261.797C306.139 259.499 304.832 257.363 302.734 256.41L238.314 227.013C235.463 225.716 232.097 226.965 230.791 229.816L214.304 265.926C213.007 268.777 214.266 272.134 217.108 273.44H217.098Z" fill="#68E1FD"/>
<path d="M308.236 260.024L288.498 208.18L236.436 228.405L303.202 269.054L308.236 260.024Z" fill="#68E1FD"/>
<path d="M233.461 227.108L253.609 271.209L308.255 260.052L288.517 208.209C288.517 208.209 234.92 226.355 233.451 227.108H233.461Z" fill="url(#paint1_linear_1587_7324)"/>
<path d="M272.394 267.814L277.657 301.073L217.108 273.44L246.381 255.399L253.59 271.18L272.394 267.814Z" fill="url(#paint2_linear_1587_7324)"/>
<path d="M40.2758 181.911L22.2923 154.964C21.4532 153.782 21.7297 152.151 22.9121 151.312C22.9121 151.312 22.9311 151.302 22.9407 151.293L38.1304 141.233C38.4164 141.043 38.7311 140.919 39.0648 140.852C40.1042 140.642 41.1531 141.081 41.7442 141.958L59.7278 168.905C60.1569 169.553 60.2713 170.354 60.0425 171.098C59.8708 171.679 59.499 172.175 59.0031 172.509L43.8706 182.635C42.6882 183.427 41.0863 183.112 40.2853 181.939V181.911H40.2758Z" fill="#68E1FD"/>
<path d="M40.2758 181.911L22.2923 154.964C21.4532 153.782 21.7297 152.151 22.9121 151.312C22.9121 151.312 22.9311 151.302 22.9407 151.293L38.1304 141.233C38.4164 141.043 38.7311 140.919 39.0648 140.852C40.1042 140.642 41.1531 141.081 41.7442 141.958L59.7278 168.905C60.1569 169.553 60.2713 170.354 60.0425 171.098C59.8708 171.679 59.499 172.175 59.0031 172.509L43.8706 182.635C42.6882 183.427 41.0863 183.112 40.2853 181.939V181.911H40.2758Z" fill="url(#paint3_linear_1587_7324)"/>
<path d="M41.0954 183.169L23.1119 156.223C22.3109 155.021 22.6351 153.41 23.8366 152.609L38.9691 142.587C39.2551 142.397 39.5698 142.273 39.9035 142.206C40.9333 142.006 41.9918 142.435 42.5734 143.312L60.557 170.259C61.3579 171.451 61.0337 173.062 59.8418 173.863L44.6998 183.942C43.4983 184.724 41.8869 184.38 41.105 183.179C41.105 183.179 41.105 183.179 41.105 183.169H41.0954Z" fill="#68E1FD"/>
<path d="M60.8811 172.395L39.4648 166.502L39.8939 142.101C40.9237 141.901 41.9822 142.33 42.5638 143.207L60.5474 170.154C61.0051 170.812 61.129 171.641 60.8811 172.395Z" fill="#14BA9C" fill-opacity="0.3"/>
<path d="M39.6175 157.758L24.2085 157.796L41.0955 183.169L47.1409 168.609L39.484 166.502L39.6175 157.758Z" fill="url(#paint4_linear_1587_7324)"/>
<path d="M77.6163 318.98C76.5293 319.81 75.5662 321.25 76.1479 322.508C76.7296 323.767 78.2838 323.939 79.5997 323.977C84.6057 324.11 89.6022 323.662 94.5033 322.652C94.6464 322.642 94.7894 322.575 94.8943 322.48C94.9896 322.356 95.0373 322.194 95.0278 322.041C95.3901 318.99 95.5427 315.92 95.495 312.849C92.7965 312.086 89.6785 313.011 87.266 314.241C84.1671 315.777 80.372 316.835 77.6163 318.971V318.98Z" fill="#0D0140" fill-opacity="0.76"/>
<path d="M128.553 317.131C129.641 317.979 130.613 319.41 130.031 320.659C129.45 321.908 127.886 322.108 126.561 322.127C121.555 322.251 116.549 321.793 111.657 320.764C111.514 320.754 111.371 320.687 111.266 320.592C111.18 320.458 111.133 320.306 111.142 320.153C110.77 317.102 110.608 314.032 110.675 310.961C113.373 310.189 116.491 311.123 118.904 312.353C122.003 313.936 125.788 314.995 128.544 317.121L128.553 317.131Z" fill="#0D0140" fill-opacity="0.76"/>
<path d="M88.0764 230.588V313.707C88.0764 313.707 92.7106 315.357 95.5235 313.707L104.267 243.69L110.389 312.563C110.389 312.563 115.29 313.717 118.961 312.058L122.632 229.978C122.632 229.978 100.92 225.087 88.0669 230.588H88.0764Z" fill="#231F20"/>
<path d="M151.162 185.458C148.826 194.85 148.854 199.446 145.298 208.447C144.344 210.898 142.847 213.596 140.273 213.902C138.308 214.13 136.516 212.824 134.952 211.594C130.68 208.19 126.399 204.786 122.098 201.382C121.669 211.546 121.993 221.73 123.08 231.847C117.149 234.975 110.904 238.169 104.201 237.969C99.9859 237.673 95.8762 236.548 92.1002 234.669C91.1849 234.279 90.2885 233.868 89.3922 233.449C89.068 233.335 88.782 233.134 88.5722 232.858C87.3517 230.951 87.9238 226.145 87.8284 223.876C87.6854 220.424 87.5138 216.953 87.3421 213.492C87.2659 212.271 87.2086 211.127 87.1228 209.935C86.8177 204.309 86.4649 198.712 85.9023 193.096C85.9977 194.059 85.0346 195.804 84.6818 196.767C84.2241 198.283 83.7759 199.828 83.3087 201.363C82.8129 202.755 82.4029 204.176 82.0882 205.625C81.8212 207.379 82.6603 209.058 82.5554 210.86C82.5364 212.385 81.8117 213.816 80.5911 214.731C78.6936 215.952 76.2049 215.198 74.1358 214.312C72.982 213.968 71.9713 213.244 71.2847 212.252C70.8366 211.127 70.7698 209.887 71.1035 208.724C72.0666 202.211 73.7639 195.823 76.1668 189.692C78.2359 184.323 80.2669 178.468 85.969 176.066C88.925 174.845 92.434 174.759 95.5997 174.693L106.727 174.473C110.255 174.225 113.803 174.502 117.254 175.293C121.774 176.514 124.606 179.899 127.161 183.637C130.346 188.328 133.331 193.153 136.125 198.121C138.108 191.522 137.898 189.815 140.301 183.36C144.001 183.656 147.653 184.361 151.19 185.458H151.162Z" fill="#130160"/>
<path d="M103.733 211.718C102.484 213.358 100.538 214.302 98.4788 214.283C96.8387 214.34 95.2082 214.483 93.5777 214.712C93.1295 214.76 92.7004 214.931 92.3572 215.217C92.0997 215.532 91.9281 215.904 91.8518 216.295C90.3166 222.016 91.7183 228.052 92.2046 233.945C92.2523 234.183 92.2237 234.441 92.1283 234.669C91.2129 234.278 90.3166 233.868 89.4203 233.449C89.0961 233.334 88.81 233.134 88.6002 232.858C87.3797 230.951 87.9518 226.145 87.8565 223.875C87.7135 220.424 87.5418 216.953 87.3702 213.492C87.2939 212.271 87.2367 211.127 87.1509 209.935C87.4369 209.859 87.723 209.811 88.009 209.763L95.9138 208.419C97.859 208.076 100.815 206.922 102.76 207.656C104.705 208.39 104.648 210.269 103.742 211.728L103.733 211.718Z" fill="url(#paint5_linear_1587_7324)"/>
<path d="M95.2466 174.664C97.106 173.024 98.8224 170.001 98.4791 167.427C98.1358 164.852 96.2574 162.144 95.1703 159.713C94.6173 158.492 94.0642 156.986 94.7317 155.784C95.1227 155.25 95.5708 154.754 96.0667 154.306C97.1918 153.086 97.497 151.293 98.2502 149.786C99.4708 147.403 101.816 145.81 104.477 145.534C107.147 145.343 109.721 146.621 111.18 148.861C111.838 150.044 112.286 151.331 112.486 152.676C113.183 156.242 113.23 159.903 112.62 163.479C112.448 164.719 112.029 165.92 111.399 166.998C110.751 168.085 109.616 168.79 108.358 168.895C107.709 168.895 106.965 168.752 106.508 169.2C106.298 169.42 106.174 169.706 106.136 170.011C105.964 170.878 106.069 171.784 106.441 172.595C106.87 173.615 107.185 174.683 107.376 175.78C107.623 176.943 107.776 178.345 106.889 179.107C106.327 179.498 105.65 179.689 104.963 179.651C101.12 179.632 97.516 177.782 95.2466 174.673V174.664Z" fill="#FFB4A3"/>
<path d="M107.47 195.289L115.852 168.332L77.1099 177.944L98.3163 207.465L107.47 195.289Z" fill="url(#paint6_linear_1587_7324)"/>
<path d="M115.185 142.797C114.956 141.958 114.508 141.195 113.888 140.594C112.124 138.821 109.54 138.134 107.128 138.792C106.003 139.107 104.963 139.727 103.848 140.098C101.893 140.537 99.9 140.814 97.8976 140.909C95.9142 141.195 93.7974 141.996 92.8629 143.779C92.3862 145.019 92.1001 146.316 92.0048 147.641C91.3468 151.007 88.9344 154.354 90.1645 157.567C91.3945 160.781 96.0954 163.241 98.012 165.93C98.4983 164.776 97.9166 162.478 97.4113 161.324C96.5436 161.362 95.7617 160.828 95.4756 160.018C95.1037 159.407 94.894 158.711 94.8749 157.996C94.7891 157.272 95.0465 156.556 95.59 156.061C96.2861 155.736 97.1157 155.984 97.5257 156.633C97.8976 157.281 98.1073 158.015 98.1169 158.769C100.567 156.432 97.888 151.684 100.091 149.1C101.778 149.71 103.514 150.196 105.268 150.559C107.128 150.721 109.006 150.482 110.77 149.844C113.259 148.89 115.853 145.572 115.195 142.797H115.185Z" fill="#C14834"/>
<path d="M76.1002 205.053C74.9464 205.53 73.9452 206.321 73.2205 207.341C72.3623 208.791 72.3337 210.583 73.1347 212.061C73.9643 213.511 75.3373 214.56 76.9583 214.96C79.2659 215.57 81.6974 214.96 84.0145 214.369L92.2816 212.233C92.5009 212.195 92.7106 212.099 92.8727 211.937C93.0158 211.651 93.0158 211.308 92.8727 211.022C92.3483 209.01 92.005 206.836 91.2803 204.9C90.6319 203.184 89.8596 203.193 88.0479 203.146C84.0812 203.069 79.7522 203.26 76.1002 205.043V205.053Z" fill="#130160"/>
<path d="M144.687 186.469C145.04 186.488 145.384 186.411 145.689 186.24C145.908 186.078 146.08 185.858 146.204 185.61C146.757 184.657 147.052 183.579 147.062 182.473C147.024 181.939 147.081 181.396 147.224 180.881C147.386 180.547 147.596 180.223 147.825 179.927C148.664 178.316 148.969 176.476 148.673 174.683C148.673 173.996 148.54 173.319 148.282 172.69C147.786 171.727 146.89 171.021 145.832 170.764C144.783 170.507 143.705 170.402 142.637 170.459C141.941 170.402 141.245 170.507 140.606 170.774C139.672 171.241 139.186 173.339 139.004 174.302C138.718 175.894 139.023 177.544 139.872 178.917C140.149 179.298 140.387 179.708 140.587 180.137C141.102 181.529 139.891 183.532 140.787 184.743C141.808 185.82 143.229 186.43 144.706 186.459L144.687 186.469Z" fill="#FFB4A3"/>
<path d="M160.916 151.379V180.557C159.944 179.451 158.857 178.44 157.693 177.544C152.764 173.625 146.728 171.365 140.434 171.098C138.165 171.06 136.124 169.725 135.171 167.665C134.713 166.645 134.542 165.52 134.666 164.404C135.123 161.505 137.679 159.398 140.616 159.503C143.924 159.369 150.418 158.139 160.916 151.369V151.379Z" fill="#130160"/>
<path d="M162.251 180.499C166.406 180.499 169.775 173.976 169.775 165.93C169.775 157.883 166.406 151.36 162.251 151.36C158.096 151.36 154.728 157.883 154.728 165.93C154.728 173.976 158.096 180.499 162.251 180.499Z" fill="#68E1FD"/>
<path d="M162.251 180.499C166.406 180.499 169.775 173.976 169.775 165.93C169.775 157.883 166.406 151.36 162.251 151.36C158.096 151.36 154.728 157.883 154.728 165.93C154.728 173.976 158.096 180.499 162.251 180.499Z" fill="url(#paint7_linear_1587_7324)"/>
<path d="M155.433 159.789L162.26 161.925V169.276L155.376 171.803C154.575 167.837 154.594 163.756 155.433 159.798V159.789Z" fill="url(#paint8_linear_1587_7324)"/>
<path d="M142.275 178.106H146.528V181.844C146.528 183.017 145.574 183.98 144.392 183.98C143.219 183.98 142.256 183.026 142.256 181.844V178.106H142.265H142.275Z" fill="#130160"/>
<path d="M162.251 169.267C163.204 169.267 163.977 167.623 163.977 165.596C163.977 163.568 163.204 161.925 162.251 161.925C161.298 161.925 160.525 163.568 160.525 165.596C160.525 167.623 161.298 169.267 162.251 169.267Z" fill="#130160"/>
<path d="M157.693 177.477C152.764 173.558 146.728 171.298 140.434 171.031C138.165 170.993 136.124 169.658 135.171 167.598C135.333 167.77 137.154 169.505 142.284 168.638C147.672 167.722 155.119 170.449 155.119 170.449L157.693 177.467V177.477Z" fill="url(#paint9_linear_1587_7324)"/>
<path d="M102.942 209.21H97.7736C96.9727 209.248 96.3052 208.629 96.2671 207.828C96.2385 207.666 96.2385 207.503 96.2671 207.341L98.7176 196.528C98.9751 195.46 99.9095 194.698 101.006 194.65H106.165C106.966 194.621 107.643 195.251 107.671 196.061C107.7 196.214 107.7 196.376 107.671 196.528L105.221 207.341C104.963 208.409 104.038 209.172 102.942 209.22V209.21Z" fill="#231F20"/>
<path d="M96.0003 201.382C96.1624 201.124 96.3436 200.886 96.5438 200.657C96.8203 200.381 97.1922 200.209 97.5831 200.199C97.669 200.199 97.7548 200.218 97.812 200.276C97.8501 200.333 97.8692 200.39 97.8883 200.457C97.9455 200.81 97.9741 201.172 98.0599 201.506C98.1267 201.859 98.3078 202.183 98.5748 202.421C99.1278 202.879 100.196 202.583 100.825 202.507L103.524 202.202C104.077 202.059 104.668 202.164 105.126 202.507C105.65 203.022 105.421 203.89 105.126 204.576C104.306 206.607 103.228 208.829 101.168 209.601C98.7178 210.536 95.9717 209.029 93.3876 209.43C91.9382 209.649 90.3363 210.202 89.4781 208.6C88.9632 207.713 89.0204 206.607 89.6212 205.768C90.4126 205.072 91.3375 204.519 92.3292 204.166C93.1683 203.727 93.9597 203.213 94.6939 202.621C95.0849 202.316 95.4472 201.992 95.781 201.63L95.9907 201.372L96.0003 201.382Z" fill="#FFB4A3"/>
<defs>
<linearGradient id="paint0_linear_1587_7324" x1="253.504" y1="260.014" x2="385.568" y2="348.063" gradientUnits="userSpaceOnUse">
<stop stop-color="#231F20"/>
<stop offset="0.08" stop-color="#231F20" stop-opacity="0.69"/>
<stop offset="0.21" stop-color="#231F20" stop-opacity="0.32"/>
<stop offset="1" stop-color="#231F20" stop-opacity="0"/>
</linearGradient>
<linearGradient id="paint1_linear_1587_7324" x1="248.946" y1="289.783" x2="356.075" y2="63.883" gradientUnits="userSpaceOnUse">
<stop stop-color="#231F20"/>
<stop offset="0.08" stop-color="#231F20" stop-opacity="0.69"/>
<stop offset="0.21" stop-color="#231F20" stop-opacity="0.32"/>
<stop offset="1" stop-color="#231F20" stop-opacity="0"/>
</linearGradient>
<linearGradient id="paint2_linear_1587_7324" x1="323.402" y1="213.801" x2="126.867" y2="403.728" gradientUnits="userSpaceOnUse">
<stop stop-color="#231F20"/>
<stop offset="0.08" stop-color="#231F20" stop-opacity="0.69"/>
<stop offset="0.21" stop-color="#231F20" stop-opacity="0.32"/>
<stop offset="1" stop-color="#231F20" stop-opacity="0"/>
</linearGradient>
<linearGradient id="paint3_linear_1587_7324" x1="47.4695" y1="168.572" x2="-1.98941" y2="115.289" gradientUnits="userSpaceOnUse">
<stop stop-color="#231F20"/>
<stop offset="0.08" stop-color="#231F20" stop-opacity="0.69"/>
<stop offset="0.21" stop-color="#231F20" stop-opacity="0.32"/>
<stop offset="1" stop-color="#231F20" stop-opacity="0"/>
</linearGradient>
<linearGradient id="paint4_linear_1587_7324" x1="57.0999" y1="135.868" x2="-15.1265" y2="238.112" gradientUnits="userSpaceOnUse">
<stop stop-color="#231F20"/>
<stop offset="0.08" stop-color="#231F20" stop-opacity="0.69"/>
<stop offset="0.21" stop-color="#231F20" stop-opacity="0.32"/>
<stop offset="1" stop-color="#231F20" stop-opacity="0"/>
</linearGradient>
<linearGradient id="paint5_linear_1587_7324" x1="63.4843" y1="201.277" x2="130.956" y2="241.134" gradientUnits="userSpaceOnUse">
<stop stop-color="#231F20"/>
<stop offset="0.08" stop-color="#231F20" stop-opacity="0.69"/>
<stop offset="0.21" stop-color="#231F20" stop-opacity="0.32"/>
<stop offset="1" stop-color="#231F20" stop-opacity="0"/>
</linearGradient>
<linearGradient id="paint6_linear_1587_7324" x1="104.333" y1="212.395" x2="97.0196" y2="175.837" gradientUnits="userSpaceOnUse">
<stop stop-color="#0D0140" stop-opacity="0.6"/>
<stop offset="1" stop-color="white" stop-opacity="0"/>
</linearGradient>
<linearGradient id="paint7_linear_1587_7324" x1="134.189" y1="152.437" x2="221.57" y2="194.431" gradientUnits="userSpaceOnUse">
<stop stop-color="#231F20"/>
<stop offset="0.08" stop-color="#231F20" stop-opacity="0.69"/>
<stop offset="0.21" stop-color="#231F20" stop-opacity="0.32"/>
<stop offset="1" stop-color="#231F20" stop-opacity="0"/>
</linearGradient>
<linearGradient id="paint8_linear_1587_7324" x1="128.572" y1="156.175" x2="208.592" y2="184.447" gradientUnits="userSpaceOnUse">
<stop stop-color="#231F20"/>
<stop offset="0.08" stop-color="#231F20" stop-opacity="0.69"/>
<stop offset="0.21" stop-color="#231F20" stop-opacity="0.32"/>
<stop offset="1" stop-color="#231F20" stop-opacity="0"/>
</linearGradient>
<linearGradient id="paint9_linear_1587_7324" x1="146.709" y1="188.595" x2="146.022" y2="148.928" gradientUnits="userSpaceOnUse">
<stop stop-color="#231F20"/>
<stop offset="0.08" stop-color="#231F20" stop-opacity="0.69"/>
<stop offset="0.21" stop-color="#231F20" stop-opacity="0.32"/>
<stop offset="1" stop-color="#231F20" stop-opacity="0"/>
</linearGradient>
</defs>
</svg>
