<svg width="383" height="371" viewBox="0 0 383 371" fill="none" xmlns="http://www.w3.org/2000/svg">
<path d="M364.018 275.058C355.4 290.358 343.557 303.612 329.6 312.454C320.358 318.302 310.598 323.032 300.375 326.635C297.096 327.8 293.779 328.841 290.407 329.767C288.841 330.207 287.267 330.616 285.685 330.994C277.499 332.961 269.205 334.327 260.85 335.245C256.167 335.762 251.46 336.14 246.746 336.402C238.128 336.896 229.48 337.012 220.854 336.927C219.018 336.911 217.182 336.888 215.353 336.858C214.697 336.842 214.041 336.834 213.386 336.819C212.105 336.796 210.832 336.765 209.559 336.726C205.007 336.611 200.447 336.441 195.895 336.194C165.566 334.62 135.292 330.076 107.517 318.086C96.9316 313.511 86.8324 307.902 77.142 301.645C74.6268 300.025 72.1348 298.358 69.6736 296.653C66.8962 294.74 64.1572 292.78 61.4492 290.774C55.0687 286.053 48.8039 281.092 42.9017 275.76C33.8517 267.59 25.6427 258.563 19.1388 248.271C3.06788 222.857 -1.32209 190.368 7.41929 161.598C16.1607 132.82 37.8791 108.27 65.3762 96.0877C77.8055 90.5713 91.3304 87.4697 103.088 80.634C119.738 70.9514 131.442 54.6722 146.803 43.053C166.369 28.2629 191.389 21.6587 215.909 22.0136C240.435 22.3685 264.522 29.3276 286.843 39.4809C300.421 45.6608 313.722 53.2449 323.559 64.4551C341.721 85.1783 345.208 114.458 354.513 140.396C361.927 161.058 373.439 180.392 377.69 201.933C382.38 225.742 376.671 252.607 364.018 275.058Z" fill="#ADE2D8"/>
<path d="M276.427 110.884L247.119 121.761V225.715L279.828 224.64L276.427 110.884Z" fill="#435FEC"/>
<path d="M276.427 110.884L247.119 121.761V225.715L279.828 224.64L276.427 110.884Z" fill="url(#paint0_linear_1227_4698)"/>
<path d="M121.687 110.95L154.395 124.989L158.478 225.715L126.199 222.339L121.687 110.95Z" fill="#435FEC"/>
<path d="M121.687 110.95L154.395 124.989L158.478 225.715L126.199 222.339L121.687 110.95Z" fill="url(#paint1_linear_1227_4698)"/>
<path d="M121.687 110.95L58.5608 122.548L62.5976 222.25L126.467 229.017L121.687 110.95Z" fill="#435FEC"/>
<path d="M118.554 116.841L61.165 126.628L64.8648 217.983L122.874 223.385L118.554 116.841Z" fill="url(#paint2_linear_1227_4698)"/>
<path d="M104.046 154.209L119.994 152.354L120.346 161.095L103.717 158.468L104.046 154.209Z" fill="url(#paint3_linear_1227_4698)"/>
<path d="M59.0356 188.081L63.7389 192.236L121.687 193.393L107.883 188.081H59.0356Z" fill="#435FEC"/>
<path d="M59.0356 188.081L63.7389 192.236L121.687 193.394L106.175 187.754L59.0356 188.081Z" fill="url(#paint4_linear_1227_4698)"/>
<path d="M107.378 159.158L120.346 161.095L121.687 193.394L108.029 190.575L107.378 159.158Z" fill="#435FEC"/>
<path d="M107.378 159.158L120.346 161.095L121.687 193.394L108.029 190.575L107.378 159.158Z" fill="url(#paint5_linear_1227_4698)"/>
<path d="M108.726 192.467L31.1837 191.614L29.7437 156.124L106.964 148.889L108.726 192.467Z" fill="#435FEC"/>
<path d="M101.395 187.733L34.7611 187.755L33.6274 159.678L100.04 154.209L101.395 187.733Z" fill="url(#paint6_linear_1227_4698)"/>
<path d="M75.4741 167.379L56.01 168.417C55.9181 166.243 57.3582 164.381 59.2425 164.262L71.6211 163.468C73.651 163.335 75.3898 165.086 75.4817 167.379H75.4741Z" fill="#435FEC"/>
<path d="M97.2668 135.481L81.8472 137.506C81.7782 135.77 82.9272 134.19 84.4286 133.982L94.2334 132.609C95.8267 132.387 97.1902 133.67 97.2668 135.481Z" fill="#435FEC"/>
<path d="M100.04 203.96L84.5051 203.211C84.4362 201.475 85.5928 200.109 87.1095 200.169L96.9909 200.562C98.5995 200.629 99.9707 202.143 100.047 203.96H100.04Z" fill="#435FEC"/>
<path d="M106.964 148.889L103.717 149.194L106.528 192.467H108.726L106.964 148.889Z" fill="url(#paint7_linear_1227_4698)"/>
<path d="M276.427 110.884L340.74 120.181V221.167L276.427 230.472V110.884Z" fill="#435FEC"/>
<path d="M279.828 116.715L338.273 124.41V216.945L279.828 224.639V116.715Z" fill="url(#paint8_linear_1227_4698)"/>
<path d="M276.901 187.162L340.257 184.06V155.003L276.901 151.486V187.162Z" fill="#435FEC"/>
<path d="M279.828 183.607L338.273 181.478V157.585L279.828 155.085V183.607Z" fill="url(#paint9_linear_1227_4698)"/>
<path d="M303.252 165.621L319.2 165.866C319.2 164.085 317.959 162.608 316.419 162.571L306.277 162.304C304.615 162.26 303.252 163.744 303.252 165.621Z" fill="#435FEC"/>
<path d="M302.126 134.746L317.806 136.201C317.806 134.442 316.58 132.891 315.048 132.736L305.075 131.727C303.451 131.563 302.126 132.914 302.126 134.754V134.746Z" fill="#435FEC"/>
<path d="M302.126 204.116L317.806 202.766C317.806 201.007 316.58 199.672 315.048 199.79L305.075 200.562C303.451 200.688 302.126 202.276 302.126 204.116Z" fill="#435FEC"/>
<path d="M43.9532 223.029C45.9371 215.476 53.5741 210.296 61.4639 208.775C69.3537 207.254 77.5039 208.738 85.3401 210.497C95.6428 212.812 106.551 216.039 113.115 224.075C118.117 219.646 125.57 218.421 132.173 219.898C138.776 221.374 144.583 225.27 149.347 229.937C150.312 230.887 151.316 231.911 152.641 232.267C154.096 232.668 155.628 232.185 157.114 231.955C160.186 231.488 163.304 232.104 166.345 232.72C180.385 235.547 194.426 238.374 208.459 241.201C209.195 241.349 209.999 241.535 210.451 242.121C211.447 243.404 209.892 245.148 208.344 245.734C205.977 246.632 203.358 246.61 200.807 246.58C142.07 245.853 83.3332 245.126 24.5963 244.406C22.9418 244.384 21.2106 244.347 19.7552 243.583C16.9823 242.128 16.2086 238.7 15.7184 235.688C14.4315 227.719 13.6732 218.214 19.985 212.945C23.8227 209.747 29.4375 209.139 34.3399 210.356C39.2423 211.573 43.5548 214.377 47.5304 217.405C50.2726 219.497 51.2991 214.051 53.4515 211.395" fill="#ECFBF8" fill-opacity="0.87"/>
<path d="M249.042 91.5321H149.431V235.992H249.042V91.5321Z" fill="#435FEC"/>
<path d="M244.561 98.0391H153.92V229.477H244.561V98.0391Z" fill="url(#paint10_linear_1227_4698)"/>
<path d="M145.364 186.508L153.775 192.444H246.905L255.668 188.23L145.364 186.508Z" fill="#435FEC"/>
<path d="M145.364 186.508L153.775 192.444H246.905L255.668 188.23L145.364 186.508Z" fill="url(#paint11_linear_1227_4698)"/>
<path d="M260.593 136.052H140.025V188.237H260.593V136.052Z" fill="#435FEC"/>
<path d="M251.386 141.721H147.087V182.554H251.386V141.721Z" fill="url(#paint12_linear_1227_4698)"/>
<path d="M191.324 150.752H210.78C213.844 150.752 216.342 153.163 216.342 156.138H185.771C185.771 153.17 188.26 150.752 191.332 150.752H191.324Z" fill="#435FEC"/>
<path d="M193.323 113.207H208.781C211.217 113.207 213.201 115.121 213.201 117.488H188.903C188.903 115.128 190.88 113.207 193.323 113.207Z" fill="#435FEC"/>
<path d="M193.323 202.55H208.781C211.217 202.55 213.201 204.464 213.201 206.831H188.903C188.903 204.471 190.88 202.55 193.323 202.55Z" fill="#435FEC"/>
<path d="M225.595 218.073C235.016 220.306 244.392 222.755 253.699 225.419C256.35 218.541 260.172 210.66 267.617 209.317C270.819 208.739 274.09 209.555 277.238 210.364C282.639 211.751 288.039 213.131 293.439 214.519C294.213 207.692 300.165 202.187 306.89 200.013C313.616 197.839 320.962 198.447 327.917 199.79C332.995 200.77 338.097 202.165 342.425 204.925C346.753 207.685 350.261 211.981 350.981 216.953C358.434 215.795 366.638 216.018 372.774 220.277C378.91 224.536 381.552 233.922 376.52 239.368C373.8 242.307 369.633 243.479 365.65 244.325C350.575 247.523 335.025 247.901 319.598 247.798C295.301 247.634 271.026 246.299 246.759 244.963C239.444 244.562 181.703 243.999 182.017 238.374C182.193 235.191 195.667 226.621 198.93 224.254C207.226 218.236 215.392 215.662 225.595 218.088V218.073Z" fill="#ECFBF8" fill-opacity="0.87"/>
<path d="M185.203 278.621L152.342 278.354L163.089 308.791L197.368 285.61L197.674 282.969L185.203 278.621Z" fill="#231F20"/>
<path d="M173.691 286.271L185.694 263.863L221.489 266.022L205.556 290.419L173.691 286.271Z" fill="#D0E0F8"/>
<path d="M173.691 286.272L177.819 278.562L191.332 279.683L196.257 274.607L215.629 275.001L205.556 290.42L173.691 286.272Z" fill="url(#paint13_linear_1227_4698)"/>
<path d="M171.416 283.266L193.178 282.724L197.092 277.783L217.804 280.988L204.652 310.557L163.089 308.798C163.089 308.798 170.619 284.297 171.416 283.274V283.266Z" fill="#36C4D0"/>
<path d="M193.17 282.724L211.937 285.24L217.797 280.981L197.084 277.783L193.17 282.724Z" fill="url(#paint14_linear_1227_4698)"/>
<path opacity="0.18" d="M303.512 84.233C303.543 83.8991 303.566 83.5652 303.566 83.2313C303.566 76.8352 298.211 71.6487 291.608 71.6487C287.028 71.6487 283.06 74.1418 281.053 77.7998C280.302 77.5698 279.506 77.4437 278.678 77.4437C274.641 77.4437 271.317 80.3746 270.834 84.1588H269.984C264.798 84.1588 260.593 88.2324 260.593 93.2557C260.593 98.279 264.798 102.353 269.984 102.353H302.401C307.587 102.353 311.792 98.279 311.792 93.2557C311.792 88.5959 308.177 84.7598 303.512 84.2256V84.233Z" fill="#ECFBF8" fill-opacity="0.87"/>
<path d="M313.102 91.6007C313.102 95.3997 310.697 98.6571 307.281 100.015C306.178 100.453 304.975 100.698 303.711 100.698H271.294C266.108 100.698 261.903 96.624 261.903 91.6007C261.903 86.5774 266.108 82.5038 271.294 82.5038H272.144C272.627 78.7196 275.951 75.7887 279.988 75.7887C280.815 75.7887 281.612 75.9148 282.363 76.1448C284.37 72.4868 288.345 69.9937 292.918 69.9937C299.521 69.9937 304.875 75.1802 304.875 81.5763C304.875 81.9102 304.852 82.2441 304.822 82.578C309.479 83.1122 313.102 86.9484 313.102 91.6081V91.6007Z" fill="#ECFBF8" fill-opacity="0.87"/>
<path opacity="0.18" d="M144.851 83.9788C144.874 83.7488 144.889 83.5114 144.889 83.2739C144.889 78.7774 141.128 75.1342 136.486 75.1342C133.269 75.1342 130.48 76.8853 129.063 79.46C128.535 79.2968 127.976 79.2152 127.393 79.2152C124.559 79.2152 122.223 81.2779 121.886 83.9343H121.288C117.642 83.9343 114.686 86.7984 114.686 90.3303C114.686 93.8623 117.642 96.7264 121.288 96.7264H144.069C147.715 96.7264 150.672 93.8623 150.672 90.3303C150.672 87.0581 148.129 84.3647 144.858 83.9862L144.851 83.9788Z" fill="#ECFBF8" fill-opacity="0.87"/>
<path d="M151.591 89.1579C151.591 91.8291 149.899 94.1145 147.501 95.0717C146.727 95.3833 145.877 95.554 144.988 95.554H122.208C118.561 95.554 115.605 92.6898 115.605 89.1579C115.605 85.626 118.561 82.7619 122.208 82.7619H122.805C123.142 80.1055 125.478 78.0428 128.313 78.0428C128.895 78.0428 129.454 78.1318 129.983 78.2876C131.392 75.7129 134.188 73.9618 137.405 73.9618C142.047 73.9618 145.808 77.605 145.808 82.1015C145.808 82.3389 145.793 82.569 145.77 82.8064C149.041 83.1848 151.584 85.8783 151.584 89.1505L151.591 89.1579Z" fill="#ECFBF8" fill-opacity="0.87"/>
<path d="M203.342 76.7972C202.232 75.61 201.19 74.356 200.01 73.2282C199.413 72.6568 198.785 72.1152 198.095 71.6403C197.682 71.3583 196.709 71.1357 196.67 70.557C196.624 69.7259 198.7 69.5107 199.305 69.3252C200.508 68.9617 201.718 68.5981 202.867 68.0861C207.992 65.8007 211.439 60.3619 211.209 54.9008C218.838 56.83 225.97 60.5993 231.769 65.7711C231.945 65.9269 232.136 66.1124 232.175 66.3424C232.213 66.5724 232.098 66.795 231.983 67.0028C230.895 68.9913 229.792 70.9873 228.322 72.731C224.024 77.8286 217.199 80.0991 210.719 82.0728C210.397 82.1693 210.06 82.2657 209.731 82.1989C209.463 82.1396 209.233 81.9838 209.011 81.8205C206.958 80.3217 205.05 78.6299 203.319 76.7823L203.342 76.7972Z" fill="#D0E0F8"/>
<defs>
<linearGradient id="paint0_linear_1227_4698" x1="232.703" y1="181.9" x2="351.681" y2="142.423" gradientUnits="userSpaceOnUse">
<stop/>
<stop offset="0.08" stop-opacity="0.69"/>
<stop offset="0.21" stop-opacity="0.32"/>
<stop offset="1" stop-opacity="0"/>
</linearGradient>
<linearGradient id="paint1_linear_1227_4698" x1="181.113" y1="178.368" x2="49.5174" y2="149.618" gradientUnits="userSpaceOnUse">
<stop/>
<stop offset="0.08" stop-opacity="0.69"/>
<stop offset="0.43" stop-opacity="0.32"/>
<stop offset="1" stop-opacity="0"/>
</linearGradient>
<linearGradient id="paint2_linear_1227_4698" x1="28.6749" y1="85.2133" x2="130.451" y2="226.629" gradientUnits="userSpaceOnUse">
<stop/>
<stop offset="0.08" stop-opacity="0.69"/>
<stop offset="0.21" stop-opacity="0.32"/>
<stop offset="1" stop-opacity="0"/>
</linearGradient>
<linearGradient id="paint3_linear_1227_4698" x1="104.391" y1="149.09" x2="175.063" y2="212.883" gradientUnits="userSpaceOnUse">
<stop/>
<stop offset="0.08" stop-opacity="0.69"/>
<stop offset="0.43" stop-opacity="0.32"/>
<stop offset="1" stop-opacity="0"/>
</linearGradient>
<linearGradient id="paint4_linear_1227_4698" x1="90.1425" y1="194.698" x2="91.0879" y2="177.384" gradientUnits="userSpaceOnUse">
<stop/>
<stop offset="0.08" stop-opacity="0.69"/>
<stop offset="0.21" stop-opacity="0.32"/>
<stop offset="1" stop-opacity="0"/>
</linearGradient>
<linearGradient id="paint5_linear_1227_4698" x1="104.145" y1="176.833" x2="171.111" y2="173.006" gradientUnits="userSpaceOnUse">
<stop/>
<stop offset="0.08" stop-opacity="0.69"/>
<stop offset="0.21" stop-opacity="0.32"/>
<stop offset="1" stop-opacity="0"/>
</linearGradient>
<linearGradient id="paint6_linear_1227_4698" x1="58.9839" y1="99.7142" x2="72.4179" y2="220.796" gradientUnits="userSpaceOnUse">
<stop/>
<stop offset="0.08" stop-opacity="0.69"/>
<stop offset="0.21" stop-opacity="0.32"/>
<stop offset="1" stop-opacity="0"/>
</linearGradient>
<linearGradient id="paint7_linear_1227_4698" x1="84.421" y1="141.566" x2="118.21" y2="188.526" gradientUnits="userSpaceOnUse">
<stop/>
<stop offset="0.08" stop-opacity="0.69"/>
<stop offset="0.21" stop-opacity="0.32"/>
<stop offset="1" stop-opacity="0"/>
</linearGradient>
<linearGradient id="paint8_linear_1227_4698" x1="369.442" y1="81.2773" x2="272.174" y2="228.126" gradientUnits="userSpaceOnUse">
<stop/>
<stop offset="0.08" stop-opacity="0.69"/>
<stop offset="0.21" stop-opacity="0.32"/>
<stop offset="1" stop-opacity="0"/>
</linearGradient>
<linearGradient id="paint9_linear_1227_4698" x1="313.777" y1="107.181" x2="306.249" y2="210.926" gradientUnits="userSpaceOnUse">
<stop/>
<stop offset="0.08" stop-opacity="0.69"/>
<stop offset="0.21" stop-opacity="0.32"/>
<stop offset="1" stop-opacity="0"/>
</linearGradient>
<linearGradient id="paint10_linear_1227_4698" x1="110.909" y1="38.6346" x2="244.953" y2="241.007" gradientUnits="userSpaceOnUse">
<stop/>
<stop offset="0.08" stop-opacity="0.69"/>
<stop offset="0.21" stop-opacity="0.32"/>
<stop offset="1" stop-opacity="0"/>
</linearGradient>
<linearGradient id="paint11_linear_1227_4698" x1="199.398" y1="198.729" x2="202.605" y2="164.125" gradientUnits="userSpaceOnUse">
<stop/>
<stop offset="0.08" stop-opacity="0.69"/>
<stop offset="0.21" stop-opacity="0.32"/>
<stop offset="1" stop-opacity="0"/>
</linearGradient>
<linearGradient id="paint12_linear_1227_4698" x1="191.393" y1="60.7396" x2="203.436" y2="226.663" gradientUnits="userSpaceOnUse">
<stop/>
<stop offset="0.08" stop-opacity="0.69"/>
<stop offset="0.21" stop-opacity="0.32"/>
<stop offset="1" stop-opacity="0"/>
</linearGradient>
<linearGradient id="paint13_linear_1227_4698" x1="200.335" y1="313.534" x2="193.695" y2="272.346" gradientUnits="userSpaceOnUse">
<stop/>
<stop offset="0.08" stop-opacity="0.69"/>
<stop offset="0.37" stop-opacity="0.32"/>
<stop offset="1" stop-opacity="0"/>
</linearGradient>
<linearGradient id="paint14_linear_1227_4698" x1="242.824" y1="311.113" x2="198.612" y2="274.169" gradientUnits="userSpaceOnUse">
<stop/>
<stop offset="0.08" stop-opacity="0.69"/>
<stop offset="0.37" stop-opacity="0.32"/>
<stop offset="1" stop-opacity="0"/>
</linearGradient>
</defs>
</svg>
