<svg width="113" height="114" viewBox="0 0 113 114" fill="none" xmlns="http://www.w3.org/2000/svg">
<mask id="mask0_1397_5676" style="mask-type:luminance" maskUnits="userSpaceOnUse" x="0" y="0" width="113" height="114">
<circle cx="56.5" cy="56.7168" r="56.5" fill="white"/>
</mask>
<g mask="url(#mask0_1397_5676)">
<circle cx="56.5" cy="56.7168" r="56.5" fill="#70B6C1"/>
<path fill-rule="evenodd" clip-rule="evenodd" d="M56.5 -3.53219V56.7166L74.4408 113.217L101.398 104.254L120.796 53.7711L106.374 6.10762L67.8578 -4.04541L56.5 -3.53219Z" fill="#0049AF" stroke="white" stroke-width="1.07109"/>
<path fill-rule="evenodd" clip-rule="evenodd" d="M-3.74902 27.0254L56.4998 56.7166L74.4406 113.217L28.6696 118.109L-6.14502 75.7284L-3.74902 27.0254Z" fill="#FFBB36" stroke="white" stroke-width="1.07109"/>
</g>
<g clip-path="url(#clip0_1397_5676)">
<path d="M33.8346 25.8636V31.3164H32.8468V26.8247H32.8149L31.5395 27.6395V26.7342L32.8947 25.8636H33.8346ZM37.2346 31.4202C36.7962 31.4202 36.4199 31.3093 36.1057 31.0874C35.7933 30.8638 35.5528 30.5416 35.3842 30.1209C35.2173 29.6985 35.1339 29.1899 35.1339 28.5953C35.1357 28.0007 35.22 27.4948 35.3869 27.0777C35.5555 26.6588 35.796 26.3393 36.1084 26.1192C36.4226 25.8991 36.798 25.789 37.2346 25.789C37.6713 25.789 38.0467 25.8991 38.3609 26.1192C38.6751 26.3393 38.9156 26.6588 39.0824 27.0777C39.251 27.4966 39.3354 28.0025 39.3354 28.5953C39.3354 29.1917 39.251 29.7011 39.0824 30.1236C38.9156 30.5443 38.6751 30.8656 38.3609 31.0874C38.0485 31.3093 37.6731 31.4202 37.2346 31.4202ZM37.2346 30.5869C37.5754 30.5869 37.8443 30.4191 38.0414 30.0837C38.2402 29.7464 38.3396 29.2503 38.3396 28.5953C38.3396 28.1622 38.2943 27.7983 38.2038 27.5037C38.1133 27.209 37.9855 26.9872 37.8204 26.8381C37.6553 26.6872 37.4601 26.6117 37.2346 26.6117C36.8956 26.6117 36.6276 26.7804 36.4306 27.1176C36.2335 27.4531 36.1341 27.9457 36.1324 28.5953C36.1306 29.0302 36.1741 29.3958 36.2628 29.6923C36.3533 29.9887 36.4811 30.2124 36.6462 30.3632C36.8113 30.5123 37.0074 30.5869 37.2346 30.5869ZM43.1354 30.294V30.0065C43.1354 29.7952 43.1798 29.6009 43.2685 29.4234C43.3591 29.2459 43.4904 29.103 43.6626 28.9947C43.8348 28.8864 44.0433 28.8323 44.2883 28.8323C44.5403 28.8323 44.7516 28.8864 44.922 28.9947C45.0924 29.1012 45.2211 29.2432 45.308 29.4207C45.3968 29.5982 45.4412 29.7934 45.4412 30.0065V30.294C45.4412 30.5052 45.3968 30.6996 45.308 30.8771C45.2193 31.0546 45.0888 31.1975 44.9166 31.3058C44.7462 31.414 44.5368 31.4682 44.2883 31.4682C44.0398 31.4682 43.8295 31.414 43.6573 31.3058C43.4851 31.1975 43.3546 31.0546 43.2659 30.8771C43.1789 30.6996 43.1354 30.5052 43.1354 30.294ZM43.8303 30.0065V30.294C43.8303 30.4342 43.8641 30.5629 43.9315 30.6801C43.999 30.7972 44.1179 30.8558 44.2883 30.8558C44.4605 30.8558 44.5785 30.7981 44.6424 30.6827C44.7081 30.5656 44.7409 30.436 44.7409 30.294V30.0065C44.7409 29.8645 44.7099 29.7349 44.6477 29.6177C44.5856 29.4988 44.4658 29.4393 44.2883 29.4393C44.1214 29.4393 44.0034 29.4988 43.9342 29.6177C43.865 29.7349 43.8303 29.8645 43.8303 30.0065ZM40.3637 27.1735V26.886C40.3637 26.673 40.409 26.4777 40.4995 26.3002C40.5901 26.1227 40.7214 25.9807 40.8936 25.8742C41.0658 25.766 41.2743 25.7118 41.5193 25.7118C41.7696 25.7118 41.9799 25.766 42.1503 25.8742C42.3225 25.9807 42.452 26.1227 42.539 26.3002C42.626 26.4777 42.6695 26.673 42.6695 26.886V27.1735C42.6695 27.3865 42.6251 27.5818 42.5364 27.7593C42.4494 27.935 42.3198 28.0761 42.1476 28.1826C41.9755 28.2891 41.766 28.3424 41.5193 28.3424C41.269 28.3424 41.0578 28.2891 40.8856 28.1826C40.7152 28.0761 40.5856 27.9341 40.4969 27.7566C40.4081 27.5791 40.3637 27.3848 40.3637 27.1735ZM41.064 26.886V27.1735C41.064 27.3155 41.0968 27.4451 41.1625 27.5623C41.23 27.6776 41.3489 27.7353 41.5193 27.7353C41.6897 27.7353 41.8068 27.6776 41.8707 27.5623C41.9364 27.4451 41.9692 27.3155 41.9692 27.1735V26.886C41.9692 26.744 41.9382 26.6144 41.8761 26.4973C41.8139 26.3783 41.695 26.3189 41.5193 26.3189C41.3507 26.3189 41.2326 26.3783 41.1652 26.4973C41.0977 26.6162 41.064 26.7458 41.064 26.886ZM40.6673 31.3164L44.4161 25.8636H45.0817L41.3329 31.3164H40.6673Z" fill="white"/>
</g>
<g clip-path="url(#clip1_1397_5676)">
<path d="M75.7627 53.8686V53.0832L78.0764 49.4275H78.7314V50.5458H78.332L76.7745 53.014V53.0566H80.0041V53.8686H75.7627ZM78.364 54.8804V53.629L78.3746 53.2775V49.4275H79.3065V54.8804H78.364ZM82.7505 54.9549C82.3955 54.9549 82.0778 54.8884 81.7973 54.7552C81.5169 54.6203 81.2941 54.4357 81.129 54.2014C80.9657 53.9671 80.8787 53.6991 80.8681 53.3974H81.8266C81.8443 53.621 81.9411 53.8038 82.1168 53.9458C82.2925 54.0861 82.5038 54.1562 82.7505 54.1562C82.944 54.1562 83.1161 54.1118 83.267 54.023C83.4179 53.9343 83.5368 53.8109 83.6238 53.653C83.7108 53.495 83.7534 53.3148 83.7516 53.1125C83.7534 52.9066 83.7099 52.7237 83.6211 52.564C83.5324 52.4042 83.4108 52.2791 83.2564 52.1886C83.1019 52.0963 82.9244 52.0501 82.7239 52.0501C82.5606 52.0483 82.3999 52.0785 82.2419 52.1406C82.084 52.2028 81.9588 52.2844 81.8665 52.3856L80.9746 52.2392L81.2595 49.4275H84.4225V50.2529H82.0769L81.9198 51.6987H81.9517C82.0529 51.5797 82.1958 51.4812 82.3804 51.4031C82.565 51.3233 82.7673 51.2833 82.9874 51.2833C83.3176 51.2833 83.6122 51.3614 83.8714 51.5176C84.1306 51.672 84.3347 51.885 84.4838 52.1566C84.6329 52.4282 84.7074 52.7388 84.7074 53.0885C84.7074 53.4488 84.624 53.7701 84.4572 54.0523C84.2921 54.3328 84.0622 54.5538 83.7676 54.7153C83.4747 54.875 83.1357 54.9549 82.7505 54.9549ZM88.5148 53.858V53.5704C88.5148 53.3592 88.5592 53.1648 88.6479 52.9873C88.7385 52.8098 88.8698 52.6669 89.042 52.5587C89.2142 52.4504 89.4227 52.3962 89.6677 52.3962C89.9197 52.3962 90.131 52.4504 90.3014 52.5587C90.4718 52.6652 90.6005 52.8072 90.6874 52.9847C90.7762 53.1622 90.8206 53.3574 90.8206 53.5704V53.858C90.8206 54.0692 90.7762 54.2636 90.6874 54.4411C90.5987 54.6186 90.4682 54.7614 90.296 54.8697C90.1256 54.978 89.9162 55.0321 89.6677 55.0321C89.4192 55.0321 89.2088 54.978 89.0367 54.8697C88.8645 54.7614 88.734 54.6186 88.6453 54.4411C88.5583 54.2636 88.5148 54.0692 88.5148 53.858ZM89.2097 53.5704V53.858C89.2097 53.9982 89.2435 54.1269 89.3109 54.244C89.3784 54.3612 89.4973 54.4198 89.6677 54.4198C89.8399 54.4198 89.9579 54.3621 90.0218 54.2467C90.0875 54.1295 90.1203 54 90.1203 53.858V53.5704C90.1203 53.4284 90.0893 53.2988 90.0271 53.1817C89.965 53.0628 89.8452 53.0033 89.6677 53.0033C89.5008 53.0033 89.3828 53.0628 89.3136 53.1817C89.2443 53.2988 89.2097 53.4284 89.2097 53.5704ZM85.7431 50.7375V50.45C85.7431 50.237 85.7884 50.0417 85.8789 49.8642C85.9695 49.6867 86.1008 49.5447 86.273 49.4382C86.4452 49.3299 86.6537 49.2758 86.8987 49.2758C87.149 49.2758 87.3593 49.3299 87.5297 49.4382C87.7019 49.5447 87.8314 49.6867 87.9184 49.8642C88.0054 50.0417 88.0489 50.237 88.0489 50.45V50.7375C88.0489 50.9505 88.0045 51.1458 87.9158 51.3233C87.8288 51.499 87.6992 51.6401 87.527 51.7466C87.3549 51.8531 87.1454 51.9063 86.8987 51.9063C86.6484 51.9063 86.4372 51.8531 86.265 51.7466C86.0946 51.6401 85.965 51.4981 85.8763 51.3206C85.7875 51.1431 85.7431 50.9487 85.7431 50.7375ZM86.4434 50.45V50.7375C86.4434 50.8795 86.4762 51.0091 86.5419 51.1262C86.6093 51.2416 86.7283 51.2993 86.8987 51.2993C87.0691 51.2993 87.1862 51.2416 87.2501 51.1262C87.3158 51.0091 87.3486 50.8795 87.3486 50.7375V50.45C87.3486 50.308 87.3176 50.1784 87.2555 50.0612C87.1933 49.9423 87.0744 49.8828 86.8987 49.8828C86.73 49.8828 86.612 49.9423 86.5446 50.0612C86.4771 50.1802 86.4434 50.3097 86.4434 50.45ZM86.0467 54.8804L89.7955 49.4275H90.4611L86.7123 54.8804H86.0467Z" fill="white"/>
</g>
<g clip-path="url(#clip2_1397_5676)">
<path d="M25.9571 76.3613V75.5759L28.2708 71.9202H28.9258V73.0385H28.5264L26.9688 75.5066V75.5492H30.1984V76.3613H25.9571ZM28.5583 77.373V76.1217L28.569 75.7702V71.9202H29.5009V77.373H28.5583ZM32.9448 77.4476C32.5898 77.4476 32.2721 77.381 31.9916 77.2479C31.7112 77.113 31.4884 76.9284 31.3233 76.6941C31.16 76.4598 31.0731 76.1918 31.0624 75.89H32.0209C32.0387 76.1137 32.1354 76.2965 32.3111 76.4385C32.4869 76.5787 32.6981 76.6488 32.9448 76.6488C33.1383 76.6488 33.3105 76.6045 33.4613 76.5157C33.6122 76.427 33.7311 76.3036 33.8181 76.1456C33.9051 75.9877 33.9477 75.8075 33.9459 75.6051C33.9477 75.3992 33.9042 75.2164 33.8155 75.0567C33.7267 74.8969 33.6051 74.7718 33.4507 74.6812C33.2963 74.5889 33.1188 74.5428 32.9182 74.5428C32.7549 74.541 32.5943 74.5712 32.4363 74.6333C32.2783 74.6954 32.1532 74.7771 32.0609 74.8783L31.1689 74.7318L31.4538 71.9202H34.6169V72.7456H32.2712L32.1141 74.1913H32.1461C32.2472 74.0724 32.3901 73.9739 32.5747 73.8958C32.7593 73.8159 32.9617 73.776 33.1818 73.776C33.5119 73.776 33.8066 73.8541 34.0657 74.0103C34.3249 74.1647 34.529 74.3777 34.6781 74.6493C34.8272 74.9209 34.9018 75.2315 34.9018 75.5812C34.9018 75.9415 34.8183 76.2628 34.6515 76.545C34.4864 76.8255 34.2565 77.0464 33.9619 77.208C33.669 77.3677 33.33 77.4476 32.9448 77.4476ZM38.7092 76.3506V76.0631C38.7092 75.8519 38.7535 75.6575 38.8423 75.48C38.9328 75.3025 39.0642 75.1596 39.2363 75.0513C39.4085 74.9431 39.6171 74.8889 39.862 74.8889C40.1141 74.8889 40.3253 74.9431 40.4957 75.0513C40.6661 75.1578 40.7948 75.2998 40.8818 75.4773C40.9705 75.6548 41.0149 75.8501 41.0149 76.0631V76.3506C41.0149 76.5619 40.9705 76.7562 40.8818 76.9337C40.793 77.1112 40.6626 77.2541 40.4904 77.3624C40.32 77.4707 40.1105 77.5248 39.862 77.5248C39.6135 77.5248 39.4032 77.4707 39.231 77.3624C39.0588 77.2541 38.9284 77.1112 38.8396 76.9337C38.7526 76.7562 38.7092 76.5619 38.7092 76.3506ZM39.4041 76.0631V76.3506C39.4041 76.4909 39.4378 76.6196 39.5052 76.7367C39.5727 76.8539 39.6916 76.9124 39.862 76.9124C40.0342 76.9124 40.1522 76.8547 40.2161 76.7394C40.2818 76.6222 40.3146 76.4926 40.3146 76.3506V76.0631C40.3146 75.9211 40.2836 75.7915 40.2215 75.6744C40.1593 75.5554 40.0395 75.496 39.862 75.496C39.6952 75.496 39.5771 75.5554 39.5079 75.6744C39.4387 75.7915 39.4041 75.9211 39.4041 76.0631ZM35.9375 73.2302V72.9426C35.9375 72.7296 35.9827 72.5344 36.0733 72.3569C36.1638 72.1794 36.2951 72.0374 36.4673 71.9309C36.6395 71.8226 36.8481 71.7685 37.093 71.7685C37.3433 71.7685 37.5536 71.8226 37.724 71.9309C37.8962 72.0374 38.0258 72.1794 38.1128 72.3569C38.1997 72.5344 38.2432 72.7296 38.2432 72.9426V73.2302C38.2432 73.4432 38.1988 73.6384 38.1101 73.8159C38.0231 73.9917 37.8935 74.1328 37.7214 74.2393C37.5492 74.3458 37.3397 74.399 37.093 74.399C36.8427 74.399 36.6315 74.3458 36.4593 74.2393C36.2889 74.1328 36.1594 73.9908 36.0706 73.8133C35.9819 73.6358 35.9375 73.4414 35.9375 73.2302ZM36.6377 72.9426V73.2302C36.6377 73.3722 36.6706 73.5018 36.7362 73.6189C36.8037 73.7343 36.9226 73.792 37.093 73.792C37.2634 73.792 37.3806 73.7343 37.4445 73.6189C37.5101 73.5018 37.543 73.3722 37.543 73.2302V72.9426C37.543 72.8006 37.5119 72.6711 37.4498 72.5539C37.3877 72.435 37.2687 72.3755 37.093 72.3755C36.9244 72.3755 36.8063 72.435 36.7389 72.5539C36.6714 72.6728 36.6377 72.8024 36.6377 72.9426ZM36.241 77.373L39.9898 71.9202H40.6555L36.9066 77.373H36.241Z" fill="white"/>
</g>
<defs>
<clipPath id="clip0_1397_5676">
<rect width="14.9953" height="9.10427" fill="white" transform="translate(31.0615 24.3164)"/>
</clipPath>
<clipPath id="clip1_1397_5676">
<rect width="16.0664" height="9.10427" fill="white" transform="translate(74.4409 47.8804)"/>
</clipPath>
<clipPath id="clip2_1397_5676">
<rect width="16.0664" height="9.10427" fill="white" transform="translate(24.6353 70.373)"/>
</clipPath>
</defs>
</svg>
