<svg width="24" height="24" viewBox="0 0 24 24" fill="none" xmlns="http://www.w3.org/2000/svg">
<path d="M11.5771 0.0653076C12.6696 0.0653076 13.5562 0.951974 13.5562 2.04447V9.56531H21.0771C21.602 9.56531 22.1054 9.77382 22.4765 10.145C22.8477 10.5162 23.0562 11.0196 23.0562 11.5445C23.0562 12.0694 22.8477 12.5728 22.4765 12.944C22.1054 13.3151 21.602 13.5236 21.0771 13.5236H13.5562V21.0445C13.5562 21.5694 13.3477 22.0728 12.9765 22.444C12.6054 22.8151 12.102 23.0236 11.5771 23.0236C11.0522 23.0236 10.5487 22.8151 10.1776 22.444C9.80642 22.0728 9.5979 21.5694 9.5979 21.0445V13.5236H2.07707C1.55216 13.5236 1.04875 13.3151 0.677585 12.944C0.306419 12.5728 0.0979004 12.0694 0.0979004 11.5445C0.0979004 11.0196 0.306419 10.5162 0.677585 10.145C1.04875 9.77382 1.55216 9.56531 2.07707 9.56531H9.5979V2.04447C9.5979 0.951974 10.4846 0.0653076 11.5771 0.0653076Z" fill="white"/>
</svg>
