<svg width="9" height="9" viewBox="0 0 9 9" fill="none" xmlns="http://www.w3.org/2000/svg">
<g clip-path="url(#clip0_1523_2379)">
<path d="M0.822021 3.3034C0.822021 2.64015 0.822021 2.30888 1.0281 2.10281C1.23417 1.89673 1.56544 1.89673 2.22869 1.89673H6.44869C7.11193 1.89673 7.4432 1.89673 7.64928 2.10281C7.85535 2.30888 7.85535 2.64015 7.85535 3.3034C7.85535 3.46903 7.85535 3.55202 7.80401 3.60372C7.75232 3.65506 7.66897 3.65506 7.50369 3.65506H1.17369C1.00805 3.65506 0.92506 3.65506 0.873365 3.60372C0.822021 3.55202 0.822021 3.46868 0.822021 3.3034ZM0.822021 6.4684C0.822021 7.13164 0.822021 7.46291 1.0281 7.66898C1.23417 7.87506 1.56544 7.87506 2.22869 7.87506H6.44869C7.11193 7.87506 7.4432 7.87506 7.64928 7.66898C7.85535 7.46291 7.85535 7.13164 7.85535 6.4684V4.71006C7.85535 4.54443 7.85535 4.46143 7.80401 4.40974C7.75232 4.3584 7.66897 4.3584 7.50369 4.3584H1.17369C1.00805 4.3584 0.92506 4.3584 0.873365 4.40974C0.822021 4.46143 0.822021 4.54478 0.822021 4.71006V6.4684Z" fill="#524B6B"/>
<path d="M2.58032 1.19336V2.24836M6.09699 1.19336V2.24836" stroke="#524B6B" stroke-width="2" stroke-linecap="round"/>
</g>
<defs>
<clipPath id="clip0_1523_2379">
<rect width="8.44" height="8.44" fill="white" transform="translate(0.118652 0.138428)"/>
</clipPath>
</defs>
</svg>
