<svg width="27" height="27" viewBox="0 0 27 27" fill="none" xmlns="http://www.w3.org/2000/svg">
<path d="M7.80396 13.365C7.80396 13.1435 7.89196 12.931 8.04861 12.7744C8.20526 12.6177 8.41773 12.5297 8.63927 12.5297H12.5296V8.63939C12.5296 8.41785 12.6176 8.20539 12.7743 8.04873C12.9309 7.89208 13.1434 7.80408 13.3649 7.80408C13.5864 7.80408 13.7989 7.89208 13.9556 8.04873C14.1122 8.20539 14.2002 8.41785 14.2002 8.63939V12.5297H18.0906C18.3121 12.5297 18.5246 12.6177 18.6812 12.7744C18.8379 12.931 18.9259 13.1435 18.9259 13.365C18.9259 13.5866 18.8379 13.799 18.6812 13.9557C18.5246 14.1123 18.3121 14.2003 18.0906 14.2003H14.2002V18.0907C14.2002 18.3122 14.1122 18.5247 13.9556 18.6813C13.7989 18.838 13.5864 18.926 13.3649 18.926C13.1434 18.926 12.9309 18.838 12.7743 18.6813C12.6176 18.5247 12.5296 18.3122 12.5296 18.0907V14.2003H8.63927C8.41773 14.2003 8.20526 14.1123 8.04861 13.9557C7.89196 13.799 7.80396 13.5866 7.80396 13.365Z" fill="black"/>
<path fill-rule="evenodd" clip-rule="evenodd" d="M8.14941 4.19778C11.6159 3.81347 15.1143 3.81347 18.5808 4.19778C20.6156 4.42498 22.2584 6.02767 22.4967 8.07363C22.9088 11.5897 22.9088 15.1415 22.4967 18.6576C22.2573 20.7036 20.6145 22.3051 18.5808 22.5334C15.1143 22.9178 11.6159 22.9178 8.14941 22.5334C6.11459 22.3051 4.4718 20.7036 4.23346 18.6576C3.82322 15.1415 3.82322 11.5897 4.23346 8.07363C4.4718 6.02767 6.1157 4.42498 8.14941 4.19778ZM18.3959 5.85726C15.0523 5.48664 11.6779 5.48664 8.33429 5.85726C7.71532 5.92593 7.13757 6.20127 6.69438 6.6388C6.25119 7.07633 5.96845 7.65049 5.89184 8.26853C5.49571 11.6554 5.49571 15.0769 5.89184 18.4638C5.96869 19.0816 6.25153 19.6555 6.69469 20.0929C7.13786 20.5302 7.71548 20.8053 8.33429 20.874C11.6499 21.2437 15.0803 21.2437 18.3959 20.874C19.0145 20.8051 19.5919 20.5298 20.0348 20.0925C20.4778 19.6553 20.7604 19.0815 20.8372 18.4638C21.2334 15.0769 21.2334 11.6554 20.8372 8.26853C20.7602 7.65106 20.4774 7.07754 20.0345 6.64048C19.5916 6.20342 19.0143 5.9283 18.3959 5.85949" fill="black"/>
</svg>
